<svg width="20" height="21" viewBox="0 0 20 21" fill="none" xmlns="http://www.w3.org/2000/svg">
<path fill-rule="evenodd" clip-rule="evenodd" d="M9.37376 1.02625C8.91876 1.0975 8.58376 1.2725 8.23501 1.6225C8.03251 1.82625 7.94626 1.9375 7.85626 2.11875C7.79251 2.2475 7.73876 2.355 7.73876 2.35875C7.67966 2.34798 7.62122 2.33379 7.56376 2.31625C7.39208 2.27709 7.21593 2.26112 7.04001 2.26875C6.74626 2.27 6.65376 2.28125 6.46626 2.34375C6.1774 2.43586 5.91166 2.58885 5.68697 2.79241C5.46228 2.99597 5.28386 3.24536 5.16376 3.52375C5.05251 3.78875 5.01376 4.02125 5.01251 4.43375V4.82375L4.93251 4.805C4.63068 4.75329 4.32239 4.7516 4.02001 4.8C3.64544 4.87946 3.30012 5.06091 3.02218 5.32429C2.74424 5.58767 2.5445 5.92274 2.44501 6.2925C2.38876 6.51125 2.38751 6.63125 2.38751 10.3037C2.38751 14.345 2.38876 14.3662 2.53251 15.0312C2.66876 15.6537 3.03001 16.5187 3.38376 17.0712C4.27045 18.4428 5.64617 19.4252 7.23126 19.8187C7.89376 19.9825 8.09376 19.9975 9.53376 19.9975C10.9438 19.9975 11.12 19.9862 11.6675 19.8487C12.3566 19.6774 13.0028 19.365 13.565 18.9312C13.885 18.69 15.715 16.8575 15.9363 16.5562C16.3863 15.9425 16.6675 15.3587 16.8413 14.675C16.9588 14.215 16.9738 14.0287 16.9913 12.9275L17.0075 11.8362L17.135 11.6625C17.2913 11.45 17.4163 11.1925 17.4838 10.9412C17.5525 10.6887 17.555 10.1787 17.4875 9.92125C17.3894 9.55352 17.1931 9.21941 16.9196 8.95473C16.6461 8.69005 16.3058 8.50477 15.935 8.41875C15.4746 8.3256 14.9963 8.38483 14.5725 8.5875L14.3775 8.68375L14.3675 6.305C14.3588 4.23125 14.3513 3.9075 14.3113 3.77625C14.2141 3.44401 14.0378 3.14031 13.7974 2.89123C13.5571 2.64215 13.2598 2.45514 12.9313 2.34625C12.7313 2.28125 12.6463 2.27 12.3338 2.26875C12.1555 2.2611 11.977 2.27622 11.8025 2.31375L11.6363 2.36L11.5513 2.18125C11.4251 1.92036 11.2462 1.68847 11.0259 1.50022C10.8056 1.31196 10.5486 1.17143 10.2713 1.0875C9.97796 1.01488 9.67421 0.994154 9.37376 1.02625ZM9.90376 2.54375C9.94876 2.56 10.0288 2.61625 10.0813 2.66625C10.27 2.84875 10.2625 2.685 10.2625 6.55V10.0525L10.3313 10.1987C10.3927 10.3362 10.4963 10.4506 10.6272 10.5252C10.758 10.5998 10.9091 10.6308 11.0588 10.6137C11.34 10.5912 11.5313 10.4625 11.6713 10.2012L11.735 10.0812L11.75 7.10625L11.765 4.13125L11.8313 4.02375C11.877 3.95007 11.9392 3.88799 12.0129 3.84239C12.0867 3.79678 12.17 3.76889 12.2564 3.76089C12.3427 3.7529 12.4298 3.76503 12.5106 3.79632C12.5915 3.82761 12.664 3.87722 12.7225 3.94125C12.7761 3.99872 12.8193 4.06514 12.85 4.1375C12.8625 4.1825 12.8725 6.0425 12.8725 8.27V12.3225L12.6688 12.3625C11.9838 12.5 11.2225 12.8887 10.6375 13.4012C10.3288 13.6712 10.2325 13.8387 10.2338 14.105C10.235 14.3175 10.3013 14.4787 10.4488 14.6262C10.6163 14.7937 10.715 14.8337 10.9625 14.835C11.2313 14.835 11.33 14.7912 11.595 14.5512C12.1188 14.0762 12.6863 13.8375 13.475 13.76C13.9163 13.7175 14.07 13.6575 14.2113 13.4712C14.3525 13.2862 14.3575 13.2512 14.3775 12.2687C14.3938 11.4337 14.4025 11.3137 14.4575 11.125C14.5288 10.8691 14.6401 10.626 14.7875 10.405C15.1225 9.90625 15.4013 9.76875 15.7325 9.935C16.09 10.1137 16.145 10.5187 15.8588 10.86C15.525 11.2575 15.5325 11.2187 15.51 12.6187C15.4888 13.93 15.47 14.115 15.3025 14.6012C15.0613 15.305 14.9 15.5237 13.7938 16.6387C13.2875 17.15 12.79 17.6337 12.6888 17.715C12.2695 18.0433 11.7856 18.2793 11.2688 18.4075C10.9038 18.5012 10.2725 18.535 9.22751 18.515C8.11126 18.4937 7.75876 18.4475 7.17126 18.2412C6.47371 18.003 5.8406 17.6069 5.32126 17.0837C4.68283 16.4561 4.23256 15.6625 4.02126 14.7925C3.87751 14.23 3.87626 14.1737 3.87626 10.315C3.87626 6.86875 3.87876 6.6925 3.93001 6.58C3.97732 6.48118 4.05132 6.39756 4.14365 6.33859C4.23598 6.27961 4.34296 6.24763 4.45251 6.24625C4.55126 6.24625 4.72376 6.32625 4.81876 6.415C5.00751 6.595 4.99626 6.4675 5.01251 8.71C5.02501 10.5425 5.03251 10.7612 5.07501 10.84C5.15251 10.9775 5.30751 11.12 5.44751 11.1837C5.60501 11.2525 5.88626 11.2587 6.03501 11.1962C6.19668 11.1203 6.3314 10.9969 6.42126 10.8425L6.48501 10.7225L6.50001 7.4275L6.51501 4.13125L6.58126 4.02375C6.83501 3.615 7.46501 3.7 7.59376 4.16C7.62501 4.275 7.63751 4.7225 7.65376 6.26C7.66376 7.335 7.68126 8.50375 7.69251 8.8575C7.71001 9.45 7.71751 9.5075 7.77626 9.60375C7.93876 9.86625 8.14251 9.9875 8.42501 9.98875C8.52956 9.99447 8.63405 9.9764 8.73062 9.93592C8.82718 9.89543 8.9133 9.83357 8.98251 9.755C9.20126 9.51125 9.19251 9.64875 9.15626 7.1025C9.11251 3.96625 9.11501 2.9725 9.16501 2.85375C9.22721 2.7237 9.33102 2.61812 9.46001 2.55375C9.60349 2.50548 9.75826 2.50199 9.90376 2.54375Z" fill="white"/>
</svg>
