<svg width="21" height="21" viewBox="0 0 21 21" fill="none" xmlns="http://www.w3.org/2000/svg">
    <path fill-rule="evenodd" clip-rule="evenodd" d="M14.9331 2.33472C15.4509 2.33472 15.8706 2.73766 15.8706 3.23472V9.06805C15.8706 9.56511 15.4509 9.96805 14.9331 9.96805C14.4154 9.96805 13.9956 9.56511 13.9956 9.06805V3.23472C13.9956 2.73766 14.4154 2.33472 14.9331 2.33472Z" fill="#1E1A33"/>
    <path fill-rule="evenodd" clip-rule="evenodd" d="M11.1165 6.15125C11.1165 5.63348 11.5194 5.21375 12.0165 5.21375H17.8498C18.3468 5.21375 18.7498 5.63348 18.7498 6.15125C18.7498 6.66901 18.3468 7.08875 17.8498 7.08875H12.0165C11.5194 7.08875 11.1165 6.66901 11.1165 6.15125Z" fill="#1E1A33"/>
    <path d="M12.4957 3.64545C11.964 3.31459 11.4682 2.93118 11.0157 2.50243C10.7262 2.22813 10.2726 2.22839 9.98342 2.50303C8.23854 4.16004 5.91476 5.06886 3.50868 5.03528C3.18076 5.0307 2.8879 5.23971 2.78562 5.55131C2.42978 6.63538 2.24894 7.76923 2.24988 8.91021C2.24988 13.9207 5.67627 18.1283 10.313 19.3215C10.4356 19.3531 10.5642 19.3531 10.6868 19.3215C15.3235 18.1283 18.7499 13.9207 18.7499 8.91021C18.7499 8.74526 18.7462 8.58118 18.7388 8.41802C18.4671 8.52756 18.1682 8.5885 17.8498 8.5885H17.3707V9.06781C17.3707 9.39784 17.3052 9.70706 17.1879 9.98661C16.7521 13.7477 14.0603 16.8219 10.4999 17.8187C6.60513 16.7283 3.74988 13.1515 3.74988 8.90954C3.74916 8.10479 3.85356 7.30416 4.05985 6.52786C6.42195 6.43473 8.6866 5.56271 10.5003 4.05005C10.5439 4.08631 10.5877 4.12224 10.6318 4.15782C11.0164 3.88023 11.49 3.7135 12.0165 3.7135H12.4957V3.64545Z" fill="#1E1A33"/>
    <path d="M17.0705 7.0885C17.0327 6.899 16.989 6.71163 16.9398 6.52656C15.2291 6.45843 13.6208 5.99036 12.2065 5.2135H13.9957V4.39887C14.5928 4.63329 15.2203 4.80737 15.8707 4.91364V5.2135L17.8498 5.21375C17.9018 5.21375 17.9528 5.21809 18.0024 5.22691C18.0979 5.31255 18.172 5.42314 18.214 5.55094C18.3434 5.94448 18.4507 6.34786 18.5344 6.75965C18.3693 6.96091 18.1238 7.08875 17.8498 7.08875L17.0705 7.0885Z" fill="#1E1A33"/>
    <path d="M10.1173 7.63996C9.89733 7.77068 9.74988 8.01072 9.74988 8.28521V11.4102C9.74988 11.8244 10.0857 12.1602 10.4999 12.1602C10.9141 12.1602 11.2499 11.8244 11.2499 11.4102V8.4634C10.7897 8.3072 10.4004 8.01437 10.1173 7.63996Z" fill="#1E1A33"/>
    <path d="M10.4999 13.1602C10.0857 13.1602 9.74988 13.496 9.74988 13.9102V13.9169C9.74988 14.3311 10.0857 14.6669 10.4999 14.6669H10.5065C10.9208 14.6669 11.2565 14.3311 11.2565 13.9169V13.9102C11.2565 13.496 10.9208 13.1602 10.5065 13.1602H10.4999Z" fill="#1E1A33"/>
</svg>
