<svg width="16" height="16" viewBox="0 0 16 16" fill="none" xmlns="http://www.w3.org/2000/svg">
<path fill-rule="evenodd" clip-rule="evenodd" d="M12.2904 2.75768C12.475 2.79693 12.6256 2.93005 12.6872 3.10848L12.963 3.90688L14.0933 2.83821C14.3093 2.63394 14.65 2.64349 14.8543 2.85952C15.0586 3.07556 15.049 3.41628 14.833 3.62054L13.0964 5.26247C12.9636 5.3881 12.776 5.43769 12.5984 5.39415C12.4208 5.35061 12.2775 5.2199 12.2178 5.04706L11.9614 4.30489L11.0848 5.24291C10.8818 5.46014 10.5412 5.47167 10.3239 5.26867C10.1067 5.06567 10.0952 4.72501 10.2982 4.50778L11.7851 2.91668C11.914 2.77875 12.1057 2.71842 12.2904 2.75768ZM12.2674 13.4845C12.4579 13.4438 12.6115 13.3034 12.6691 13.1174L12.9501 12.2105L14.0731 13.3904C14.2781 13.6057 14.6189 13.6141 14.8342 13.4092C15.0496 13.2042 15.058 12.8634 14.853 12.6481L13.0974 10.8036C12.9657 10.6653 12.7706 10.6071 12.5847 10.6506C12.3987 10.6942 12.2498 10.833 12.1933 11.0154L11.9249 11.8815L10.5574 10.3266C10.361 10.1034 10.0209 10.0816 9.79762 10.2779C9.57437 10.4743 9.55257 10.8144 9.74893 11.0377L11.7507 13.3136C11.8793 13.4599 12.0769 13.5252 12.2674 13.4845ZM11.2298 6.3938C10.9325 6.3938 10.6915 6.63482 10.6915 6.93213C10.6915 7.22945 10.9325 7.47047 11.2298 7.47047L13.9215 7.47047C14.2188 7.47047 14.4598 7.22945 14.4598 6.93213C14.4598 6.63482 14.2188 6.3938 13.9215 6.3938L11.2298 6.3938ZM10.6915 9.08547C10.6915 8.78816 10.9325 8.54714 11.2298 8.54714H13.9215C14.2188 8.54714 14.4598 8.78816 14.4598 9.08547C14.4598 9.38279 14.2188 9.62381 13.9215 9.62381H11.2298C10.9325 9.62381 10.6915 9.38279 10.6915 9.08547ZM5.30814 3.70209C5.17573 3.70209 5.04796 3.7509 4.94926 3.83917C3.97906 4.70893 2.76762 5.26431 1.47527 5.43046C1.3485 5.44675 1.23166 5.50762 1.14565 5.60217C1.05965 5.69672 1.01009 5.81879 1.00585 5.94653C0.957315 7.36828 1.3122 8.77473 2.02947 10.0032C2.74674 11.2318 3.79709 12.2322 5.05908 12.8888C5.13591 12.929 5.22132 12.9501 5.30805 12.9502C5.39478 12.9503 5.48026 12.9295 5.55721 12.8895C6.81919 12.2329 7.86954 11.2325 8.58681 10.004C9.30408 8.77545 9.65897 7.369 9.61043 5.94725C9.60636 5.81938 9.55687 5.69714 9.47086 5.60244C9.38484 5.50774 9.2679 5.44677 9.14101 5.43046C7.84858 5.26411 6.63714 4.70919 5.66702 3.83917C5.56833 3.7509 5.44056 3.70209 5.30814 3.70209ZM5.68879 6.35901C5.58784 6.25806 5.45091 6.20134 5.30814 6.20134C5.16537 6.20134 5.02844 6.25806 4.92749 6.35901C4.82653 6.45997 4.76982 6.59689 4.76982 6.73966V8.1752C4.76982 8.31797 4.82653 8.45489 4.92749 8.55585C5.02844 8.6568 5.16537 8.71352 5.30814 8.71352C5.45091 8.71352 5.58784 8.6568 5.68879 8.55585C5.78975 8.45489 5.84647 8.31797 5.84647 8.1752V6.73966C5.84647 6.59689 5.78975 6.45997 5.68879 6.35901ZM5.81568 11.0155C5.68107 11.1501 5.4985 11.2257 5.30814 11.2257C5.11778 11.2257 4.93521 11.1501 4.8006 11.0155C4.666 10.8809 4.59038 10.6983 4.59038 10.5079C4.59038 10.3176 4.666 10.135 4.8006 10.0004C4.93521 9.86579 5.11778 9.79017 5.30814 9.79017C5.4985 9.79017 5.68107 9.86579 5.81568 10.0004C5.95029 10.135 6.02591 10.3176 6.02591 10.5079C6.02591 10.6983 5.95029 10.8809 5.81568 11.0155Z" fill="#E2E1E4"/>
</svg>
