<svg width="20" height="20" viewBox="0 0 20 20" fill="none" xmlns="http://www.w3.org/2000/svg">
<path fill-rule="evenodd" clip-rule="evenodd" d="M9.37499 2.18587C9.54687 2.03214 9.76939 1.94714 9.99999 1.94714C10.2306 1.94714 10.4531 2.03214 10.625 2.18587C12.3145 3.70103 14.4242 4.66741 16.675 4.95712C16.896 4.98553 17.0996 5.09171 17.2494 5.25663C17.3992 5.42155 17.4854 5.63443 17.4925 5.85712C17.577 8.33312 16.959 10.7825 15.7098 12.922C14.4607 15.0614 12.6315 16.8036 10.4337 17.9471C10.2997 18.0168 10.1509 18.0531 9.99984 18.0529C9.8488 18.0527 9.70004 18.0159 9.56624 17.9459C7.36848 16.8024 5.53927 15.0602 4.29013 12.9207C3.041 10.7812 2.42296 8.33187 2.50749 5.85587C2.51488 5.6334 2.60118 5.42082 2.75096 5.25615C2.90073 5.09149 3.10421 4.98549 3.32499 4.95712C5.57564 4.66777 7.68537 3.70182 9.37499 2.18712V2.18587ZM9.99999 6.29962C10.2486 6.29962 10.4871 6.39839 10.6629 6.57421C10.8387 6.75002 10.9375 6.98848 10.9375 7.23712V9.73712C10.9375 9.98576 10.8387 10.2242 10.6629 10.4C10.4871 10.5759 10.2486 10.6746 9.99999 10.6746C9.75135 10.6746 9.51289 10.5759 9.33708 10.4C9.16126 10.2242 9.06249 9.98576 9.06249 9.73712V7.23712C9.06249 6.98848 9.16126 6.75002 9.33708 6.57421C9.51289 6.39839 9.75135 6.29962 9.99999 6.29962ZM9.99999 15.0496C10.3315 15.0496 10.6495 14.9179 10.8839 14.6835C11.1183 14.4491 11.25 14.1311 11.25 13.7996C11.25 13.4681 11.1183 13.1502 10.8839 12.9157C10.6495 12.6813 10.3315 12.5496 9.99999 12.5496C9.66847 12.5496 9.35053 12.6813 9.11611 12.9157C8.88169 13.1502 8.74999 13.4681 8.74999 13.7996C8.74999 14.1311 8.88169 14.4491 9.11611 14.6835C9.35053 14.9179 9.66847 15.0496 9.99999 15.0496Z" fill="#09080F"/>
<path fill-rule="evenodd" clip-rule="evenodd" d="M9.37499 2.18587C9.54687 2.03214 9.76939 1.94714 9.99999 1.94714C10.2306 1.94714 10.4531 2.03214 10.625 2.18587C12.3145 3.70103 14.4242 4.66741 16.675 4.95712C16.896 4.98553 17.0996 5.09171 17.2494 5.25663C17.3992 5.42155 17.4854 5.63443 17.4925 5.85712C17.577 8.33312 16.959 10.7825 15.7098 12.922C14.4607 15.0614 12.6315 16.8036 10.4337 17.9471C10.2997 18.0168 10.1509 18.0531 9.99984 18.0529C9.8488 18.0527 9.70004 18.0159 9.56624 17.9459C7.36848 16.8024 5.53927 15.0602 4.29013 12.9207C3.041 10.7812 2.42296 8.33187 2.50749 5.85587C2.51488 5.6334 2.60118 5.42082 2.75096 5.25615C2.90073 5.09149 3.10421 4.98549 3.32499 4.95712C5.57564 4.66777 7.68537 3.70182 9.37499 2.18712V2.18587ZM9.99999 6.29962C10.2486 6.29962 10.4871 6.39839 10.6629 6.57421C10.8387 6.75002 10.9375 6.98848 10.9375 7.23712V9.73712C10.9375 9.98576 10.8387 10.2242 10.6629 10.4C10.4871 10.5759 10.2486 10.6746 9.99999 10.6746C9.75135 10.6746 9.51289 10.5759 9.33708 10.4C9.16126 10.2242 9.06249 9.98576 9.06249 9.73712V7.23712C9.06249 6.98848 9.16126 6.75002 9.33708 6.57421C9.51289 6.39839 9.75135 6.29962 9.99999 6.29962ZM9.99999 15.0496C10.3315 15.0496 10.6495 14.9179 10.8839 14.6835C11.1183 14.4491 11.25 14.1311 11.25 13.7996C11.25 13.4681 11.1183 13.1502 10.8839 12.9157C10.6495 12.6813 10.3315 12.5496 9.99999 12.5496C9.66847 12.5496 9.35053 12.6813 9.11611 12.9157C8.88169 13.1502 8.74999 13.4681 8.74999 13.7996C8.74999 14.1311 8.88169 14.4491 9.11611 14.6835C9.35053 14.9179 9.66847 15.0496 9.99999 15.0496Z" fill="#09080F"/>
</svg>
