<svg width="20" height="20" viewBox="0 0 20 20" fill="none" xmlns="http://www.w3.org/2000/svg">
<path fill-rule="evenodd" clip-rule="evenodd" d="M14.6291 1.95009C15.1468 1.95009 15.5666 2.35304 15.5666 2.85009V8.68343C15.5666 9.18048 15.1468 9.58343 14.6291 9.58343C14.1113 9.58343 13.6916 9.18048 13.6916 8.68343V2.85009C13.6916 2.35304 14.1113 1.95009 14.6291 1.95009Z" fill="#E2E1E4"/>
<path fill-rule="evenodd" clip-rule="evenodd" d="M10.8124 5.76662C10.8124 5.24885 11.2154 4.82912 11.7124 4.82912H17.5457C18.0428 4.82912 18.4457 5.24885 18.4457 5.76662C18.4457 6.28439 18.0428 6.70412 17.5457 6.70412H11.7124C11.2154 6.70412 10.8124 6.28439 10.8124 5.76662Z" fill="#E2E1E4"/>
<path d="M15.5666 8.68343V6.7041H17.494C17.5025 6.42244 17.5021 6.14002 17.4924 5.85724C17.4853 5.63456 17.3991 5.42167 17.2493 5.25675C17.0995 5.09183 16.8959 4.98565 16.6749 4.95724C16.4135 4.92359 16.1539 4.88081 15.8967 4.8291H15.5666V4.75753C14.9231 4.60785 14.2958 4.40191 13.6916 4.14294V4.8291L11.7124 4.82912C11.5112 4.82912 11.3254 4.89788 11.1755 5.0141C10.9552 5.18498 10.8124 5.45844 10.8124 5.76662C10.8124 6.28439 11.2154 6.70412 11.7124 6.70412L13.6916 6.7041V8.68343C13.6916 9.18048 14.1113 9.58343 14.6291 9.58343C15.1468 9.58343 15.5666 9.18048 15.5666 8.68343Z" fill="#E2E1E4"/>
<path fill-rule="evenodd" clip-rule="evenodd" d="M12.1404 3.3291C11.6062 2.99317 11.099 2.61119 10.6249 2.18599C10.453 2.03226 10.2305 1.94727 9.9999 1.94727C9.7693 1.94727 9.54678 2.03226 9.3749 2.18599V2.18724C7.68528 3.70195 5.57555 4.66789 3.3249 4.95724C3.10412 4.98561 2.90064 5.09161 2.75086 5.25628C2.60109 5.42094 2.51478 5.63352 2.5074 5.85599C2.42287 8.33199 3.04091 10.7813 4.29004 12.9208C5.53918 15.0603 7.36839 16.8025 9.56615 17.946C9.69995 18.0161 9.8487 18.0528 9.99975 18.053C10.1508 18.0532 10.2996 18.0169 10.4336 17.9472C12.6314 16.8038 14.4606 15.0616 15.7098 12.9221C16.5613 11.4635 17.1196 9.86095 17.3619 8.2041H17.0666V8.68341C17.0666 10.066 15.917 11.0834 14.6291 11.0834C13.3412 11.0834 12.1916 10.066 12.1916 8.68341V8.2041H11.7124C11.438 8.2041 11.1779 8.15881 10.9374 8.07614V9.73724C10.9374 9.98588 10.8386 10.2243 10.6628 10.4002C10.487 10.576 10.2485 10.6747 9.9999 10.6747C9.75126 10.6747 9.5128 10.576 9.33699 10.4002C9.16117 10.2243 9.0624 9.98588 9.0624 9.73724V7.23724C9.0624 6.9886 9.16117 6.75015 9.33699 6.57433C9.36449 6.54683 9.39352 6.52121 9.42389 6.49757C9.35119 6.2642 9.31241 6.01804 9.31241 5.7666C9.31241 4.47871 10.3298 3.3291 11.7124 3.3291H12.1404ZM10.8838 14.6836C10.6494 14.918 10.3314 15.0497 9.9999 15.0497C9.66838 15.0497 9.35044 14.918 9.11602 14.6836C8.8816 14.4492 8.7499 14.1313 8.7499 13.7997C8.7499 13.4682 8.8816 13.1503 9.11602 12.9159C9.35044 12.6814 9.66838 12.5497 9.9999 12.5497C10.3314 12.5497 10.6494 12.6814 10.8838 12.9159C11.1182 13.1503 11.2499 13.4682 11.2499 13.7997C11.2499 14.1313 11.1182 14.4492 10.8838 14.6836Z" fill="#E2E1E4"/>
</svg>
