<svg class="hero-icon" width="16" height="16" viewBox="0 0 16 16" fill="none" xmlns="http://www.w3.org/2000/svg">
    <path fill-rule="evenodd" clip-rule="evenodd" d="M4.4999 2.10039C3.7267 2.10039 3.0999 2.72719 3.0999 3.50039C3.0999 4.27359 3.7267 4.90039 4.4999 4.90039C5.2731 4.90039 5.8999 4.27359 5.8999 3.50039C5.8999 2.72719 5.2731 2.10039 4.4999 2.10039ZM1.8999 3.50039C1.8999 2.06445 3.06396 0.900391 4.4999 0.900391C5.72933 0.900391 6.75946 1.75371 7.03033 2.90039H10.2499C11.8239 2.90039 13.0999 4.17638 13.0999 5.75039C13.0999 7.3244 11.8239 8.60039 10.2499 8.60039H5.2499C4.33863 8.60039 3.5999 9.33912 3.5999 10.2504C3.5999 11.1617 4.33863 11.9004 5.2499 11.9004H12.0514L10.5756 10.4247C10.3413 10.1903 10.3413 9.81044 10.5756 9.57613C10.81 9.34181 11.1899 9.34181 11.4242 9.57613L13.9242 12.0761C14.1585 12.3104 14.1585 12.6903 13.9242 12.9247L11.4242 15.4247C11.1899 15.659 10.81 15.659 10.5756 15.4247C10.3413 15.1903 10.3413 14.8104 10.5756 14.5761L12.0514 13.1004H5.2499C3.67589 13.1004 2.3999 11.8244 2.3999 10.2504C2.3999 8.67638 3.67589 7.40039 5.2499 7.40039H10.2499C11.1612 7.40039 11.8999 6.66166 11.8999 5.75039C11.8999 4.83912 11.1612 4.10039 10.2499 4.10039H7.03033C6.75946 5.24707 5.72934 6.10039 4.4999 6.10039C3.06396 6.10039 1.8999 4.93633 1.8999 3.50039Z" fill="#575554" />
</svg>