<svg width="12" height="12" viewBox="0 0 12 12" fill="none" xmlns="http://www.w3.org/2000/svg">
<path fill-rule="evenodd" clip-rule="evenodd" d="M6.06961 2.36107C6.23846 2.17871 6.52318 2.16775 6.70554 2.33661L10.3055 5.66994C10.3975 5.75511 10.4498 5.87478 10.4498 6.00013C10.4498 6.12549 10.3975 6.24516 10.3055 6.33033L6.70554 9.66366C6.52318 9.83251 6.23846 9.82156 6.06961 9.6392C5.90076 9.45684 5.91171 9.17213 6.09407 9.00327L8.85146 6.45013H1.9998C1.75128 6.45013 1.5498 6.24866 1.5498 6.00013C1.5498 5.7516 1.75128 5.55013 1.9998 5.55013H8.85146L6.09407 2.99699C5.91171 2.82814 5.90076 2.54343 6.06961 2.36107Z" fill="#878787"/>
</svg>
