<svg width="24" height="24" viewBox="0 0 24 24" fill="none" xmlns="http://www.w3.org/2000/svg">
<path fill-rule="evenodd" clip-rule="evenodd" d="M17.5551 2.33996C18.1764 2.33996 18.6801 2.82349 18.6801 3.41996V10.42C18.6801 11.0164 18.1764 11.5 17.5551 11.5C16.9337 11.5 16.4301 11.0164 16.4301 10.42V3.41996C16.4301 2.82349 16.9337 2.33996 17.5551 2.33996Z" fill="#525059"/>
<path fill-rule="evenodd" clip-rule="evenodd" d="M12.9751 6.91979C12.9751 6.29847 13.4586 5.79479 14.0551 5.79479H21.0551C21.6515 5.79479 22.1351 6.29847 22.1351 6.91979C22.1351 7.54111 21.6515 8.04479 21.0551 8.04479H14.0551C13.4586 8.04479 12.9751 7.54111 12.9751 6.91979Z" fill="#525059"/>
<path fill-rule="evenodd" clip-rule="evenodd" d="M12.1104 1.52187C12.5109 1.23387 13.0526 1.47582 13.2266 1.94082C13.5527 2.81437 14.0392 3.61038 14.6504 4.29629H14.0542C12.6652 4.29672 11.6138 5.38014 11.4878 6.66201L11.4746 6.92129L11.4878 7.1791C11.614 8.46069 12.6654 9.54585 14.0542 9.54629H14.9302V10.4208C14.9306 11.9023 16.1642 13.0002 17.5552 13.0004C18.9462 13.0001 20.1798 11.9022 20.1802 10.4208V9.8539C20.904 11.4326 21.1575 13.1881 20.9053 14.9091C20.6439 16.692 19.8522 18.356 18.6348 19.6845C17.4174 21.0128 15.8294 21.945 14.0762 22.3607C12.323 22.7764 10.4855 22.6569 8.8013 22.0165C7.11701 21.376 5.66351 20.2446 4.62942 18.7689C3.59535 17.2933 3.02761 15.5404 3.00052 13.7387C2.97358 11.9372 3.488 10.1689 4.47708 8.66298C4.77702 8.20558 5.44694 8.29366 5.75003 8.74941C6.45598 9.81142 7.41914 10.6782 8.55081 11.266C9.15981 11.581 9.70634 10.8577 9.46634 10.2157C9.17085 9.41625 9.00653 8.55221 9.00052 7.65224V7.6039C8.99957 6.41607 9.2814 5.24542 9.8223 4.18789C10.3631 3.13047 11.1469 2.2163 12.1104 1.52187ZM13.2808 10.7885C13.1338 10.7455 12.9757 10.7573 12.8369 10.8222C12.6981 10.8871 12.5877 11.001 12.5264 11.1415C12.189 11.8928 12.0005 12.7251 12.0005 13.6024C11.9996 14.2335 12.0973 14.8611 12.292 15.4613C12.43 15.8812 12.2432 16.3626 11.8116 16.4603C10.8848 16.6675 9.92167 16.6516 9.00198 16.4149C8.39456 16.259 7.7646 16.7523 8.07181 17.2997C8.43168 17.9437 8.94418 18.4897 9.56448 18.8891C10.185 19.2885 10.8945 19.5298 11.6299 19.5907C12.3651 19.6516 13.1042 19.5309 13.7818 19.2392C14.4595 18.9472 15.0552 18.4926 15.5161 17.9164C15.9771 17.3402 16.2898 16.6597 16.4258 15.9345C16.5619 15.2093 16.5176 14.4617 16.2969 13.7577C16.0761 13.0536 15.6845 12.4151 15.1587 11.8974C14.6329 11.3797 13.9882 10.9983 13.2808 10.7885Z" fill="#525059"/>
</svg>
