<svg width="12" height="12" viewBox="0 0 12 12" fill="none" xmlns="http://www.w3.org/2000/svg">
<path d="M0.807583 2.68258C0.983319 2.50685 1.26759 2.50685 1.44333 2.68258L4.49972 5.73898L6.32492 3.91452L6.38937 3.86105C6.54673 3.75325 6.75934 3.75506 6.91598 3.87423C8.04976 4.73779 8.86429 5.9541 9.23117 7.33126L9.33737 7.7297L10.3855 5.91623C10.5097 5.701 10.7855 5.62716 11.0007 5.75143C11.2157 5.87574 11.2896 6.15081 11.1655 6.36593L9.57394 9.1213C9.51426 9.22466 9.41603 9.29989 9.30075 9.33078C9.18548 9.36164 9.06278 9.34576 8.95944 9.2861L6.20407 7.69528L6.13009 7.64181C5.97354 7.503 5.93071 7.26907 6.03927 7.08078C6.14805 6.89238 6.37239 6.81229 6.57101 6.87863L6.65377 6.91598L8.46872 7.96335L8.36178 7.56418V7.56344C8.08 6.50543 7.49036 5.55836 6.67282 4.83883L4.81833 6.69333C4.73393 6.77772 4.6198 6.82516 4.50045 6.82516C4.38111 6.82516 4.26697 6.77772 4.18258 6.69333L0.807583 3.31833C0.631847 3.14259 0.631847 2.85832 0.807583 2.68258Z" fill="#3B8552"/>
</svg>
