<svg width="240" height="161" viewBox="0 0 240 161" fill="none" xmlns="http://www.w3.org/2000/svg">
<path d="M193.277 20.589L192.317 20.5794C180.811 20.4498 173.587 27.6354 173.578 39.2178V39.7794C185.674 40.3362 193.344 33.021 193.277 20.9922V20.589Z" fill="url(#paint0_linear_3660_144066)"/>
<path d="M152.035 12.9521L151.546 13.9841C145.651 26.3777 149.818 37.7921 162.355 43.5953L162.96 43.8737C169.613 31.0529 165.528 19.0913 152.472 13.1489L152.035 12.9521Z" fill="url(#paint1_linear_3660_144066)"/>
<path d="M148.267 59.1089L148.243 59.8049C147.941 68.1809 153.043 73.5713 161.477 73.7873L161.885 73.7969C162.509 64.9985 157.32 59.2817 148.56 59.1089H148.267Z" fill="url(#paint2_linear_3660_144066)"/>
<path d="M193.608 61.3124L192.85 61.1204C183.759 58.7972 176.645 63.098 174.403 72.2756L174.293 72.7172C183.773 75.4916 191.261 71.1764 193.531 61.6292L193.608 61.3124Z" fill="url(#paint3_linear_3660_144066)"/>
<path fill-rule="evenodd" clip-rule="evenodd" d="M184.297 29.2806C184.48 29.4718 184.474 29.7756 184.283 29.9593L164.942 48.5328V90.3235C164.942 90.5886 164.728 90.8035 164.462 90.8035C164.197 90.8035 163.982 90.5886 163.982 90.3235V48.1237L183.618 29.2669C183.809 29.0832 184.113 29.0894 184.297 29.2806Z" fill="#3B8552"/>
<path d="M148.925 83.9971H179.995C180.648 83.9971 181.181 84.6499 181.181 85.4515V145.187C181.181 145.989 180.653 146.642 179.995 146.642H148.925C148.272 146.642 147.739 145.989 147.739 145.187V85.4515C147.739 84.6499 148.267 83.9971 148.925 83.9971Z" fill="url(#paint4_linear_3660_144066)"/>
<path fill-rule="evenodd" clip-rule="evenodd" d="M184.359 66.7675C184.498 66.9933 184.428 67.2889 184.202 67.4279L164.714 79.4231C164.488 79.5621 164.193 79.4917 164.054 79.2659C163.915 79.0402 163.985 78.7445 164.211 78.6056L183.699 66.6104C183.925 66.4714 184.22 66.5418 184.359 66.7675Z" fill="#3B8552"/>
<path fill-rule="evenodd" clip-rule="evenodd" d="M158.652 30.2118C158.904 30.1308 159.175 30.2698 159.256 30.5223L164.92 48.1814C165.001 48.4339 164.862 48.7041 164.609 48.7851C164.357 48.8661 164.086 48.7271 164.005 48.4746L158.341 30.8154C158.26 30.563 158.399 30.2927 158.652 30.2118Z" fill="#3B8552"/>
<path fill-rule="evenodd" clip-rule="evenodd" d="M154.683 65.5806L164.802 75.699L164.123 76.3778L154.005 66.2594L154.683 65.5806Z" fill="#3B8552"/>
<path d="M175.109 32.2146H50.9711C48.9167 32.2146 47.1311 33.6354 46.6751 35.637L27.8975 117.357C27.2639 120.117 29.3615 122.752 32.1935 122.752H156.331C158.385 122.752 160.171 121.331 160.627 119.33L179.405 37.6098C180.038 34.8498 177.941 32.2146 175.109 32.2146Z" fill="url(#paint5_linear_3660_144066)"/>
<path d="M175.109 32.2146H50.9713C48.9169 32.2146 47.1313 33.6354 46.6753 35.637L45.1633 42.213L178.354 42.1986L179.41 37.6146C180.043 34.8546 177.946 32.2194 175.114 32.2194L175.109 32.2146Z" fill="url(#paint6_linear_3660_144066)"/>
<path d="M108.814 38.01C109.166 37.1086 108.802 36.1247 108.002 35.8125C107.202 35.5002 106.268 35.9777 105.916 36.8791C105.564 37.7805 105.928 38.7644 106.728 39.0767C107.528 39.3889 108.462 38.9114 108.814 38.01Z" fill="#1E1A33"/>
<path d="M118.133 122.757H81.6097L89.0401 141.779C89.2513 142.322 88.8529 142.907 88.2721 142.907H76.4593C75.8065 142.907 75.2737 143.44 75.2737 144.093V145.182C75.2737 145.835 75.8065 146.368 76.4593 146.368H123.029C124.498 146.368 125.688 145.178 125.688 143.709C125.688 143.176 125.592 142.653 125.405 142.154L118.128 122.757H118.133Z" fill="#1E1A33"/>
<path fill-rule="evenodd" clip-rule="evenodd" d="M60.4705 58.0913C60.4705 57.8262 60.6854 57.6113 60.9505 57.6113H79.8961C80.1612 57.6113 80.3761 57.8262 80.3761 58.0913C80.3761 58.3564 80.1612 58.5713 79.8961 58.5713H60.9505C60.6854 58.5713 60.4705 58.3564 60.4705 58.0913Z" fill="#BBB8E8"/>
<path fill-rule="evenodd" clip-rule="evenodd" d="M51.2256 96.8853C51.2256 96.6202 51.4405 96.4053 51.7056 96.4053H86.1408C86.4059 96.4053 86.6208 96.6202 86.6208 96.8853C86.6208 97.1504 86.4059 97.3653 86.1408 97.3653H51.7056C51.4405 97.3653 51.2256 97.1504 51.2256 96.8853Z" fill="#BBB8E8"/>
<path fill-rule="evenodd" clip-rule="evenodd" d="M58.3872 67.4517C58.3872 67.1866 58.6021 66.9717 58.8672 66.9717H144.355C144.62 66.9717 144.835 67.1866 144.835 67.4517C144.835 67.7168 144.62 67.9317 144.355 67.9317H58.8672C58.6021 67.9317 58.3872 67.7168 58.3872 67.4517Z" fill="#BBB8E8"/>
<path fill-rule="evenodd" clip-rule="evenodd" d="M55.4976 76.8115C55.4976 76.5464 55.7125 76.3315 55.9776 76.3315H127.541C127.806 76.3315 128.021 76.5464 128.021 76.8115C128.021 77.0766 127.806 77.2915 127.541 77.2915H55.9776C55.7125 77.2915 55.4976 77.0766 55.4976 76.8115Z" fill="#BBB8E8"/>
<path fill-rule="evenodd" clip-rule="evenodd" d="M53.5728 86.8482C53.5728 86.5831 53.7877 86.3682 54.0528 86.3682H151.608C151.873 86.3682 152.088 86.5831 152.088 86.8482C152.088 87.1133 151.873 87.3282 151.608 87.3282H54.0528C53.7877 87.3282 53.5728 87.1133 53.5728 86.8482Z" fill="#BBB8E8"/>
<path fill-rule="evenodd" clip-rule="evenodd" d="M218.525 147.3H21.4753V145.984H218.52V147.3H218.525Z" fill="#E9E2FF"/>
<path d="M124.229 42.2129H178.354L174.293 59.8577L72.9312 114.026L54.9744 75.7649L124.229 42.2129Z" fill="url(#paint7_linear_3660_144066)"/>
<path d="M116.179 68.162C121.473 73.802 123.547 81.7652 120.864 89.0516C116.957 99.6452 104.467 104.8 92.9615 100.557C90.5999 99.6884 88.4639 98.4884 86.5967 97.0436C101.841 101.469 107.736 99.986 114.907 91.73C124.469 81.8468 115.166 67.082 116.184 68.162H116.179Z" fill="url(#paint8_linear_3660_144066)"/>
<path d="M82.8912 93.3763C77.5968 87.7363 75.5232 79.7731 78.2064 72.4867C82.1136 61.8931 94.6032 56.7379 106.109 60.9811C108.47 61.8499 110.606 63.0499 112.474 64.4947C105.182 62.5747 100.301 62.0947 95.6208 63.4051C86.0064 66.0931 80.088 75.6835 81.384 85.5811C82.0128 90.3619 83.3664 93.8899 82.8864 93.3763H82.8912Z" fill="url(#paint9_linear_3660_144066)"/>
<path d="M82.4496 93.5493L48.9984 125.575C46.944 127.62 47.0112 130.965 49.1424 132.924C51.2592 134.873 54.5664 134.681 56.4432 132.497L88.248 97.8501L82.4448 93.5493H82.4496Z" fill="#FBB040"/>
<mask id="mask0_3660_144066" style="mask-type:luminance" maskUnits="userSpaceOnUse" x="47" y="93" width="42" height="42">
<path d="M82.4496 93.5493L48.9984 125.575C46.944 127.62 47.0112 130.965 49.1424 132.924C51.2592 134.873 54.5664 134.681 56.4432 132.497L88.248 97.8501L82.4448 93.5493H82.4496Z" fill="white"/>
</mask>
<g mask="url(#mask0_3660_144066)">
<path d="M53.3375 138.516L89.8511 98.8246L87.3551 96.3862L49.4639 135.866L53.3423 138.516H53.3375Z" fill="#DB962F"/>
</g>
<path d="M78.0383 97.7829L83.8607 102.761L88.2527 97.8549L82.4495 93.5493L78.0383 97.7829Z" fill="#1E1A33"/>
<path fill-rule="evenodd" clip-rule="evenodd" d="M98.1888 59.9732C86.7493 59.9732 77.5152 68.8098 77.5152 79.6628C77.5152 90.5158 86.7493 99.3524 98.1888 99.3524C109.628 99.3524 118.862 90.5158 118.862 79.6628C118.862 68.8098 109.628 59.9732 98.1888 59.9732ZM76.5552 79.6628C76.5552 68.237 86.2627 59.0132 98.1888 59.0132C110.115 59.0132 119.822 68.237 119.822 79.6628C119.822 91.0885 110.115 100.312 98.1888 100.312C86.2627 100.312 76.5552 91.0885 76.5552 79.6628Z" fill="#1E1A33"/>
<path opacity="0.29" d="M98.1889 99.4482C109.649 99.4482 118.939 90.5898 118.939 79.6626C118.939 68.7353 109.649 59.877 98.1889 59.877C86.7287 59.877 77.4385 68.7353 77.4385 79.6626C77.4385 90.5898 86.7287 99.4482 98.1889 99.4482Z" fill="white"/>
<defs>
<linearGradient id="paint0_linear_3660_144066" x1="189.49" y1="20.9058" x2="177.557" y2="39.1842" gradientUnits="userSpaceOnUse">
<stop stop-color="#8BE3A7"/>
<stop offset="0.71" stop-color="#98D6A3"/>
</linearGradient>
<linearGradient id="paint1_linear_3660_144066" x1="153.552" y1="15.3137" x2="161.405" y2="41.3057" gradientUnits="userSpaceOnUse">
<stop stop-color="#8BE3A7"/>
<stop offset="1" stop-color="#73BC88"/>
</linearGradient>
<linearGradient id="paint2_linear_3660_144066" x1="150.768" y1="63.1409" x2="161.64" y2="71.4833" gradientUnits="userSpaceOnUse">
<stop stop-color="#69B57E"/>
<stop offset="0.96" stop-color="#91C99E"/>
</linearGradient>
<linearGradient id="paint3_linear_3660_144066" x1="192.648" y1="62.5412" x2="175.479" y2="71.3828" gradientUnits="userSpaceOnUse">
<stop stop-color="#8BE3A7"/>
<stop offset="1" stop-color="#73BC88"/>
</linearGradient>
<linearGradient id="paint4_linear_3660_144066" x1="147.744" y1="115.322" x2="181.181" y2="115.322" gradientUnits="userSpaceOnUse">
<stop stop-color="#B7CEE1"/>
<stop offset="1" stop-color="#E4EEF7"/>
</linearGradient>
<linearGradient id="paint5_linear_3660_144066" x1="40.3871" y1="77.3538" x2="166.853" y2="77.6178" gradientUnits="userSpaceOnUse">
<stop stop-color="#EBE9FF"/>
<stop offset="1" stop-color="#EFEEFF"/>
</linearGradient>
<linearGradient id="paint6_linear_3660_144066" x1="45.1633" y1="37.2162" x2="179.52" y2="37.2162" gradientUnits="userSpaceOnUse">
<stop stop-color="#C1BAE5"/>
<stop offset="1" stop-color="#E9E2FF"/>
</linearGradient>
<linearGradient id="paint7_linear_3660_144066" x1="173.088" y1="35.5553" x2="68.0448" y2="93.5201" gradientUnits="userSpaceOnUse">
<stop stop-color="white" stop-opacity="0.8"/>
<stop offset="1" stop-color="white" stop-opacity="0"/>
</linearGradient>
<linearGradient id="paint8_linear_3660_144066" x1="111.437" y1="88.4756" x2="119.664" y2="93.1796" gradientUnits="userSpaceOnUse">
<stop offset="0.56" stop-color="#C1BAE5" stop-opacity="0.8"/>
<stop offset="1" stop-color="#C1BAE5" stop-opacity="0.4"/>
</linearGradient>
<linearGradient id="paint9_linear_3660_144066" x1="81.1488" y1="67.6627" x2="85.9344" y2="70.9171" gradientUnits="userSpaceOnUse">
<stop offset="0.08" stop-color="#B2ADDB" stop-opacity="0.8"/>
<stop offset="1" stop-color="#B2ADDB" stop-opacity="0.4"/>
</linearGradient>
</defs>
</svg>
