<svg width="241" height="160" viewBox="0 0 241 160" fill="none" xmlns="http://www.w3.org/2000/svg">
<path d="M56.4585 80.1528C44.1801 89.3736 47.6025 102.905 50.8521 108.521C65.9049 100.543 58.2297 81.3336 57.6393 80.4504C57.1689 79.74 56.6553 79.956 56.4585 80.1528Z" fill="url(#paint0_linear_1362_31555)"/>
<path d="M26.6893 94.3368C40.8541 95.0472 45.1837 106.058 45.5773 111.478C33.5341 110.767 26.5933 101.527 24.6253 97.0008C23.4445 94.6392 25.5085 94.2408 26.6893 94.3416V94.3368Z" fill="url(#paint1_linear_1362_31555)"/>
<path d="M54.9807 87.2424C53.3055 92.0712 50.0799 104.556 50.5551 115.903" stroke="#3B8552" stroke-width="1.84"/>
<path d="M55.2734 109.404C62.8286 100.423 72.7838 102.905 76.8158 105.266C77.5262 105.502 76.7198 106.548 76.2254 107.038C68.6702 115.073 59.1086 111.962 55.2734 109.399V109.404Z" fill="url(#paint2_linear_1362_31555)"/>
<path d="M72.3947 106.452C66.3947 106.649 53.6267 108.166 50.5547 112.658" stroke="#3B8552" stroke-width="1.84"/>
<path d="M29.4545 98.0472C29.2193 97.9848 28.9793 98.1288 28.9169 98.364C28.8545 98.5992 28.9985 98.8392 29.2337 98.9016L29.4545 98.0472ZM50.3393 115.63C48.2129 113.057 44.6273 109.097 40.7729 105.569C38.8433 103.802 36.8417 102.142 34.9169 100.817C32.9969 99.492 31.1201 98.484 29.4545 98.052L29.2337 98.9064C30.7553 99.3 32.5265 100.246 34.4177 101.546C36.2993 102.842 38.2721 104.474 40.1825 106.222C44.0033 109.716 47.5601 113.647 49.6625 116.196L50.3441 115.634L50.3393 115.63Z" fill="#3B8552"/>
<path d="M67.1822 114.78H35.6894C32.3438 128.172 38.0126 136.759 41.2622 139.375H62.1662C69.299 131.724 68.483 119.791 67.1822 114.78Z" fill="#D7E7F5"/>
<path d="M51.4258 139.682L71.821 45.3479L94.1554 139.524L51.4258 139.682Z" fill="url(#paint3_linear_1362_31555)"/>
<path d="M93.1231 138.372L71.8495 45.8711C71.6335 44.9351 72.3439 44.0471 73.3039 44.0471H171.435C172.131 44.0471 172.731 44.5271 172.889 45.2039L194.907 137.705C195.123 138.641 194.413 139.529 193.453 139.529H94.5775C93.8815 139.529 93.2815 139.049 93.1231 138.372Z" fill="url(#paint4_linear_1362_31555)"/>
<path d="M95.2878 135.271L74.6574 46.4375C74.4558 45.5591 75.1182 44.7239 76.0206 44.7239H170.029C170.681 44.7239 171.248 45.1799 171.392 45.8183L192.512 134.652C192.709 135.525 192.041 136.356 191.149 136.356H96.651C95.9982 136.356 95.4366 135.909 95.2878 135.271Z" fill="url(#paint5_linear_1362_31555)"/>
<path d="M170.859 49.2599H77.5323C77.1808 49.2599 76.8681 49.3158 76.789 48.9812L76.0676 45.7581C75.9953 45.4115 76.1103 45.3517 76.789 45.3517H170.107C170.459 45.3517 170.756 45.2897 170.859 45.6644L171.484 48.7945C171.557 49.2599 171.355 49.2599 170.859 49.2599Z" fill="#423C60"/>
<path d="M180.421 75.7264L139.367 119.694L87.7236 75.5536L122.221 43.936H171.704C172.381 43.936 172.972 44.4016 173.13 45.0592L180.426 75.7312L180.421 75.7264Z" fill="url(#paint6_linear_1362_31555)"/>
<path d="M126.347 47.7581C126.066 47.0368 126.357 46.2495 126.997 45.9996C127.637 45.7497 128.385 46.1319 128.666 46.8532C128.948 47.5745 128.657 48.3618 128.016 48.6117C127.376 48.8616 126.629 48.4795 126.347 47.7581Z" fill="#1E1A33"/>
<path fill-rule="evenodd" clip-rule="evenodd" d="M87.7236 61.6135C87.7236 61.3303 87.9385 61.1006 88.2036 61.1006H107.149C107.414 61.1006 107.629 61.3303 107.629 61.6135C107.629 61.8967 107.414 62.1263 107.149 62.1263H88.2036C87.9385 62.1263 87.7236 61.8967 87.7236 61.6135Z" fill="#BBB8E8"/>
<path fill-rule="evenodd" clip-rule="evenodd" d="M95.082 93.2764C95.082 92.9932 95.2969 92.7636 95.562 92.7636H129.997C130.262 92.7636 130.477 92.9932 130.477 93.2764C130.477 93.5597 130.262 93.7893 129.997 93.7893H95.562C95.2969 93.7893 95.082 93.5597 95.082 93.2764Z" fill="#BBB8E8"/>
<path fill-rule="evenodd" clip-rule="evenodd" d="M90.0576 71.3798C90.0576 71.0965 90.252 70.8669 90.4919 70.8669H167.83C168.07 70.8669 168.265 71.0965 168.265 71.3798C168.265 71.663 168.07 71.8926 167.83 71.8926H90.4919C90.252 71.8926 90.0576 71.663 90.0576 71.3798Z" fill="#BBB8E8"/>
<path fill-rule="evenodd" clip-rule="evenodd" d="M92.5889 82.328C92.5889 82.0448 92.7432 81.8152 92.9336 81.8152H163.005C163.195 81.8152 163.35 82.0448 163.35 82.328C163.35 82.6113 163.195 82.8409 163.005 82.8409H92.9336C92.7432 82.8409 92.5889 82.6113 92.5889 82.328Z" fill="#BBB8E8"/>
<path fill-rule="evenodd" clip-rule="evenodd" d="M219.025 140.69H21.9756V139.375H219.02V140.69H219.025Z" fill="#E9E2FF"/>
<path d="M139.236 70.2494C133.942 75.8894 131.868 83.8526 134.551 91.139C138.458 101.733 150.948 106.888 162.454 102.645C164.815 101.776 166.951 100.576 168.818 99.131C153.574 103.557 147.679 102.073 140.508 93.8174C130.946 83.9342 140.249 69.1694 139.231 70.2494H139.236Z" fill="url(#paint7_linear_1362_31555)"/>
<path d="M172.524 95.4638C177.818 89.8238 179.892 81.8606 177.209 74.5742C173.301 63.9806 160.812 58.8254 149.306 63.0686C146.945 63.9374 144.809 65.1375 142.941 66.5823C150.233 64.6623 155.114 64.1822 159.794 65.4926C169.409 68.1806 175.327 77.771 174.031 87.6686C173.402 92.4494 172.049 95.9774 172.529 95.4638H172.524Z" fill="url(#paint8_linear_1362_31555)"/>
<path d="M172.965 95.6367L206.416 127.662C208.471 129.707 208.404 133.053 206.272 135.011C204.156 136.96 200.848 136.768 198.972 134.584L167.167 99.9375L172.97 95.6367H172.965Z" fill="#FBB040"/>
<mask id="mask0_1362_31555" style="mask-type:luminance" maskUnits="userSpaceOnUse" x="167" y="95" width="41" height="42">
<path d="M172.965 95.6367L206.416 127.662C208.471 129.707 208.404 133.053 206.272 135.011C204.156 136.96 200.848 136.768 198.972 134.584L167.167 99.9375L172.97 95.6367H172.965Z" fill="white"/>
</mask>
<g mask="url(#mask0_1362_31555)">
<path d="M202.078 140.603L165.564 100.912L168.06 98.4734L205.951 137.953L202.073 140.603H202.078Z" fill="#DB962F"/>
</g>
<path d="M177.376 99.8703L171.554 104.848L167.162 99.9423L172.965 95.6367L177.376 99.8703Z" fill="#1E1A33"/>
<path fill-rule="evenodd" clip-rule="evenodd" d="M157.226 62.0606C168.665 62.0606 177.899 70.8973 177.899 81.7502C177.899 92.6032 168.665 101.44 157.226 101.44C145.786 101.44 136.552 92.6032 136.552 81.7502C136.552 70.8973 145.786 62.0606 157.226 62.0606ZM178.859 81.7502C178.859 70.3245 169.152 61.1006 157.226 61.1006C145.3 61.1006 135.592 70.3245 135.592 81.7502C135.592 93.176 145.3 102.4 157.226 102.4C169.152 102.4 178.859 93.176 178.859 81.7502Z" fill="#1E1A33"/>
<path opacity="0.29" d="M157.226 101.536C145.766 101.536 136.476 92.6775 136.476 81.7503C136.476 70.823 145.766 61.9647 157.226 61.9647C168.686 61.9647 177.977 70.823 177.977 81.7503C177.977 92.6775 168.686 101.536 157.226 101.536Z" fill="white"/>
<path fill-rule="evenodd" clip-rule="evenodd" d="M219.025 140.133H21.9756V138.818H219.02V140.133H219.025Z" fill="#E9E2FF"/>
<defs>
<linearGradient id="paint0_linear_1362_31555" x1="53.9577" y1="79.9608" x2="53.9577" y2="108.521" gradientUnits="userSpaceOnUse">
<stop stop-color="#9DEFB7"/>
<stop offset="1" stop-color="#6BCE8A"/>
</linearGradient>
<linearGradient id="paint1_linear_1362_31555" x1="34.9213" y1="94.3224" x2="34.9213" y2="111.473" gradientUnits="userSpaceOnUse">
<stop stop-color="#CEF2DA"/>
<stop offset="1" stop-color="#A0DFB5"/>
</linearGradient>
<linearGradient id="paint2_linear_1362_31555" x1="82.1054" y1="104.854" x2="55.5422" y2="109.567" gradientUnits="userSpaceOnUse">
<stop stop-color="#9BEEB5"/>
<stop offset="1" stop-color="#5FC47F"/>
</linearGradient>
<linearGradient id="paint3_linear_1362_31555" x1="94.1602" y1="92.5127" x2="51.4258" y2="92.5127" gradientUnits="userSpaceOnUse">
<stop stop-color="#C1BAE5"/>
<stop offset="1" stop-color="#E9E2FF"/>
</linearGradient>
<linearGradient id="paint4_linear_1362_31555" x1="194.945" y1="91.7831" x2="71.8111" y2="91.7831" gradientUnits="userSpaceOnUse">
<stop stop-color="#C1BAE5"/>
<stop offset="1" stop-color="#E9E2FF"/>
</linearGradient>
<linearGradient id="paint5_linear_1362_31555" x1="87.5214" y1="90.5351" x2="180.795" y2="90.5351" gradientUnits="userSpaceOnUse">
<stop stop-color="#F5F5FC"/>
<stop offset="1" stop-color="#EBE9FF"/>
</linearGradient>
<linearGradient id="paint6_linear_1362_31555" x1="177.978" y1="55.7728" x2="103.9" y2="96.6496" gradientUnits="userSpaceOnUse">
<stop stop-color="white" stop-opacity="0.5"/>
<stop offset="1" stop-color="white" stop-opacity="0"/>
</linearGradient>
<linearGradient id="paint7_linear_1362_31555" x1="143.978" y1="90.563" x2="135.751" y2="95.267" gradientUnits="userSpaceOnUse">
<stop offset="0.56" stop-color="#C1BAE5" stop-opacity="0.8"/>
<stop offset="1" stop-color="#C1BAE5" stop-opacity="0.4"/>
</linearGradient>
<linearGradient id="paint8_linear_1362_31555" x1="174.266" y1="69.7502" x2="169.481" y2="73.0046" gradientUnits="userSpaceOnUse">
<stop offset="0.08" stop-color="#B2ADDB" stop-opacity="0.8"/>
<stop offset="1" stop-color="#B2ADDB" stop-opacity="0.4"/>
</linearGradient>
</defs>
</svg>
