<svg fill="none" height="160" width="241" xmlns="http://www.w3.org/2000/svg" xmlns:xlink="http://www.w3.org/1999/xlink"><linearGradient id="a"><stop offset="0" stop-color="#e89442"/><stop offset="1" stop-color="#fbb040"/></linearGradient><linearGradient id="b" gradientUnits="userSpaceOnUse" x1="44.583" x2="72.174" xlink:href="#a" y1="129.68" y2="129.68"/><linearGradient id="c" gradientUnits="userSpaceOnUse" x1="34.076" x2="44.583" xlink:href="#a" y1="127.357" y2="127.357"/><linearGradient id="d"><stop offset="0" stop-color="#ece6fb"/><stop offset="1" stop-color="#f1ebff"/></linearGradient><linearGradient id="e" gradientUnits="userSpaceOnUse" x1="60.812" x2="60.812" xlink:href="#d" y1="108.743" y2="91.664"/><linearGradient id="f" gradientUnits="userSpaceOnUse" x1="51.62" x2="51.62" xlink:href="#d" y1="102.177" y2="91.665"/><linearGradient id="g" gradientUnits="userSpaceOnUse" x1="160.417" x2="171.711" y1="136.986" y2="136.986"><stop offset="0" stop-color="#b7cee1"/><stop offset="1" stop-color="#e4eef7"/></linearGradient><linearGradient id="h"><stop offset="0" stop-color="#8be3a7"/><stop offset="1" stop-color="#64c783"/></linearGradient><linearGradient id="i" gradientUnits="userSpaceOnUse" x1="184.714" x2="181.311" xlink:href="#h" y1="115.578" y2="118.007"/><linearGradient id="j" gradientUnits="userSpaceOnUse" x1="163.619" x2="165.951" xlink:href="#h" y1="111.973" y2="115.449"/><linearGradient id="k" gradientUnits="userSpaceOnUse" x1="172.892" x2="171.807" xlink:href="#h" y1="99.129" y2="103.17"/><linearGradient id="l" gradientUnits="userSpaceOnUse" x1="182.674" x2="180.106" xlink:href="#h" y1="103.895" y2="107.202"/><linearGradient id="m" gradientUnits="userSpaceOnUse" x1="120.274" x2="120.274" y1="135.018" y2="149.466"><stop offset="0" stop-color="#c1bae5"/><stop offset="1" stop-color="#e9e2ff"/></linearGradient><linearGradient id="n" gradientUnits="userSpaceOnUse" x1="119.621" x2="119.621" y1="25.981" y2="137.644"><stop offset="0" stop-color="#eae8f9"/><stop offset="1" stop-color="#e7e4f2"/></linearGradient><linearGradient id="o"><stop offset="0" stop-color="#bdbce8"/><stop offset="1" stop-color="#d7d3ea"/></linearGradient><linearGradient id="p" gradientUnits="userSpaceOnUse" x1="95.972" x2="95.972" xlink:href="#o" y1="119.25" y2="120.954"/><linearGradient id="q" gradientUnits="userSpaceOnUse" x1="151.806" x2="151.806" xlink:href="#o" y1="115.309" y2="125.145"/><linearGradient id="r" gradientUnits="userSpaceOnUse" x1="137.252" x2="100.479" y1="49.852" y2="83.476"><stop offset="0" stop-color="#f2effb" stop-opacity=".6"/><stop offset="1" stop-color="#f2effb" stop-opacity="0"/></linearGradient><linearGradient id="s" gradientUnits="userSpaceOnUse" x1="91.345" x2="91.345" y1="25.981" y2="29.922"><stop offset="0" stop-color="#bab8dd"/><stop offset="1" stop-color="#d4d1ec" stop-opacity=".3"/></linearGradient><path d="m72.174 111.21h-27.586v33.725a3.221 3.221 0 0 0 3.22 3.221h21.15c1.776 0 3.22-1.44 3.22-3.221v-33.725z" fill="url(#b)"/><path d="m39.049 118.986h5.534v-2.793h-5.534a4.54 4.54 0 0 0 -2.266.614c-.7.403-1.306.989-1.771 1.704-.46.72-.763 1.55-.883 2.424a6.204 6.204 0 0 0 .197 2.606l3.312 11.165c.33 1.114.964 2.079 1.81 2.765a4.601 4.601 0 0 0 2.908 1.051h2.218v-2.794h-2.218a2.31 2.31 0 0 1 -1.455-.523 2.775 2.775 0 0 1 -.907-1.382l-3.312-11.165a3.15 3.15 0 0 1 -.1-1.305c.057-.437.21-.855.441-1.215.23-.36.533-.653.888-.854a2.27 2.27 0 0 1 1.138-.308z" fill="url(#c)"/><path d="m56.29 97.3c-.33-2.381.418-6.298 2.79-5.535 2.15.691-.217 3.562.743 5.535 1.239 2.548 5.304 2.02 5.578 4.824.336 3.46-6.725 8.976-7.253 5.534-.379-2.472 3.624-3.048 3.346-5.534-.303-2.698-4.834-2.132-5.208-4.824h.005z" fill="url(#e)"/><path d="m54.85 98.711c.236 1.464-.297 3.874-1.991 3.408-1.536-.427.153-2.189-.533-3.408-.883-1.57-3.792-1.243-3.984-2.966-.24-2.127 4.805-5.525 5.179-3.408.269 1.521-2.587 1.876-2.39 3.408.216 1.66 3.45 1.31 3.72 2.966z" fill="url(#f)"/><g clip-rule="evenodd" fill-rule="evenodd"><path d="m219.025 149.466h-197.05v-1.315h197.045v1.315z" fill="#e9e2ff"/><path d="m171.582 112.924c.398-5.285 1.243-10.205 1.9-13.104l-1.785-.269c-.667 2.957-1.527 7.934-1.925 13.286-.398 5.338-.355 11.108.816 15.615l1.781-.307c-1.119-4.311-1.181-9.922-.783-15.216zm-2.088 15.523c.441-6.067-2.453-12.149-3.951-14.448l-1.257.84c1.406 2.155 4.108 7.901 3.705 13.498z" fill="#3b8552"/><path d="m177.635 112.482c1.507-3.201 2.976-4.713 3.724-5.141l-.878-1.224c-1.166.672-2.798 2.52-4.344 5.804-1.565 3.316-3.086 8.193-3.974 15.048l1.612.168c.874-6.749 2.367-11.487 3.86-14.65z" fill="#3b8552"/><path d="m176.319 127.132c.25-5.463 4.388-8.434 6.356-9.221l-.605-1.291c-2.352.936-6.994 4.305-7.277 10.449l1.526.058z" fill="#3b8552"/></g><path d="m185.3 124.506h-23.645v24.96h23.645z" fill="#e4eef7"/><path d="m174.793 124.506h-16.431v24.96h16.431z" fill="url(#g)"/><path clip-rule="evenodd" d="m181.897 111.633a4.9 4.9 0 0 0 5.635 7.886l-5.631-7.886z" fill="url(#i)" fill-rule="evenodd"/><path clip-rule="evenodd" d="m167.641 109.271a4.901 4.901 0 0 1 -1.69 6.178 4.9 4.9 0 0 1 -6.355-.773l8.05-5.405z" fill="url(#j)" fill-rule="evenodd"/><path clip-rule="evenodd" d="m168.207 97.871a4.897 4.897 0 0 0 3.6 5.294 4.896 4.896 0 0 0 5.765-2.788l-9.36-2.51z" fill="url(#k)" fill-rule="evenodd"/><path clip-rule="evenodd" d="m178.849 100.919a4.897 4.897 0 0 0 7.651 5.947l-7.656-5.947z" fill="url(#l)" fill-rule="evenodd"/><path d="m187.815 114.306c0 .725-.59 1.315-1.315 1.315s-1.315-.59-1.315-1.315a1.314 1.314 0 1 1 2.63 0zm-2.515-12.129a1.315 1.315 0 1 1 -1.315-1.316c.729 0 1.315.586 1.315 1.316zm-10.507-5.257a1.314 1.314 0 1 1 -2.63 0c0-.73.585-1.315 1.315-1.315.729 0 1.315.586 1.315 1.315z" fill="#f5d9c4"/><path d="m164.286 110.058c0 .725-.591 1.315-1.316 1.315a1.314 1.314 0 0 1 -1.315-1.315c0-.729.586-1.315 1.315-1.315.73 0 1.316.586 1.316 1.315z" fill="#fbb040"/><path d="m78.898 135.018h82.762v10.32c0 2.28-1.742 4.128-3.893 4.128h-74.971c-2.15 0-3.893-1.848-3.893-4.128v-10.32z" fill="url(#m)"/><path d="m74.957 37.636c0-6.437 5.218-11.65 11.65-11.65h66.024c6.437 0 11.65 5.218 11.65 11.65v100.008h-89.328v-100.008z" fill="url(#n)"/><path d="m82.84 120.104c0-.47.436-.849.974-.849h24.326c.538 0 .975.384.975.849 0 .466-.437.85-.975.85h-24.326c-.538 0-.975-.384-.975-.85z" fill="url(#p)"/><path clip-rule="evenodd" d="m151.695 115.309s-1.099 1.34-.485 2.247c.615.907 2.468-.163.485-2.247zm4.176 2.108s-1.709-.471-2.337.432c-.639.888 1.094 2.131 2.337-.432zm-5.117 6.744c.303.264.447.585.447.979h1.205c0-.394.144-.715.446-.979 1.08-.946 3.797-.908 4.752-.812l.106-.988c-.154-.015-3.912-.365-5.549 1.06-.139.12-.255.245-.355.38a2.298 2.298 0 0 0 -.365-.389c-1.632-1.421-5.362-1.08-5.549-1.061l.106.998c.955-.096 3.676-.134 4.752.812zm6.24-4.263s-1.588-.763-2.385.005.667 2.299 2.385-.005zm-5.275-.845s-1.137 1.311-.552 2.232c.586.922 2.467-.086.552-2.232zm-4.089-1.641s1.708-.471 2.337.432c.629.902-1.094 2.131-2.337-.432zm-1.119 2.481s1.589-.763 2.386.005-.677 2.299-2.386-.005z" fill="url(#q)" fill-rule="evenodd"/><path d="m82.84 41.644c0-4.296 3.465-7.781 7.742-7.781h58.08c4.277 0 7.742 3.485 7.742 7.78v59.319c0 4.296-3.465 7.781-7.742 7.781h-58.08c-4.277 0-7.743-3.485-7.743-7.781v-59.318z" fill="#1e1a33"/><g clip-rule="evenodd" fill="#585080" fill-rule="evenodd" opacity=".4"><path d="m99.428 35.178v73.565h-1.315v-73.565zm20.194 0v73.565h-1.315v-73.565zm19.046 0v73.565h-1.315v-73.565z"/><path d="m82.84 52.257h73.564v1.315h-73.565v-1.315zm0 18.388h73.564v1.316h-73.565v-1.316zm0 19.709h73.564v1.316h-73.565v-1.316z"/></g><path d="m108.149 58.823h5.256v5.256h-5.256zm17.079 0h5.074v5.256h-5.074zm-24.96 13.137h5.256v6.567h-5.256zm36.782 0h-5.256v6.567h5.256zm-31.526 6.567h3.941v5.256h-3.941z" fill="#fbb040"/><path d="m153.159 41.783a4.439 4.439 0 0 0 -1.464-3.207c-.921-.844-1.862-1.708-3.173-1.718l-13.051-.091-52.392 38.26 7.69 20.578 4.248 6.567 56.783-41.276 1.353-19.113h.005z" fill="url(#r)" opacity=".3"/><path d="m131.794 78.527h-3.94v5.256h3.94zm-22.329 5.256h18.389v6.566h-18.389z" fill="#fbb040"/><path clip-rule="evenodd" d="m84.452 36.897c.413-.072 1.848-.106 2.285-.106h57.259c4.215 0 7.632 3.49 7.632 7.79v59.405c0 1.795-.605 3.322-1.603 4.642 3.61-.619 6.374-3.701 6.374-7.56v-59.405c0-4.3-3.417-7.79-7.632-7.79h-57.566c-4.142 0-5.352 1.185-6.749 3.028z" fill="#423c60" fill-rule="evenodd"/><path d="m91.378 23.154a5.913 5.913 0 0 0 5.914-5.913 5.91 5.91 0 0 0 -5.914-5.914 5.91 5.91 0 0 0 -5.913 5.914 5.91 5.91 0 0 0 5.913 5.913z" fill="#d7f5e1"/><path d="m94.662 26.154-.058 2.544c.01.053.01.1 0 .154v.019c-.115.365-.667.71-1.584.902-1.565.332-3.59.116-4.526-.485a.787.787 0 0 1 -.317-.268.763.763 0 0 1 -.14-.384v-.063l.058-2.587 6.571.173z" fill="url(#s)"/><path d="m94.196 25.348c-.931-.634-2.947-.864-4.502-.514-1.56.35-2.064 1.157-1.133 1.786.931.633 2.947.864 4.502.513 1.555-.355 2.069-1.156 1.138-1.78z" fill="#f5f3fd"/><path d="m92.511 19.972c.14.072.197.153.178.23l-.068 5.726v.053c-.043.12-.259.226-.619.288-.59.106-1.21.053-1.757-.153a.325.325 0 0 1 -.124-.087.202.202 0 0 1 -.058-.12v-.024l.082-5.77c0-.129.235-.249.624-.316.59-.101 1.204-.039 1.742.173z" fill="#bab8dd"/><path d="m91.378 20.529a3.282 3.282 0 0 0 3.284-3.284 3.282 3.282 0 0 0 -3.284-3.283 3.282 3.282 0 0 0 -3.283 3.283 3.282 3.282 0 0 0 3.283 3.284z" fill="#3b8552"/><path d="m91.364 15.71c.106.374-.432 1.358-1.162 1.511-.73.159-1.166-.537-.94-1.195.225-.658 1.761-1.608 2.102-.317z" fill="#fff"/></svg>