<svg width="241" height="161" viewBox="0 0 241 161" fill="none" xmlns="http://www.w3.org/2000/svg">
<path d="M72.1737 111.71H44.5881V145.435C44.5881 147.211 46.0281 148.656 47.8089 148.656H68.9577C70.7337 148.656 72.1785 147.216 72.1785 145.435V111.71H72.1737Z" fill="url(#paint0_linear_3834_10372)"/>
<path d="M39.0488 119.486H44.5832V116.693H39.0488C38.2616 116.693 37.484 116.904 36.7832 117.307C36.0824 117.71 35.4776 118.296 35.012 119.011C34.5512 119.731 34.2488 120.561 34.1288 121.435C34.0088 122.309 34.076 123.201 34.3256 124.041L37.6376 135.206C37.9688 136.32 38.6024 137.285 39.4472 137.971C40.292 138.657 41.3096 139.022 42.356 139.022H44.5736V136.228H42.356C41.8328 136.228 41.324 136.046 40.9016 135.705C40.4792 135.365 40.1576 134.88 39.9944 134.323L36.6824 123.158C36.5576 122.741 36.524 122.289 36.5816 121.853C36.6392 121.416 36.7928 120.998 37.0232 120.638C37.2536 120.278 37.556 119.985 37.9112 119.784C38.2616 119.582 38.6504 119.476 39.0488 119.476V119.486Z" fill="url(#paint1_linear_3834_10372)"/>
<path d="M56.2905 97.7998C55.9593 95.419 56.7081 91.5022 59.0793 92.2654C61.2297 92.9566 58.8632 95.827 59.8232 97.7998C61.0616 100.349 65.1273 99.8206 65.4009 102.624C65.7369 106.085 58.676 111.6 58.148 108.158C57.7688 105.686 61.7721 105.11 61.4937 102.624C61.1913 99.9262 56.6601 100.493 56.2857 97.7998H56.2905Z" fill="url(#paint2_linear_3834_10372)"/>
<path d="M54.8504 99.211C55.0856 100.675 54.5528 103.085 52.8584 102.619C51.3224 102.192 53.012 100.43 52.3256 99.211C51.4424 97.6414 48.5336 97.9678 48.3416 96.2446C48.1016 94.1182 53.1464 90.7198 53.5208 92.8366C53.7896 94.3582 50.9336 94.7134 51.1304 96.2446C51.3464 97.9054 54.5816 97.555 54.8504 99.211Z" fill="url(#paint3_linear_3834_10372)"/>
<path fill-rule="evenodd" clip-rule="evenodd" d="M219.025 149.966H21.9753V148.651H219.02V149.966H219.025Z" fill="#E9E2FF"/>
<path fill-rule="evenodd" clip-rule="evenodd" d="M171.582 113.424C171.98 108.139 172.825 103.219 173.482 100.32L171.697 100.051C171.03 103.008 170.17 107.985 169.772 113.337C169.374 118.675 169.417 124.444 170.588 128.952L172.369 128.645C171.25 124.334 171.188 118.723 171.586 113.429L171.582 113.424Z" fill="#3B8552"/>
<path fill-rule="evenodd" clip-rule="evenodd" d="M169.494 128.947C169.935 122.88 167.041 116.798 165.543 114.499L164.286 115.339C165.692 117.494 168.394 123.24 167.991 128.837L169.494 128.947Z" fill="#3B8552"/>
<path fill-rule="evenodd" clip-rule="evenodd" d="M177.634 112.982C179.142 109.781 180.61 108.269 181.359 107.841L180.481 106.617C179.314 107.289 177.682 109.137 176.137 112.421C174.572 115.737 173.05 120.614 172.162 127.469L173.775 127.637C174.649 120.888 176.142 116.15 177.634 112.987V112.982Z" fill="#3B8552"/>
<path fill-rule="evenodd" clip-rule="evenodd" d="M176.319 127.632C176.569 122.169 180.706 119.198 182.674 118.411L182.07 117.12C179.718 118.056 175.076 121.425 174.793 127.569L176.319 127.627V127.632Z" fill="#3B8552"/>
<path d="M185.3 125.006H161.655V149.966H185.3V125.006Z" fill="#E4EEF7"/>
<path d="M174.793 125.006H158.362V149.966H174.793V125.006Z" fill="url(#paint4_linear_3834_10372)"/>
<path fill-rule="evenodd" clip-rule="evenodd" d="M181.897 112.133C180.174 113.789 179.881 116.505 181.311 118.507C182.742 120.509 185.406 121.113 187.532 120.019L181.902 112.133H181.897Z" fill="url(#paint5_linear_3834_10372)"/>
<path fill-rule="evenodd" clip-rule="evenodd" d="M167.641 109.771C168.673 111.931 167.996 114.576 165.951 115.949C163.906 117.321 161.199 116.947 159.596 115.176L167.646 109.771H167.641Z" fill="url(#paint6_linear_3834_10372)"/>
<path fill-rule="evenodd" clip-rule="evenodd" d="M168.207 98.3709C167.929 100.747 169.426 103.027 171.807 103.665C174.188 104.304 176.626 103.075 177.572 100.876L168.212 98.3661L168.207 98.3709Z" fill="url(#paint7_linear_3834_10372)"/>
<path fill-rule="evenodd" clip-rule="evenodd" d="M178.849 101.419C177.668 103.502 178.162 106.185 180.106 107.697C182.05 109.209 184.777 109.022 186.5 107.366L178.844 101.419H178.849Z" fill="url(#paint8_linear_3834_10372)"/>
<path d="M187.815 114.806C187.815 115.531 187.225 116.121 186.5 116.121C185.775 116.121 185.185 115.531 185.185 114.806C185.185 114.081 185.77 113.491 186.5 113.491C187.23 113.491 187.815 114.081 187.815 114.806Z" fill="#F5D9C4"/>
<path d="M185.3 102.677C185.3 103.401 184.71 103.992 183.985 103.992C183.26 103.992 182.67 103.406 182.67 102.677C182.67 101.947 183.255 101.361 183.985 101.361C184.714 101.361 185.3 101.947 185.3 102.677Z" fill="#F5D9C4"/>
<path d="M174.793 97.4206C174.793 98.1454 174.202 98.7358 173.478 98.7358C172.753 98.7358 172.162 98.1502 172.162 97.4206C172.162 96.691 172.748 96.1053 173.478 96.1053C174.207 96.1053 174.793 96.691 174.793 97.4206Z" fill="#F5D9C4"/>
<path d="M164.286 110.558C164.286 111.283 163.695 111.873 162.97 111.873C162.246 111.873 161.655 111.288 161.655 110.558C161.655 109.829 162.241 109.243 162.97 109.243C163.7 109.243 164.286 109.829 164.286 110.558Z" fill="#FBB040"/>
<path d="M78.8984 135.518H161.66V145.838C161.66 148.118 159.918 149.966 157.767 149.966H82.796C80.6456 149.966 78.9032 148.118 78.9032 145.838V135.518H78.8984Z" fill="url(#paint9_linear_3834_10372)"/>
<path d="M74.9576 38.1357C74.9576 31.6989 80.1752 26.4861 86.6072 26.4861H152.631C159.068 26.4861 164.281 31.7037 164.281 38.1357V138.144H74.9528V38.1357H74.9576Z" fill="url(#paint10_linear_3834_10372)"/>
<path d="M82.8392 120.604C82.8392 120.134 83.276 119.755 83.8136 119.755H108.14C108.678 119.755 109.114 120.139 109.114 120.604C109.114 121.07 108.678 121.454 108.14 121.454H83.8136C83.276 121.454 82.8392 121.07 82.8392 120.604Z" fill="url(#paint11_linear_3834_10372)"/>
<path fill-rule="evenodd" clip-rule="evenodd" d="M151.695 115.809C151.695 115.809 150.596 117.149 151.21 118.056C151.825 118.963 153.678 117.893 151.695 115.809ZM155.871 117.917C155.871 117.917 154.162 117.446 153.534 118.349C152.895 119.237 154.628 120.48 155.871 117.917ZM150.754 124.661C151.057 124.925 151.201 125.246 151.201 125.64H151.374H152.406C152.406 125.246 152.55 124.925 152.852 124.661C153.932 123.715 156.649 123.753 157.604 123.849L157.71 122.861C157.556 122.846 153.798 122.496 152.161 123.921C152.022 124.041 151.906 124.166 151.806 124.301C151.705 124.161 151.58 124.032 151.441 123.912C149.809 122.491 146.079 122.832 145.892 122.851L145.998 123.849C146.953 123.753 149.674 123.715 150.75 124.661H150.754ZM156.994 120.398C156.994 120.398 155.406 119.635 154.609 120.403C153.812 121.171 155.276 122.702 156.994 120.398ZM151.719 119.553C151.719 119.553 150.582 120.864 151.167 121.785C151.753 122.707 153.634 121.699 151.719 119.553ZM147.63 117.912C147.63 117.912 149.338 117.441 149.967 118.344C150.596 119.246 148.873 120.475 147.63 117.912ZM146.511 120.393C146.511 120.393 148.1 119.63 148.897 120.398C149.694 121.166 148.22 122.697 146.511 120.393Z" fill="url(#paint12_linear_3834_10372)"/>
<path d="M82.8392 42.1437C82.8392 37.8477 86.3048 34.3629 90.5816 34.3629H148.662C152.938 34.3629 156.404 37.8477 156.404 42.1437V101.462C156.404 105.758 152.938 109.243 148.662 109.243H90.5816C86.3048 109.243 82.8392 105.758 82.8392 101.462V42.1437Z" fill="#1E1A33"/>
<g opacity="0.4">
<path fill-rule="evenodd" clip-rule="evenodd" d="M99.428 35.6781V109.243H98.1128V35.6781H99.428Z" fill="#585080"/>
<path fill-rule="evenodd" clip-rule="evenodd" d="M119.622 35.6781V109.243H118.306V35.6781H119.622Z" fill="#585080"/>
<path fill-rule="evenodd" clip-rule="evenodd" d="M138.668 35.6781V109.243H137.353V35.6781H138.668Z" fill="#585080"/>
<path fill-rule="evenodd" clip-rule="evenodd" d="M82.8392 52.7565H156.404V54.0717H82.8392V52.7565Z" fill="#585080"/>
<path fill-rule="evenodd" clip-rule="evenodd" d="M82.8392 71.1453H156.404V72.4605H82.8392V71.1453Z" fill="#585080"/>
<path fill-rule="evenodd" clip-rule="evenodd" d="M82.8392 90.8541H156.404V92.1693H82.8392V90.8541Z" fill="#585080"/>
</g>
<path d="M108.15 59.323H113.406V64.579H108.15V59.323Z" fill="#FBB040"/>
<path d="M125.228 59.323H130.302V64.579H125.228V59.323Z" fill="#FBB040"/>
<path d="M100.268 72.4606H105.524V79.027H100.268V72.4606Z" fill="#FBB040"/>
<path d="M137.05 72.4606H131.794V79.027H137.05V72.4606Z" fill="#FBB040"/>
<path d="M105.524 79.027H109.465V84.283H105.524V79.027Z" fill="#FBB040"/>
<path opacity="0.3" d="M153.159 42.283C153.14 41.0734 152.617 39.9214 151.695 39.0766C150.774 38.2318 149.833 37.3678 148.522 37.3582L135.471 37.267L83.0793 75.5278L90.7689 96.1054L95.0169 102.672L151.801 61.3966L153.154 42.283H153.159Z" fill="url(#paint13_linear_3834_10372)"/>
<path d="M131.795 79.027H127.854V84.283H131.795V79.027Z" fill="#FBB040"/>
<path d="M109.465 84.283H127.854V90.8494H109.465V84.283Z" fill="#FBB040"/>
<path fill-rule="evenodd" clip-rule="evenodd" d="M84.452 37.3966C84.8648 37.3246 86.3 37.291 86.7368 37.291H143.996C148.21 37.291 151.628 40.7806 151.628 45.0814V104.486C151.628 106.281 151.023 107.808 150.025 109.128C153.634 108.509 156.399 105.427 156.399 101.568V42.163C156.399 37.8622 152.982 34.3726 148.767 34.3726H91.2008C87.0584 34.3726 85.8488 35.5582 84.452 37.4014V37.3966Z" fill="#423C60"/>
<path d="M91.3784 23.6541C94.6424 23.6541 97.292 21.0093 97.292 17.7405C97.292 14.4717 94.6472 11.8269 91.3784 11.8269C88.1096 11.8269 85.4648 14.4717 85.4648 17.7405C85.4648 21.0093 88.1096 23.6541 91.3784 23.6541Z" fill="#D7F5E1"/>
<path d="M94.6618 26.6541L94.6042 29.1981C94.6138 29.2509 94.6138 29.2989 94.6042 29.3517V29.3709C94.489 29.7357 93.937 30.0813 93.0202 30.2733C91.4554 30.6045 89.4298 30.3885 88.4938 29.7885C88.3642 29.7261 88.2538 29.6349 88.177 29.5197C88.0954 29.4045 88.0474 29.2701 88.0378 29.1357V29.0733L88.0954 26.4861L94.6666 26.6589L94.6618 26.6541Z" fill="url(#paint14_linear_3834_10372)"/>
<path d="M94.1959 25.8477C93.2647 25.2141 91.2488 24.9837 89.6936 25.3341C88.1336 25.6845 87.6296 26.4909 88.5608 27.1197C89.492 27.7533 91.5079 27.9837 93.0631 27.6333C94.6183 27.2781 95.1319 26.4765 94.2007 25.8525L94.1959 25.8477Z" fill="#F5F3FD"/>
<path d="M92.5112 20.4718C92.6504 20.5438 92.708 20.6254 92.6888 20.7022L92.6216 26.4286C92.6216 26.4286 92.6216 26.4622 92.6216 26.4814C92.5784 26.6014 92.3624 26.707 92.0024 26.7694C91.412 26.875 90.7928 26.8222 90.2456 26.6158C90.1976 26.5966 90.1544 26.5678 90.1208 26.5294C90.0872 26.4958 90.068 26.4526 90.0632 26.4094V26.3854L90.1448 20.6158C90.1448 20.4862 90.38 20.3662 90.7688 20.299C91.3592 20.1982 91.9736 20.2606 92.5112 20.4718Z" fill="#BAB8DD"/>
<path d="M91.3784 21.0286C93.1928 21.0286 94.6616 19.5598 94.6616 17.7454C94.6616 15.931 93.1928 14.4622 91.3784 14.4622C89.564 14.4622 88.0952 15.931 88.0952 17.7454C88.0952 19.5598 89.564 21.0286 91.3784 21.0286Z" fill="#3B8552"/>
<path d="M91.364 16.2093C91.4696 16.5837 90.932 17.5677 90.2024 17.7213C89.4728 17.8797 89.036 17.1837 89.2616 16.5261C89.4872 15.8685 91.0232 14.9181 91.364 16.2093Z" fill="white"/>
<defs>
<linearGradient id="paint0_linear_3834_10372" x1="44.5833" y1="130.18" x2="72.1737" y2="130.18" gradientUnits="userSpaceOnUse">
<stop stop-color="#E89442"/>
<stop offset="1" stop-color="#FBB040"/>
</linearGradient>
<linearGradient id="paint1_linear_3834_10372" x1="34.076" y1="127.857" x2="44.5832" y2="127.857" gradientUnits="userSpaceOnUse">
<stop stop-color="#E89442"/>
<stop offset="1" stop-color="#FBB040"/>
</linearGradient>
<linearGradient id="paint2_linear_3834_10372" x1="60.8121" y1="109.243" x2="60.8121" y2="92.1646" gradientUnits="userSpaceOnUse">
<stop stop-color="#ECE6FB"/>
<stop offset="1" stop-color="#F1EBFF"/>
</linearGradient>
<linearGradient id="paint3_linear_3834_10372" x1="51.62" y1="102.677" x2="51.62" y2="92.1646" gradientUnits="userSpaceOnUse">
<stop stop-color="#ECE6FB"/>
<stop offset="1" stop-color="#F1EBFF"/>
</linearGradient>
<linearGradient id="paint4_linear_3834_10372" x1="160.417" y1="137.486" x2="171.711" y2="137.486" gradientUnits="userSpaceOnUse">
<stop stop-color="#B7CEE1"/>
<stop offset="1" stop-color="#E4EEF7"/>
</linearGradient>
<linearGradient id="paint5_linear_3834_10372" x1="184.714" y1="116.078" x2="181.311" y2="118.507" gradientUnits="userSpaceOnUse">
<stop stop-color="#8BE3A7"/>
<stop offset="1" stop-color="#64C783"/>
</linearGradient>
<linearGradient id="paint6_linear_3834_10372" x1="163.618" y1="112.473" x2="165.951" y2="115.949" gradientUnits="userSpaceOnUse">
<stop stop-color="#8BE3A7"/>
<stop offset="1" stop-color="#64C783"/>
</linearGradient>
<linearGradient id="paint7_linear_3834_10372" x1="172.892" y1="99.6285" x2="171.807" y2="103.67" gradientUnits="userSpaceOnUse">
<stop stop-color="#8BE3A7"/>
<stop offset="1" stop-color="#64C783"/>
</linearGradient>
<linearGradient id="paint8_linear_3834_10372" x1="182.674" y1="104.395" x2="180.106" y2="107.702" gradientUnits="userSpaceOnUse">
<stop stop-color="#8BE3A7"/>
<stop offset="1" stop-color="#64C783"/>
</linearGradient>
<linearGradient id="paint9_linear_3834_10372" x1="120.274" y1="135.518" x2="120.274" y2="149.966" gradientUnits="userSpaceOnUse">
<stop stop-color="#C1BAE5"/>
<stop offset="1" stop-color="#E9E2FF"/>
</linearGradient>
<linearGradient id="paint10_linear_3834_10372" x1="119.622" y1="26.4813" x2="119.622" y2="138.144" gradientUnits="userSpaceOnUse">
<stop stop-color="#EAE8F9"/>
<stop offset="1" stop-color="#E7E4F2"/>
</linearGradient>
<linearGradient id="paint11_linear_3834_10372" x1="95.972" y1="119.75" x2="95.972" y2="121.454" gradientUnits="userSpaceOnUse">
<stop stop-color="#BDBCE8"/>
<stop offset="1" stop-color="#D7D3EA"/>
</linearGradient>
<linearGradient id="paint12_linear_3834_10372" x1="151.806" y1="115.809" x2="151.806" y2="125.645" gradientUnits="userSpaceOnUse">
<stop stop-color="#BDBCE8"/>
<stop offset="1" stop-color="#D7D3EA"/>
</linearGradient>
<linearGradient id="paint13_linear_3834_10372" x1="137.252" y1="50.3518" x2="100.479" y2="83.9758" gradientUnits="userSpaceOnUse">
<stop stop-color="#F2EFFB" stop-opacity="0.6"/>
<stop offset="1" stop-color="#F2EFFB" stop-opacity="0"/>
</linearGradient>
<linearGradient id="paint14_linear_3834_10372" x1="91.345" y1="26.4813" x2="91.345" y2="30.4221" gradientUnits="userSpaceOnUse">
<stop stop-color="#BAB8DD"/>
<stop offset="1" stop-color="#D4D1EC" stop-opacity="0.3"/>
</linearGradient>
</defs>
</svg>
