<svg width="20" height="20" viewBox="0 0 20 20" fill="none" xmlns="http://www.w3.org/2000/svg">
<path fill-rule="evenodd" clip-rule="evenodd" d="M4.54545 1.81836C4.00297 1.81836 3.4827 2.03386 3.0991 2.41746C2.7155 2.80106 2.5 3.32133 2.5 3.86381V16.1365C2.5 16.679 2.7155 17.1993 3.0991 17.5829C3.4827 17.9665 4.00297 18.182 4.54545 18.182H15.4545C15.997 18.182 16.5173 17.9665 16.9009 17.5829C17.2845 17.1993 17.5 16.679 17.5 16.1365V8.11972C17.4995 7.57742 17.2837 7.0575 16.9 6.67427L12.6455 2.417C12.4553 2.22692 12.2295 2.07622 11.981 1.9735C11.7325 1.87078 11.4662 1.81806 11.1973 1.81836H4.54545ZM10 14.7729C9.72875 14.7729 9.46862 14.6652 9.27682 14.4734C9.08502 14.2816 8.97727 14.0214 8.97727 13.7502V10.082L7.99545 11.0638C7.80158 11.2445 7.54515 11.3428 7.2802 11.3381C7.01524 11.3335 6.76244 11.2261 6.57506 11.0388C6.38768 10.8514 6.28034 10.5986 6.27567 10.3336C6.271 10.0687 6.36934 9.81223 6.55 9.61836L9.27727 6.89109C9.46903 6.69956 9.72898 6.59199 10 6.59199C10.271 6.59199 10.531 6.69956 10.7227 6.89109L13.45 9.61836C13.5505 9.71199 13.6311 9.8249 13.687 9.95035C13.7429 10.0758 13.7729 10.2112 13.7754 10.3486C13.7778 10.4859 13.7525 10.6223 13.7011 10.7496C13.6496 10.877 13.5731 10.9927 13.476 11.0898C13.3788 11.1869 13.2632 11.2635 13.1358 11.3149C13.0085 11.3663 12.8721 11.3916 12.7347 11.3892C12.5974 11.3867 12.462 11.3567 12.3365 11.3008C12.2111 11.2449 12.0982 11.1643 12.0045 11.0638L11.0227 10.082V13.7502C11.0227 14.0214 10.915 14.2816 10.7232 14.4734C10.5314 14.6652 10.2712 14.7729 10 14.7729Z" fill="white"/>
</svg>
