<svg width="25" height="24" viewBox="0 0 25 24" fill="none" xmlns="http://www.w3.org/2000/svg">
<path d="M19.9663 12.9001C20.4817 12.9001 20.8996 12.4971 20.8996 12.0001C20.8996 11.503 20.4817 11.1001 19.9663 11.1001L13.3996 11.1001V4.53343C13.3996 4.01797 12.9967 3.6001 12.4996 3.6001C12.0025 3.6001 11.5996 4.01797 11.5996 4.53343V11.1001L5.03294 11.1001C4.51748 11.1001 4.09961 11.503 4.09961 12.0001C4.09961 12.4971 4.51748 12.9001 5.03294 12.9001L11.5996 12.9001V19.4668C11.5996 19.9822 12.0025 20.4001 12.4996 20.4001C12.9967 20.4001 13.3996 19.9822 13.3996 19.4668V12.9001L19.9663 12.9001Z" fill="#525059"/>
</svg>
