<svg width="20" height="20" viewBox="0 0 20 20" fill="none" xmlns="http://www.w3.org/2000/svg">
<path d="M3.4817 11.4379L2.01237 10.7086C1.5156 10.4621 1.31436 9.85834 1.56385 9.36304L3.03449 6.44338C3.2819 5.9522 3.87953 5.75299 4.37217 5.9975L5.85207 6.73201M3.4817 11.4379L5.85207 6.73201M3.4817 11.4379L7.4757 14.2698C7.57756 14.342 7.69205 14.3945 7.81324 14.4246L11.8245 15.42C12.1636 15.5042 12.522 15.4053 12.7699 15.1592L15.3336 12.6144M5.85207 6.73201L9.72736 5.63293C9.90575 5.58233 10.0947 5.58233 10.2731 5.63293L14.1484 6.73201M14.1484 6.73201L16.5187 11.4379M14.1484 6.73201H11.5975C11.3335 6.73201 11.0803 6.83636 10.893 7.0223L8.24989 9.64594C7.89475 9.99847 7.85369 10.5678 8.2505 10.8727C8.64028 11.1722 9.15202 11.4379 9.70392 11.4379C10.3533 11.4379 11.1323 11.07 11.7175 10.7122C12.1142 10.4696 12.6283 10.4661 12.9925 10.7553L15.3336 12.6144M14.1484 6.73201L15.6283 5.9975C16.1209 5.75299 16.7185 5.9522 16.9659 6.44339L18.4366 9.36304C18.6861 9.85834 18.4848 10.4621 17.9881 10.7086L16.5187 11.4379M16.5187 11.4379L15.3336 12.6144" stroke="#E2E1E4" stroke-width="1.2"/>
</svg>
