<svg width="20" height="21" viewBox="0 0 20 21" fill="none" xmlns="http://www.w3.org/2000/svg">
<path d="M10 2.375C11.4918 2.375 12.9226 2.96855 13.9775 4.02344C15.0322 5.0782 15.6249 6.50842 15.625 8V8.625C15.6222 10.3241 16.251 11.9644 17.3896 13.2256C17.4579 13.3015 17.5065 13.3932 17.5312 13.4922C17.5559 13.591 17.5566 13.6941 17.5322 13.793C17.5078 13.8918 17.4594 13.9836 17.3916 14.0596C17.3236 14.1356 17.2373 14.1942 17.1416 14.2295C15.8387 14.7105 14.4904 15.0584 13.1172 15.2666C13.1485 15.6949 13.0906 16.1251 12.9482 16.5303C12.8058 16.9356 12.5815 17.3074 12.2891 17.6221C11.9966 17.9367 11.6418 18.1878 11.248 18.3594C10.8543 18.5309 10.4294 18.6191 10 18.6191C9.57054 18.6191 9.14567 18.5309 8.75195 18.3594C8.35813 18.1878 8.00341 17.9367 7.71094 17.6221C7.41848 17.3074 7.19417 16.9356 7.05176 16.5303C6.9094 16.1251 6.85248 15.6949 6.88379 15.2666C5.49129 15.0558 4.14409 14.7055 2.85742 14.2305C2.76162 14.1952 2.67552 14.1366 2.60742 14.0605C2.53947 13.9845 2.49127 13.8929 2.4668 13.7939C2.44232 13.6949 2.44204 13.5912 2.4668 13.4922C2.49164 13.3931 2.54098 13.3015 2.60938 13.2256C3.74838 11.9645 4.37757 10.3243 4.375 8.625V8C4.37512 6.50847 4.96787 5.07819 6.02246 4.02344C7.07733 2.96857 8.50819 2.37503 10 2.375ZM11.873 15.417C10.6269 15.5293 9.37314 15.5293 8.12695 15.417C8.1253 15.4443 8.125 15.4718 8.125 15.5C8.125 15.9971 8.32238 16.4746 8.67383 16.8262C9.02543 17.1778 9.50276 17.375 10 17.375C10.4973 17.375 10.9745 17.1778 11.3262 16.8262C11.6777 16.4746 11.875 15.9972 11.875 15.5L11.873 15.417ZM15.624 2.37402C15.7063 2.37885 15.7872 2.39951 15.8613 2.43555C15.9353 2.47157 16.0011 2.52231 16.0557 2.58398C17.08 3.72569 17.7588 5.13492 18.0137 6.64746C18.0272 6.72823 18.0242 6.81083 18.0059 6.89062C17.9874 6.97053 17.9538 7.04649 17.9062 7.11328C17.8587 7.18002 17.798 7.23678 17.7285 7.28027C17.6589 7.3238 17.581 7.35362 17.5 7.36719C17.4191 7.38074 17.3358 7.37782 17.2559 7.35938C17.1762 7.34093 17.1008 7.30721 17.0342 7.25977C16.8992 7.1635 16.8077 7.01707 16.7803 6.85352C16.5649 5.57436 15.9902 4.3826 15.124 3.41699C15.0689 3.35598 15.0266 3.28453 14.999 3.20703C14.9714 3.12942 14.9595 3.04709 14.9639 2.96484C14.9682 2.88258 14.9888 2.80183 15.0244 2.72754C15.06 2.65342 15.1097 2.58706 15.1709 2.53223C15.2323 2.4773 15.304 2.43436 15.3818 2.40723C15.4595 2.38015 15.5419 2.36924 15.624 2.37402ZM4.37207 2.39062C4.53415 2.38433 4.69262 2.44161 4.81348 2.5498C4.93423 2.658 5.00795 2.80898 5.01953 2.9707C5.03108 3.13258 4.97931 3.29267 4.875 3.41699C4.00908 4.38268 3.43486 5.57442 3.21973 6.85352C3.18922 7.01406 3.09698 7.15659 2.96289 7.25C2.82892 7.3432 2.6639 7.38045 2.50293 7.35352C2.34189 7.32651 2.19785 7.23734 2.10156 7.10547C2.00535 6.97354 1.9639 6.80905 1.9873 6.64746C2.24166 5.13512 2.9206 3.72584 3.94434 2.58398C4.05641 2.4666 4.2099 2.39698 4.37207 2.39062Z" fill="#09080F"/>
</svg>
