<svg width="21" height="20" viewBox="0 0 21 20" fill="none" xmlns="http://www.w3.org/2000/svg">
<path d="M11.1782 2.79004C11.0906 2.69833 10.9854 2.62534 10.8688 2.57546C10.7523 2.52559 10.6268 2.49988 10.5 2.49988C10.3732 2.49988 10.2478 2.52559 10.1312 2.57546C10.0147 2.62534 9.90944 2.69833 9.8219 2.79004L3.2594 9.66503C3.13264 9.79777 3.04762 9.9648 3.0149 10.1454C2.98218 10.326 3.00319 10.5122 3.07533 10.681C3.14747 10.8498 3.26757 10.9937 3.42072 11.0948C3.57388 11.196 3.75336 11.2499 3.9369 11.25C4.79985 11.25 5.4994 11.9496 5.4994 12.8125V16.25C5.4994 16.5816 5.6311 16.8995 5.86552 17.1339C6.09994 17.3683 6.41788 17.5 6.7494 17.5H7.9994C8.33092 17.5 8.64887 17.3683 8.88329 17.1339C9.11771 16.8995 9.2494 16.5816 9.2494 16.25V15C9.2494 14.6685 9.3811 14.3506 9.61552 14.1162C9.84994 13.8817 10.1679 13.75 10.4994 13.75C10.8309 13.75 11.1489 13.8817 11.3833 14.1162C11.6177 14.3506 11.7494 14.6685 11.7494 15V16.25C11.7494 16.5816 11.8811 16.8995 12.1155 17.1339C12.3499 17.3683 12.6679 17.5 12.9994 17.5H14.2494C14.5809 17.5 14.8989 17.3683 15.1333 17.1339C15.3677 16.8995 15.4994 16.5816 15.4994 16.25V12.8125C15.4994 11.9496 16.199 11.25 17.0619 11.25C17.2456 11.2502 17.4252 11.1964 17.5786 11.0953C17.7319 10.9943 17.8522 10.8504 17.9245 10.6816C17.9968 10.5128 18.0179 10.3264 17.9852 10.1457C17.9525 9.96499 17.8675 9.79785 17.7407 9.66503L11.1782 2.79004Z" fill="#09080F"/>
</svg>
