<svg width="33" height="32" viewBox="0 0 33 32" fill="none" xmlns="http://www.w3.org/2000/svg">
    <path fill-rule="evenodd" clip-rule="evenodd"
        d="M16.4002 7.57072C16.1921 7.57072 15.9926 7.6533 15.8454 7.8003L6.74981 16.8949C6.67743 16.9699 6.59084 17.0297 6.49508 17.0709C6.39933 17.1121 6.29633 17.1338 6.1921 17.1348C6.08787 17.1357 5.98449 17.1159 5.888 17.0765C5.7915 17.037 5.70383 16.9788 5.63009 16.9051C5.55635 16.8315 5.49802 16.7438 5.4585 16.6474C5.41898 16.5509 5.39907 16.4476 5.39993 16.3433C5.40079 16.2391 5.42239 16.1361 5.46349 16.0403C5.50458 15.9445 5.56434 15.8578 5.63929 15.7854L14.7349 6.68978C14.9536 6.47109 15.2132 6.29762 15.4989 6.17927C15.7847 6.06092 16.0909 6 16.4002 6C16.7094 6 17.0157 6.06092 17.3014 6.17927C17.5871 6.29762 17.8467 6.47109 18.0654 6.68978L27.16 15.7854C27.235 15.8578 27.2948 15.9444 27.336 16.0401C27.3772 16.1359 27.3989 16.2389 27.3999 16.3431C27.4008 16.4473 27.381 16.5507 27.3416 16.6472C27.3022 16.7437 27.2439 16.8314 27.1702 16.9051C27.0966 16.9789 27.009 17.0372 26.9125 17.0767C26.816 17.1162 26.7127 17.1361 26.6084 17.1353C26.5042 17.1344 26.4012 17.1128 26.3054 17.0717C26.2096 17.0306 26.123 16.9709 26.0505 16.8959L16.9549 7.8003C16.8077 7.6533 16.6082 7.57072 16.4002 7.57072ZM24.94 18.0054L16.4002 9.46558L7.86039 18.0054C7.82947 18.0363 7.79771 18.0663 7.76514 18.0954V24.5827C7.76514 25.1032 7.97191 25.6024 8.33995 25.9704C8.708 26.3385 9.20717 26.5452 9.72766 26.5452H13.2602C13.4684 26.5452 13.6681 26.4625 13.8153 26.3153C13.9625 26.1681 14.0452 25.9684 14.0452 25.7602V21.0502C14.0452 20.842 14.1279 20.6423 14.2751 20.4951C14.4223 20.3479 14.622 20.2652 14.8302 20.2652H17.9702C18.1784 20.2652 18.3781 20.3479 18.5253 20.4951C18.6725 20.6423 18.7552 20.842 18.7552 21.0502V25.7602C18.7552 25.9684 18.8379 26.1681 18.9852 26.3153C19.1324 26.4625 19.3321 26.5452 19.5402 26.5452H23.0728C24.1561 26.5452 25.0353 25.666 25.0353 24.5827V18.0954C25.0028 18.0661 24.9714 18.0368 24.94 18.0054Z"
        fill="#747181" />
</svg>
