<svg width="16" height="16" viewBox="0 0 16 16" fill="none" xmlns="http://www.w3.org/2000/svg">
<circle cx="8" cy="8" r="6.4" fill="#FAE6E8" stroke="#F4CFD1" stroke-width="1.2"/>
<path d="M8 1.602C8 1.26952 8.27002 0.997312 8.60126 1.02587C9.31446 1.08736 10.0152 1.25799 10.6788 1.53284C11.5281 1.88463 12.2997 2.40024 12.9497 3.05025C13.5998 3.70026 14.1154 4.47194 14.4672 5.32122C14.742 5.98477 14.9126 6.68554 14.9741 7.39874C15.0027 7.72999 14.7305 8 14.398 8C14.0655 8 13.7992 7.72976 13.7648 7.39908C13.7069 6.84414 13.5691 6.29939 13.3548 5.78197C13.0635 5.07876 12.6366 4.43982 12.0984 3.90161C11.5602 3.3634 10.9212 2.93647 10.218 2.64519C9.70062 2.43087 9.15587 2.29308 8.60092 2.23524C8.27024 2.20076 8 1.93448 8 1.602Z" fill="#C73C40"/>
<circle cx="8" cy="8" r="3" fill="#C73C40"/>
</svg>
