<svg width="16" height="16" viewBox="0 0 16 16" fill="none" xmlns="http://www.w3.org/2000/svg">
<circle cx="8" cy="8" r="7" fill="#F2F0EF"/>
<path d="M15 8C15 11.866 11.866 15 8 15C4.13401 15 1 11.866 1 8C1 4.13401 4.13401 1 8 1C11.866 1 15 4.13401 15 8ZM2.204 8C2.204 11.201 4.79896 13.796 8 13.796C11.201 13.796 13.796 11.201 13.796 8C13.796 4.79896 11.201 2.204 8 2.204C4.79896 2.204 2.204 4.79896 2.204 8Z" fill="#575554"/>
<path fill-rule="evenodd" clip-rule="evenodd" d="M5.57564 5.57564C5.80995 5.34132 6.18985 5.34132 6.42417 5.57564L7.9999 7.15137L9.57564 5.57564C9.80995 5.34132 10.1899 5.34132 10.4242 5.57564C10.6585 5.80995 10.6585 6.18985 10.4242 6.42417L8.84843 7.9999L10.4242 9.57564C10.6585 9.80995 10.6585 10.1899 10.4242 10.4242C10.1899 10.6585 9.80995 10.6585 9.57564 10.4242L7.9999 8.84843L6.42417 10.4242C6.18985 10.6585 5.80995 10.6585 5.57564 10.4242C5.34132 10.1899 5.34132 9.80995 5.57564 9.57564L7.15137 7.9999L5.57564 6.42417C5.34132 6.18985 5.34132 5.80995 5.57564 5.57564Z" fill="#575554"/>
</svg>
