<svg width="32" height="32" viewBox="0 0 32 32" fill="none" xmlns="http://www.w3.org/2000/svg">
<path fill-rule="evenodd" clip-rule="evenodd" d="M13.4053 11.0947C13.6982 11.3876 13.6982 11.8624 13.4053 12.1553L9.56066 16L13.4053 19.8447C13.6982 20.1376 13.6982 20.6124 13.4053 20.9053C13.1124 21.1982 12.6376 21.1982 12.3447 20.9053L7.96967 16.5303C7.67678 16.2374 7.67678 15.7626 7.96967 15.4697L12.3447 11.0947C12.6376 10.8018 13.1124 10.8018 13.4053 11.0947ZM18.5947 11.0947C18.8876 10.8018 19.3624 10.8018 19.6553 11.0947L24.0303 15.4697C24.3232 15.7626 24.3232 16.2374 24.0303 16.5303L19.6553 20.9053C19.3624 21.1982 18.8876 21.1982 18.5947 20.9053C18.3018 20.6124 18.3018 20.1376 18.5947 19.8447L22.4393 16L18.5947 12.1553C18.3018 11.8624 18.3018 11.3876 18.5947 11.0947Z" fill="#A5A3AD"/>
</svg>
