<svg width="32" height="32" viewBox="0 0 32 32" fill="none" xmlns="http://www.w3.org/2000/svg">
<path fill-rule="evenodd" clip-rule="evenodd" d="M7.75 11C7.75 10.5858 8.08579 10.25 8.5 10.25H23.5C23.9142 10.25 24.25 10.5858 24.25 11C24.25 11.4142 23.9142 11.75 23.5 11.75H8.5C8.08579 11.75 7.75 11.4142 7.75 11Z" fill="white"/>
<path fill-rule="evenodd" clip-rule="evenodd" d="M10.25 16C10.25 15.5858 10.5858 15.25 11 15.25H21C21.4142 15.25 21.75 15.5858 21.75 16C21.75 16.4142 21.4142 16.75 21 16.75H11C10.5858 16.75 10.25 16.4142 10.25 16Z" fill="white"/>
<path fill-rule="evenodd" clip-rule="evenodd" d="M12.75 21C12.75 20.5858 13.0858 20.25 13.5 20.25H18.5C18.9142 20.25 19.25 20.5858 19.25 21C19.25 21.4142 18.9142 21.75 18.5 21.75H13.5C13.0858 21.75 12.75 21.4142 12.75 21Z" fill="white"/>
</svg>
