<svg width="17" height="17" viewBox="0 0 17 17" fill="none" xmlns="http://www.w3.org/2000/svg">
<path fill-rule="evenodd" clip-rule="evenodd" d="M2.7499 12.7C2.41853 12.7 2.1499 12.4314 2.1499 12.1C2.1499 11.7686 2.41853 11.5 2.7499 11.5H4.69006C5.15409 11.5 5.58797 11.2701 5.84852 10.8861L6.27127 10.2631C6.45734 9.9889 6.83046 9.91745 7.10466 10.1035C7.37886 10.2896 7.45031 10.6627 7.26425 10.9369L6.84149 11.5599C6.35761 12.273 5.55183 12.7 4.69006 12.7L2.7499 12.7ZM13.1742 7.52426C12.9399 7.75858 12.56 7.75858 12.3256 7.52426C12.0913 7.28995 12.0913 6.91005 12.3256 6.67574L13.3014 5.7L11.5597 5.7C11.0957 5.7 10.6618 5.92992 10.4013 6.3139L9.87893 7.08367C9.69287 7.35788 9.31975 7.42933 9.04555 7.24326C8.77135 7.05719 8.6999 6.68407 8.88596 6.40987L9.40831 5.6401C9.8922 4.927 10.698 4.5 11.5597 4.5L13.3014 4.5L12.3256 3.52426C12.0913 3.28995 12.0913 2.91005 12.3256 2.67574C12.56 2.44142 12.9399 2.44142 13.1742 2.67574L15.1742 4.67574C15.2867 4.78826 15.3499 4.94087 15.3499 5.1C15.3499 5.25913 15.2867 5.41174 15.1742 5.52426L13.1742 7.52426ZM2.7499 4.5C2.41853 4.5 2.1499 4.76863 2.1499 5.1C2.1499 5.43137 2.41853 5.7 2.7499 5.7H4.69006C5.15409 5.7 5.58797 5.92992 5.84852 6.3139L9.40831 11.5599C9.8922 12.273 10.698 12.7 11.5597 12.7H13.3014L12.3256 13.6757C12.0913 13.91 12.0913 14.2899 12.3256 14.5243C12.56 14.7586 12.9399 14.7586 13.1742 14.5243L15.1742 12.5243C15.2867 12.4117 15.3499 12.2591 15.3499 12.1C15.3499 11.9409 15.2867 11.7883 15.1742 11.6757L13.1742 9.67573C12.9399 9.44142 12.56 9.44142 12.3256 9.67573C12.0913 9.91005 12.0913 10.2899 12.3256 10.5243L13.3014 11.5L11.5597 11.5C11.0957 11.5 10.6618 11.2701 10.4013 10.8861L6.84149 5.64009C6.35761 4.927 5.55183 4.5 4.69006 4.5L2.7499 4.5Z" fill="#E2E1E4"/>
</svg>
