<svg width="16" height="16" viewBox="0 0 16 16" fill="none" xmlns="http://www.w3.org/2000/svg">
<circle cx="8" cy="8" r="6.4" fill="#FAEEE6" stroke="#F5D9C4" stroke-width="1.2"/>
<path d="M8 1.602C8 1.26952 8.27002 0.997312 8.60126 1.02587C9.31446 1.08736 10.0152 1.25799 10.6788 1.53284C11.5281 1.88463 12.2997 2.40024 12.9497 3.05025C13.5998 3.70026 14.1154 4.47194 14.4672 5.32122C14.8189 6.1705 15 7.08075 15 8C15 8.91925 14.8189 9.82951 14.4672 10.6788C14.1154 11.5281 13.5998 12.2997 12.9497 12.9497C12.2997 13.5998 11.5281 14.1154 10.6788 14.4672C10.0152 14.742 9.31446 14.9126 8.60126 14.9741C8.27001 15.0027 8 14.7305 8 14.398C8 14.0655 8.27024 13.7992 8.60092 13.7648C9.15586 13.7069 9.70061 13.5691 10.218 13.3548C10.9212 13.0635 11.5602 12.6366 12.0984 12.0984C12.6366 11.5602 13.0635 10.9212 13.3548 10.218C13.6461 9.51483 13.796 8.76114 13.796 8C13.796 7.23886 13.6461 6.48517 13.3548 5.78197C13.0635 5.07876 12.6366 4.43982 12.0984 3.90161C11.5602 3.3634 10.9212 2.93647 10.218 2.64519C9.70062 2.43087 9.15587 2.29308 8.60092 2.23524C8.27024 2.20076 8 1.93448 8 1.602Z" fill="#E68A1F"/>
<circle cx="8" cy="8" r="3" fill="#E68A1F"/>
</svg>
