<svg width="17" height="17" viewBox="0 0 17 17" fill="none" xmlns="http://www.w3.org/2000/svg">
<circle cx="8.25" cy="8.5" r="6.4" stroke="white" stroke-opacity="0.12" stroke-width="1.2"/>
<path d="M8.25 2.102C8.25 1.76952 8.52003 1.49731 8.85128 1.52587C10.0237 1.62694 11.1552 2.02236 12.139 2.67971C13.2901 3.44888 14.1873 4.54213 14.7172 5.82122C15.247 7.1003 15.3856 8.50777 15.1155 9.86563C14.8454 11.2235 14.1787 12.4708 13.1997 13.4497C12.2208 14.4287 10.9735 15.0954 9.61563 15.3655C8.25777 15.6356 6.8503 15.497 5.57122 14.9672C4.29213 14.4373 3.19888 13.5401 2.42971 12.389C1.77236 11.4052 1.37694 10.2737 1.27587 9.10128C1.24731 8.77003 1.51952 8.5 1.852 8.5C2.18448 8.5 2.45076 8.77025 2.48523 9.10094C2.58258 10.0349 2.9058 10.9344 3.4308 11.7201C4.06767 12.6732 4.97289 13.4161 6.03197 13.8548C7.09105 14.2935 8.25643 14.4083 9.38074 14.1846C10.5051 13.961 11.5378 13.409 12.3484 12.5984C13.159 11.7878 13.711 10.7551 13.9346 9.63074C14.1583 8.50643 14.0435 7.34105 13.6048 6.28197C13.1661 5.22289 12.4232 4.31767 11.4701 3.6808C10.6844 3.1558 9.78486 2.83258 8.85094 2.73523C8.52025 2.70076 8.25 2.43448 8.25 2.102Z" fill="#9F7AF6"/>
<circle cx="8.25" cy="8.5" r="3" fill="#9F7AF6"/>
</svg>
