<svg width="18" height="18" viewBox="0 0 18 18" fill="none" xmlns="http://www.w3.org/2000/svg">
<path d="M3.09375 2.25C2.86997 2.25 2.65536 2.33889 2.49713 2.49713C2.33889 2.65536 2.25 2.86997 2.25 3.09375V14.9062C2.25 15.13 2.33889 15.3446 2.49713 15.5029C2.65536 15.6611 2.86997 15.75 3.09375 15.75C3.31753 15.75 3.53214 15.6611 3.69037 15.5029C3.84861 15.3446 3.9375 15.13 3.9375 14.9062V11.9543L4.30875 11.8609C5.88373 11.4667 7.54778 11.649 9 12.375C10.4513 13.1006 12.1163 13.2829 13.6912 12.8891L15.3562 12.4729C15.4687 12.4448 15.5685 12.3799 15.6398 12.2886C15.7112 12.1973 15.7499 12.0848 15.75 11.9689V4.005C15.75 3.93014 15.7329 3.85626 15.7001 3.78898C15.6673 3.72169 15.6196 3.66277 15.5606 3.61668C15.5016 3.57059 15.4329 3.53855 15.3597 3.52299C15.2864 3.50743 15.2106 3.50876 15.138 3.52688L13.6901 3.88912C12.1163 4.284 10.4524 4.10175 9 3.375C7.54775 2.64914 5.88374 2.46677 4.30875 2.86088L3.92625 2.9565C3.89372 2.75918 3.79216 2.57983 3.63969 2.45043C3.48721 2.32104 3.29373 2.25 3.09375 2.25Z" fill="#E2E1E4"/>
</svg>
