<svg width="16" height="16" viewBox="0 0 16 16" fill="none" xmlns="http://www.w3.org/2000/svg">
<circle cx="8" cy="8" r="7" fill="#E6FAEE"/>
<path d="M15 8C15 11.866 11.866 15 8 15C4.13401 15 1 11.866 1 8C1 4.13401 4.13401 1 8 1C11.866 1 15 4.13401 15 8ZM2.204 8C2.204 11.201 4.79896 13.796 8 13.796C11.201 13.796 13.796 11.201 13.796 8C13.796 4.79896 11.201 2.204 8 2.204C4.79896 2.204 2.204 4.79896 2.204 8Z" fill="#3B8552"/>
<path fill-rule="evenodd" clip-rule="evenodd" d="M10.3486 5.76171C10.6183 5.95431 10.6807 6.32904 10.4881 6.59869L7.98814 10.0987C7.88563 10.2422 7.72516 10.3334 7.54939 10.3479C7.37362 10.3625 7.20035 10.2989 7.07564 10.1742L5.57564 8.67421C5.34132 8.4399 5.34132 8.06 5.57564 7.82568C5.80995 7.59137 6.18985 7.59137 6.42417 7.82568L7.42334 8.82486L9.51166 5.90121C9.70427 5.63156 10.079 5.5691 10.3486 5.76171Z" fill="#3B8552"/>
</svg>
