<svg width="16" height="16" viewBox="0 0 16 16" fill="none" xmlns="http://www.w3.org/2000/svg">
<path d="M5.75 8C5.55109 8 5.36032 8.07902 5.21967 8.21967C5.07902 8.36032 5 8.55109 5 8.75C5 8.94891 5.07902 9.13968 5.21967 9.28033C5.36032 9.42098 5.55109 9.5 5.75 9.5C5.94891 9.5 6.13968 9.42098 6.28033 9.28033C6.42098 9.13968 6.5 8.94891 6.5 8.75C6.5 8.55109 6.42098 8.36032 6.28033 8.21967C6.13968 8.07902 5.94891 8 5.75 8ZM5 10.75C5 10.5511 5.07902 10.3603 5.21967 10.2197C5.36032 10.079 5.55109 10 5.75 10C5.94891 10 6.13968 10.079 6.28033 10.2197C6.42098 10.3603 6.5 10.5511 6.5 10.75C6.5 10.9489 6.42098 11.1397 6.28033 11.2803C6.13968 11.421 5.94891 11.5 5.75 11.5C5.55109 11.5 5.36032 11.421 5.21967 11.2803C5.07902 11.1397 5 10.9489 5 10.75ZM10.25 8C10.0511 8 9.86032 8.07902 9.71967 8.21967C9.57902 8.36032 9.5 8.55109 9.5 8.75C9.5 8.94891 9.57902 9.13968 9.71967 9.28033C9.86032 9.42098 10.0511 9.5 10.25 9.5C10.4489 9.5 10.6397 9.42098 10.7803 9.28033C10.921 9.13968 11 8.94891 11 8.75C11 8.55109 10.921 8.36032 10.7803 8.21967C10.6397 8.07902 10.4489 8 10.25 8ZM7.25 8.75C7.25 8.55109 7.32902 8.36032 7.46967 8.21967C7.61032 8.07902 7.80109 8 8 8C8.19891 8 8.38968 8.07902 8.53033 8.21967C8.67098 8.36032 8.75 8.55109 8.75 8.75C8.75 8.94891 8.67098 9.13968 8.53033 9.28033C8.38968 9.42098 8.19891 9.5 8 9.5C7.80109 9.5 7.61032 9.42098 7.46967 9.28033C7.32902 9.13968 7.25 8.94891 7.25 8.75ZM8 10C7.80109 10 7.61032 10.079 7.46967 10.2197C7.32902 10.3603 7.25 10.5511 7.25 10.75C7.25 10.9489 7.32902 11.1397 7.46967 11.2803C7.61032 11.421 7.80109 11.5 8 11.5C8.19891 11.5 8.38968 11.421 8.53033 11.2803C8.67098 11.1397 8.75 10.9489 8.75 10.75C8.75 10.5511 8.67098 10.3603 8.53033 10.2197C8.38968 10.079 8.19891 10 8 10Z" fill="#A5A3AD"/>
<path fill-rule="evenodd" clip-rule="evenodd" d="M4.75 1.5C4.55109 1.5 4.36032 1.57902 4.21967 1.71967C4.07902 1.86032 4 2.05109 4 2.25V3.5C3.46957 3.5 2.96086 3.71071 2.58579 4.08579C2.21071 4.46086 2 4.96957 2 5.5V12.5C2 13.0304 2.21071 13.5391 2.58579 13.9142C2.96086 14.2893 3.46957 14.5 4 14.5H12C12.5304 14.5 13.0391 14.2893 13.4142 13.9142C13.7893 13.5391 14 13.0304 14 12.5V5.5C14 4.96957 13.7893 4.46086 13.4142 4.08579C13.0391 3.71071 12.5304 3.5 12 3.5V2.25C12 2.05109 11.921 1.86032 11.7803 1.71967C11.6397 1.57902 11.4489 1.5 11.25 1.5C11.0511 1.5 10.8603 1.57902 10.7197 1.71967C10.579 1.86032 10.5 2.05109 10.5 2.25V3.5H5.5V2.25C5.5 2.05109 5.42098 1.86032 5.28033 1.71967C5.13968 1.57902 4.94891 1.5 4.75 1.5ZM3.5 7.5C3.5 7.23478 3.60536 6.98043 3.79289 6.79289C3.98043 6.60536 4.23478 6.5 4.5 6.5H11.5C11.7652 6.5 12.0196 6.60536 12.2071 6.79289C12.3946 6.98043 12.5 7.23478 12.5 7.5V12C12.5 12.2652 12.3946 12.5196 12.2071 12.7071C12.0196 12.8946 11.7652 13 11.5 13H4.5C4.23478 13 3.98043 12.8946 3.79289 12.7071C3.60536 12.5196 3.5 12.2652 3.5 12V7.5Z" fill="#A5A3AD"/>
</svg>
