<svg width="32" height="32" viewBox="0 0 32 32" fill="none" xmlns="http://www.w3.org/2000/svg">
<rect width="32" height="32" rx="16" fill="#111C1A"/>
<path fill-rule="evenodd" clip-rule="evenodd" d="M16 23C17.8565 23 19.637 22.2625 20.9497 20.9497C22.2625 19.637 23 17.8565 23 16C23 14.1435 22.2625 12.363 20.9497 11.0503C19.637 9.7375 17.8565 9 16 9C14.1435 9 12.363 9.7375 11.0503 11.0503C9.7375 12.363 9 14.1435 9 16C9 17.8565 9.7375 19.637 11.0503 20.9497C12.363 22.2625 14.1435 23 16 23ZM19.844 14.209C19.9657 14.0515 20.0199 13.852 19.9946 13.6545C19.9693 13.4571 19.8665 13.2777 19.709 13.156C19.5515 13.0343 19.352 12.9801 19.1545 13.0054C18.9571 13.0307 18.7777 13.1335 18.656 13.291L14.956 18.081L13.307 16.248C13.2417 16.1725 13.1621 16.1107 13.0726 16.0664C12.9832 16.022 12.8858 15.996 12.7862 15.9898C12.6866 15.9836 12.5867 15.9973 12.4925 16.0302C12.3983 16.063 12.3115 16.1144 12.2374 16.1812C12.1632 16.248 12.1032 16.329 12.0607 16.4193C12.0183 16.5096 11.9943 16.6075 11.9901 16.7073C11.986 16.807 12.0018 16.9066 12.0366 17.0001C12.0715 17.0936 12.1246 17.1793 12.193 17.252L14.443 19.752C14.5165 19.8335 14.607 19.8979 14.7081 19.9406C14.8091 19.9833 14.9184 20.0034 15.028 19.9993C15.1377 19.9952 15.2452 19.967 15.3428 19.9169C15.4404 19.8667 15.5258 19.7958 15.593 19.709L19.844 14.209Z" fill="#3B8552"/>
</svg>
