<svg width="16" height="16" viewBox="0 0 16 16" fill="none" xmlns="http://www.w3.org/2000/svg">
<path fill-rule="evenodd" clip-rule="evenodd" d="M7.71556 1.47171C7.89315 1.37609 8.1069 1.37609 8.28448 1.47171L14.2845 4.70248C14.4788 4.80713 14.6 5.01004 14.6 5.23078C14.6 5.45151 14.4788 5.65442 14.2845 5.75906L12.694 6.61538L14.2845 7.4717C14.4788 7.57634 14.6 7.77926 14.6 7.99999C14.6 8.22073 14.4788 8.42365 14.2845 8.52829L12.694 9.38461L14.2845 10.2409C14.4788 10.3456 14.6 10.5485 14.6 10.7692C14.6 10.9899 14.4788 11.1929 14.2845 11.2975L8.28448 14.5283C8.1069 14.6239 7.89315 14.6239 7.71556 14.5283L1.71556 11.2975C1.52121 11.1929 1.40002 10.9899 1.40002 10.7692C1.40003 10.5485 1.52123 10.3456 1.71559 10.2409L3.30606 9.38461L1.71559 8.52829C1.52123 8.42365 1.40002 8.22073 1.40002 7.99999C1.40002 7.77926 1.52123 7.57634 1.71559 7.4717L3.30606 6.61538L1.71559 5.75906C1.52123 5.65442 1.40003 5.45151 1.40002 5.23078C1.40002 5.01004 1.52121 4.80713 1.71556 4.70248L7.71556 1.47171ZM11.4284 10.0661L8.2845 11.759C8.10691 11.8547 7.89314 11.8547 7.71555 11.759L4.57169 10.0661L3.26563 10.7693L8.00002 13.3185L12.7344 10.7693L11.4284 10.0661ZM11.4284 7.29683L8.2845 8.98981C8.10691 9.08544 7.89314 9.08544 7.71555 8.98981L4.57169 7.29683L3.26568 7.99999L4.85615 8.85631L4.85619 8.85634L8.00002 10.5493L11.1439 8.85634L11.1439 8.85631L12.7344 7.99999L11.4284 7.29683ZM3.26563 5.23074L4.85615 6.08708L4.85619 6.08711L8.00002 7.78007L11.1439 6.08711L11.1439 6.08708L12.7344 5.23074L8.00002 2.68145L3.26563 5.23074Z" fill="#E2E1E4"/>
</svg>
