<svg width="20" height="20" viewBox="0 0 20 20" fill="none" xmlns="http://www.w3.org/2000/svg">
<path fill-rule="evenodd" clip-rule="evenodd" d="M10 18.75C5.16751 18.75 1.25 14.8325 1.25 10C1.25 5.16751 5.16751 1.25 10 1.25C14.8325 1.25 18.75 5.16751 18.75 10C18.75 14.8325 14.8325 18.75 10 18.75ZM10 2.75024C14.0041 2.75024 17.2498 5.99594 17.2498 10C17.2498 14.0041 14.0041 17.2498 10 17.2498C5.99594 17.2498 2.75024 14.0041 2.75024 10C2.75024 5.99594 5.99594 2.75024 10 2.75024Z" fill="white" fill-opacity="0.12"/>
<path d="M10 2.0025C10 1.58691 10.3375 1.24664 10.7516 1.28233C12.2171 1.40867 13.6315 1.90295 14.8612 2.72464C16.3002 3.6861 17.4217 5.05267 18.0839 6.65152C18.7462 8.25037 18.9195 10.0097 18.5819 11.707C18.2443 13.4044 17.4109 14.9635 16.1872 16.1872C14.9635 17.4109 13.4044 18.2443 11.707 18.5819C10.0097 18.9195 8.25037 18.7462 6.65152 18.0839C5.05267 17.4217 3.6861 16.3002 2.72464 14.8612C1.90295 13.6315 1.40867 12.2171 1.28233 10.7516C1.24664 10.3375 1.58691 10 2.0025 10C2.41809 10 2.75095 10.3378 2.79404 10.7512C2.91573 11.9186 3.31975 13.043 3.976 14.0251C4.77209 15.2165 5.90361 16.1452 7.22746 16.6935C8.55131 17.2419 10.008 17.3853 11.4134 17.1058C12.8188 16.8262 14.1098 16.1362 15.123 15.123C16.1362 14.1098 16.8262 12.8188 17.1058 11.4134C17.3853 10.008 17.2419 8.55131 16.6935 7.22746C16.1452 5.90361 15.2165 4.77209 14.0251 3.976C13.043 3.31975 11.9186 2.91573 10.7512 2.79404C10.3378 2.75095 10 2.41809 10 2.0025Z" fill="#9F7AF6"/>
<circle cx="10" cy="10" r="3.75" fill="#9F7AF6"/>
</svg>
