<svg width="20" height="20" viewBox="0 0 20 20" fill="none" xmlns="http://www.w3.org/2000/svg">
<path d="M4.92505 4.9997C6.00191 4.99981 7.00942 5.53332 7.61426 6.42426L12.0637 12.9819C12.3893 13.4616 12.9318 13.7494 13.5115 13.7497H15.6904L14.4697 12.529L14.3733 12.4118C14.1815 12.1207 14.2136 11.7256 14.4697 11.4694C14.7259 11.2133 15.121 11.1812 15.4121 11.373L15.5293 11.4694L18.0293 13.9694C18.1698 14.11 18.2489 14.3005 18.249 14.4992C18.249 14.6981 18.1699 14.8883 18.0293 15.029L15.5293 17.529C15.2364 17.8219 14.7626 17.8219 14.4697 17.529C14.1773 17.2361 14.177 16.7622 14.4697 16.4694L15.6904 15.2487H13.5115C12.4346 15.2484 11.427 14.7153 10.8223 13.8242L6.3728 7.26654C6.04713 6.78702 5.50473 6.49884 4.92505 6.49872H2.49951C2.08552 6.49846 1.75 6.16326 1.75 5.74921C1.75026 5.33538 2.08568 4.99996 2.49951 4.9997H4.92505Z" fill="#A5A3AD"/>
<path d="M6.90137 12.2031C7.13386 11.8607 7.59999 11.772 7.94263 12.0041C8.28529 12.2366 8.37517 12.7026 8.14282 13.0454L7.61426 13.8242C7.00946 14.7154 6.00213 15.2486 4.92505 15.2487H2.49951C2.08552 15.2485 1.75 14.9133 1.75 14.4992C1.75026 14.0854 2.08568 13.75 2.49951 13.7497H4.92505C5.50495 13.7496 6.04717 13.4617 6.3728 12.9819L6.90137 12.2031Z" fill="#A5A3AD"/>
<path d="M14.4697 2.71943C14.7625 2.4267 15.2364 2.42702 15.5293 2.71943L18.0293 5.21943C18.1698 5.35996 18.2489 5.55047 18.249 5.74921C18.249 5.94812 18.1699 6.13834 18.0293 6.279L15.5293 8.779L15.4121 8.87543C15.121 9.06759 14.726 9.03526 14.4697 8.779C14.2139 8.52269 14.1812 8.12755 14.3733 7.83661L14.4697 7.71943L15.6904 6.49872H13.5115C12.9318 6.499 12.3893 6.78688 12.0637 7.26654L11.4106 8.22846C11.1782 8.57108 10.7121 8.6609 10.3694 8.42865C10.0271 8.19594 9.93673 7.72874 10.1692 7.38617L10.8223 6.42426C11.427 5.53318 12.4346 4.99997 13.5115 4.9997H15.6904L14.4697 3.779C14.1773 3.48606 14.177 3.01216 14.4697 2.71943Z" fill="#A5A3AD"/>
</svg>
