<svg width="20" height="20" viewBox="0 0 20 20" fill="none" xmlns="http://www.w3.org/2000/svg">
<path fill-rule="evenodd" clip-rule="evenodd" d="M10 18.75C5.16751 18.75 1.25 14.8325 1.25 10C1.25 5.16751 5.16751 1.25 10 1.25C14.8325 1.25 18.75 5.16751 18.75 10C18.75 14.8325 14.8325 18.75 10 18.75ZM10 2.75024C14.0041 2.75024 17.2498 5.99594 17.2498 10C17.2498 14.0041 14.0041 17.2498 10 17.2498C5.99594 17.2498 2.75024 14.0041 2.75024 10C2.75024 5.99594 5.99594 2.75024 10 2.75024Z" fill="white" fill-opacity="0.12"/>
<path d="M10 2.0025C10 1.58691 10.3375 1.24664 10.7516 1.28234C11.6431 1.3592 12.519 1.57249 13.3485 1.91605C14.4101 2.35578 15.3747 3.0003 16.1872 3.81282C16.9997 4.62533 17.6442 5.58992 18.0839 6.65152C18.5237 7.71312 18.75 8.85093 18.75 10C18.75 11.1491 18.5237 12.2869 18.0839 13.3485C17.6442 14.4101 16.9997 15.3747 16.1872 16.1872C15.3747 16.9997 14.4101 17.6442 13.3485 18.0839C12.519 18.4275 11.6431 18.6408 10.7516 18.7177C10.3375 18.7534 10 18.4131 10 17.9975C10 17.5819 10.3378 17.249 10.7512 17.206C11.4448 17.1336 12.1258 16.9614 12.7725 16.6935C13.6515 16.3294 14.4502 15.7958 15.123 15.123C15.7957 14.4502 16.3294 13.6515 16.6935 12.7725C17.0576 11.8935 17.245 10.9514 17.245 10C17.245 9.04857 17.0576 8.10646 16.6935 7.22746C16.3294 6.34846 15.7957 5.54977 15.123 4.87701C14.4502 4.20425 13.6515 3.67059 12.7725 3.30649C12.1258 3.03859 11.4448 2.86635 10.7512 2.79404C10.3378 2.75096 10 2.41809 10 2.0025Z" fill="#E58A1F"/>
<circle cx="10" cy="10" r="3.75" fill="#E58A1F"/>
</svg>
