<svg width="20" height="20" viewBox="0 0 20 20" fill="none" xmlns="http://www.w3.org/2000/svg">
<path fill-rule="evenodd" clip-rule="evenodd" d="M10.0925 1.26807C9.28936 1.8468 8.6354 2.60828 8.18462 3.48962C7.73384 4.37096 7.49918 5.34689 7.5 6.33682V6.37682C7.505 7.12682 7.6425 7.84682 7.88875 8.51307C8.08875 9.04807 7.63375 9.65057 7.12625 9.38807C6.18304 8.89821 5.37962 8.17693 4.79125 7.29182C4.53875 6.91182 3.98125 6.83807 3.73125 7.21932C2.90686 8.47441 2.47821 9.94808 2.50079 11.4495C2.52336 12.951 2.99612 14.4111 3.85786 15.6408C4.7196 16.8706 5.93065 17.8133 7.33422 18.3471C8.73779 18.8808 10.2693 18.9809 11.7304 18.6344C13.1915 18.288 14.5149 17.5109 15.5294 16.4038C16.5439 15.2967 17.2028 13.9106 17.4206 12.4248C17.6384 10.9391 17.4053 9.42216 16.7513 8.07043C16.0981 6.72021 15.055 5.59691 13.7569 4.84559C13.754 4.84394 13.7516 4.84156 13.75 4.8387C13.7484 4.83583 13.746 4.83345 13.7431 4.8318C12.4903 4.10881 11.5283 2.97208 11.0225 1.61682C10.8775 1.22932 10.4262 1.02807 10.0925 1.26807ZM11.0675 8.99057C11.657 9.1654 12.1946 9.48248 12.6328 9.9139C13.0709 10.3453 13.3963 10.8778 13.5803 11.4646C13.7643 12.0513 13.8013 12.6743 13.6879 13.2787C13.5745 13.8831 13.3143 14.4503 12.9301 14.9305C12.546 15.4106 12.0497 15.789 11.4849 16.0323C10.9201 16.2755 10.3042 16.3762 9.69142 16.3255C9.07859 16.2747 8.48764 16.0741 7.97058 15.7413C7.45351 15.4085 7.0262 14.9536 6.72625 14.4168C6.47 13.9606 6.995 13.5493 7.50125 13.6793C8.26775 13.8766 9.07007 13.8894 9.8425 13.7168C10.2025 13.6356 10.3587 13.2343 10.2437 12.8843C10.0815 12.3841 9.99924 11.8614 10 11.3356C10 10.6043 10.1575 9.91057 10.4387 9.28432C10.4899 9.16724 10.5819 9.07282 10.6977 9.01874C10.8134 8.96467 10.9449 8.95465 11.0675 8.99057Z" fill="#09080F"/>
</svg>
