<svg width="20" height="20" viewBox="0 0 20 20" fill="none" xmlns="http://www.w3.org/2000/svg">
<path fill-rule="evenodd" clip-rule="evenodd" d="M10 18.75C5.16751 18.75 1.25 14.8325 1.25 10C1.25 5.16751 5.16751 1.25 10 1.25C14.8325 1.25 18.75 5.16751 18.75 10C18.75 14.8325 14.8325 18.75 10 18.75ZM10 2.75024C14.0041 2.75024 17.2498 5.99594 17.2498 10C17.2498 14.0041 14.0041 17.2498 10 17.2498C5.99594 17.2498 2.75024 14.0041 2.75024 10C2.75024 5.99594 5.99594 2.75024 10 2.75024Z" fill="white" fill-opacity="0.12"/>
<path d="M10 2.0025C10 1.58691 10.3375 1.24664 10.7516 1.28234C11.6431 1.3592 12.519 1.57249 13.3485 1.91605C14.4101 2.35578 15.3747 3.0003 16.1872 3.81282C16.9997 4.62533 17.6442 5.58992 18.0839 6.65152C18.4275 7.48096 18.6408 8.35692 18.7177 9.24842C18.7534 9.66248 18.4131 10 17.9975 10C17.5819 10 17.249 9.6622 17.206 9.24885C17.1336 8.55517 16.9614 7.87423 16.6935 7.22746C16.3294 6.34846 15.7957 5.54977 15.123 4.87701C14.4502 4.20425 13.6515 3.67059 12.7725 3.30649C12.1258 3.03859 11.4448 2.86635 10.7512 2.79404C10.3378 2.75096 10 2.41809 10 2.0025Z" fill="#C73C40"/>
<circle cx="10" cy="10" r="3.75" fill="#C73C40"/>
</svg>
