<svg width="20" height="20" viewBox="0 0 20 20" fill="none" xmlns="http://www.w3.org/2000/svg">
    <path fill-rule="evenodd" clip-rule="evenodd"
        d="M14.6291 1.94997C15.1469 1.94997 15.5666 2.35291 15.5666 2.84997V8.6833C15.5666 9.18036 15.1469 9.5833 14.6291 9.5833C14.1114 9.5833 13.6916 9.18036 13.6916 8.6833V2.84997C13.6916 2.35291 14.1114 1.94997 14.6291 1.94997Z"
        fill="#E2E1E4" />
    <path fill-rule="evenodd" clip-rule="evenodd"
        d="M10.8125 5.76649C10.8125 5.24873 11.2154 4.82899 11.7125 4.82899H17.5458C18.0429 4.82899 18.4458 5.24873 18.4458 5.76649C18.4458 6.28426 18.0429 6.70399 17.5458 6.70399H11.7125C11.2154 6.70399 10.8125 6.28426 10.8125 5.76649Z"
        fill="#E2E1E4" />
    <path fill-rule="evenodd" clip-rule="evenodd"
        d="M10.0919 1.26823C10.4257 1.02823 10.8771 1.22985 11.0221 1.61735C11.2938 2.34531 11.6992 3.00865 12.2086 3.58024H11.7118C10.5542 3.5806 9.67806 4.48345 9.5731 5.55167L9.56212 5.76774L9.5731 5.98258C9.67829 7.05058 10.5544 7.95488 11.7118 7.95524H12.4418V8.684C12.4421 9.91857 13.4701 10.8335 14.6293 10.8337C15.7884 10.8334 16.8164 9.91853 16.8168 8.684V8.21158C17.4199 9.52719 17.6312 10.9901 17.421 12.4242C17.2032 13.91 16.5434 15.2966 15.5289 16.4037C14.5144 17.5107 13.1911 18.2875 11.7301 18.6339C10.2691 18.9804 8.73782 18.8807 7.33434 18.3471C5.93076 17.8134 4.71951 16.8705 3.85777 15.6408C2.99604 14.411 2.52292 12.9503 2.50035 11.4489C2.4779 9.94768 2.90658 8.47406 3.73082 7.21915C3.98077 6.83798 4.53904 6.91138 4.79161 7.29117C5.37991 8.17618 6.18254 8.89849 7.1256 9.38834C7.63309 9.65084 8.08853 9.0481 7.88853 8.5131C7.64229 7.84687 7.50536 7.12684 7.50035 6.37687V6.33658C7.49956 5.34673 7.73442 4.37118 8.18517 3.48991C8.63586 2.60873 9.28897 1.84692 10.0919 1.26823ZM11.0672 8.99039C10.9447 8.95455 10.813 8.96443 10.6974 9.01847C10.5817 9.07255 10.4897 9.16754 10.4386 9.28458C10.1574 9.91071 10.0004 10.6043 10.0004 11.3354C9.99959 11.8612 10.081 12.3842 10.2433 12.8844C10.3582 13.2343 10.2026 13.6355 9.84288 13.717C9.07056 13.8895 8.26798 13.8763 7.50157 13.6791C6.99539 13.5491 6.47042 13.9602 6.72643 14.4164C7.02632 14.9531 7.4534 15.4081 7.97032 15.7409C8.48738 16.0737 9.07869 16.2749 9.69151 16.3256C10.3042 16.3763 10.9201 16.2758 11.4847 16.0326C12.0495 15.7894 12.5459 15.4105 12.93 14.9303C13.3142 14.4502 13.5747 13.8831 13.6881 13.2787C13.8015 12.6744 13.7646 12.0514 13.5807 11.4648C13.3967 10.878 13.0704 10.3459 12.6322 9.91446C12.194 9.48305 11.6568 9.16523 11.0672 8.99039Z"
        fill="#E2E1E4" />
</svg>
