<svg width="20" height="20" viewBox="0 0 20 20" fill="none" xmlns="http://www.w3.org/2000/svg">
<path d="M18.75 10C18.75 14.8325 14.8325 18.75 10 18.75C5.16751 18.75 1.25 14.8325 1.25 10C1.25 5.16751 5.16751 1.25 10 1.25C14.8325 1.25 18.75 5.16751 18.75 10ZM2.755 10C2.755 14.0013 5.9987 17.245 10 17.245C14.0013 17.245 17.245 14.0013 17.245 10C17.245 5.9987 14.0013 2.755 10 2.755C5.9987 2.755 2.755 5.9987 2.755 10Z" fill="#A5A3AD"/>
<path fill-rule="evenodd" clip-rule="evenodd" d="M6.96967 6.96967C7.26256 6.67678 7.73744 6.67678 8.03033 6.96967L10 8.93934L11.9697 6.96967C12.2626 6.67678 12.7374 6.67678 13.0303 6.96967C13.3232 7.26256 13.3232 7.73744 13.0303 8.03033L11.0607 10L13.0303 11.9697C13.3232 12.2626 13.3232 12.7374 13.0303 13.0303C12.7374 13.3232 12.2626 13.3232 11.9697 13.0303L10 11.0607L8.03033 13.0303C7.73744 13.3232 7.26256 13.3232 6.96967 13.0303C6.67678 12.7374 6.67678 12.2626 6.96967 11.9697L8.93934 10L6.96967 8.03033C6.67678 7.73744 6.67678 7.26256 6.96967 6.96967Z" fill="#A5A3AD"/>
</svg>
