<svg width="13" height="12" viewBox="0 0 13 12" fill="none" xmlns="http://www.w3.org/2000/svg">
<path d="M8.53366 2.8244L8.62155 2.84783L11.5915 3.98821C11.8235 4.07727 11.9398 4.33774 11.8508 4.56976L10.7104 7.53973L9.87033 7.21746L10.6203 5.26116L10.2431 5.42962C9.08006 5.94529 8.13064 6.84673 7.55514 7.98138C7.48991 8.10999 7.3665 8.19966 7.22409 8.22234C7.08174 8.24496 6.93708 8.19757 6.83517 8.09564L4.99972 6.26019L1.94333 9.31732C1.76761 9.49292 1.48329 9.49292 1.30758 9.31732C1.13185 9.14158 1.13185 8.85658 1.30758 8.68084L4.68258 5.30584L4.7507 5.25018C4.82413 5.20115 4.91086 5.17401 5.00045 5.17401C5.11967 5.17401 5.23397 5.22162 5.31833 5.30584L7.0549 7.04315C7.73208 5.97386 8.71235 5.12388 9.87765 4.60711L10.2548 4.43865L8.29928 3.68865L8.21798 3.64764C8.04146 3.53508 7.96218 3.31018 8.04 3.10711C8.11792 2.90411 8.3272 2.79012 8.53366 2.8244ZM10.7104 7.53973C10.6214 7.77176 10.3609 7.88805 10.1289 7.799C9.89702 7.70986 9.78131 7.4494 9.87033 7.21746L10.7104 7.53973Z" fill="#C73C40"/>
</svg>
