<svg width="76" height="64" viewBox="0 0 76 64" fill="none" xmlns="http://www.w3.org/2000/svg">
<path d="M1 45.8428C2.00134 45.7474 25.5417 43.4607 35.835 52.7529C36.7108 53.5399 37.4712 54.385 38.1162 55.2852C38.7537 54.4032 39.5023 53.5746 40.3623 52.8018C50.6551 43.5097 74.242 45.7961 75.1973 45.8916L74.5303 52.3252C68.5259 51.7057 51.4663 51.4672 44.6992 57.6143C42.7931 59.3298 41.8877 61.4267 41.8877 64L40.79 63.9287C40.7901 63.9364 40.791 63.9445 40.791 63.9521L34.2998 63.5225C34.1934 61.1657 33.2857 59.2225 31.499 57.6143C24.7321 51.4669 7.67141 51.7047 1.66699 52.3242L1 45.8428ZM37.5508 24.3994C49.559 38.3617 37.7418 44.9376 34.0723 38.9336C30.4128 32.9454 37.5125 24.4452 37.5508 24.3994ZM4.86035 29.8799C4.90804 29.8562 14.8316 24.9361 19.8232 29.9277C24.8268 34.9314 15.5824 44.8906 4.86035 29.8799ZM55.707 29.9277C60.7107 24.9241 70.6709 29.8799 70.6709 29.8799C59.9013 44.8907 50.7039 34.9315 55.707 29.9277ZM11.9131 13.7246C11.9335 13.7188 22.6393 10.6803 26.5908 16.5361C30.5453 22.3975 19.7282 30.4027 11.9131 13.7246ZM48.9404 16.5361C52.8871 10.6875 63.5706 13.7114 63.6172 13.7246C55.8019 30.403 44.9375 22.3022 48.9404 16.5361ZM37.4072 0C49.8449 13.5814 38.2174 20.539 34.3574 14.6299C30.5086 8.73765 37.368 0.0495556 37.4072 0Z" fill="#09080F"/>
</svg>
