<svg width="320" height="320" viewBox="0 0 320 320" fill="none" xmlns="http://www.w3.org/2000/svg">
<rect width="320" height="320" fill="#8D6FDE"/>
<path d="M61.0137 188.461C61.2244 188.422 130.915 175.603 159.987 213.25C188.312 176.087 258.964 188.461 258.964 188.461L255.758 208.956C255.758 208.956 178 191.901 172 241.25H148C142 192.024 64.2188 208.956 64.2188 208.956L61.0137 188.461ZM160 136C160 136 173.5 150.25 173.5 165.25C173.5 174.25 167.456 182.5 160 182.5C152.544 182.5 146.5 174.25 146.5 165.25C146.5 150.25 160 136 160 136ZM72.4951 148.146C72.4951 148.146 90.1026 139.467 104.431 143.906C113.027 146.57 119.118 154.785 116.912 161.906C114.706 169.028 105.037 172.36 96.4404 169.697C82.1238 165.262 72.5105 148.173 72.4951 148.146ZM215.478 143.906C229.798 139.47 247.393 148.136 247.412 148.146C247.37 148.219 237.765 165.268 223.468 169.697C214.871 172.361 205.202 169.028 202.995 161.906C200.789 154.784 206.881 146.57 215.478 143.906ZM96.7393 106.145C96.7873 106.135 116.022 102.402 128.667 110.436C136.264 115.262 139.986 124.787 135.988 131.08C131.99 137.373 121.785 138.051 114.188 133.225C101.528 125.181 96.7393 106.145 96.7393 106.145ZM190.788 110.436C203.433 102.402 222.668 106.135 222.716 106.145C222.716 106.145 217.927 125.181 205.267 133.225C197.67 138.051 187.465 137.373 183.467 131.08C179.469 124.787 183.192 115.262 190.788 110.436ZM160 70.75C160 70.75 173.5 85 173.5 100C173.5 109 167.456 117.25 160 117.25C152.544 117.25 146.5 109 146.5 100C146.5 85 160 70.75 160 70.75Z" fill="white"/>
</svg>
