<svg width="20" height="20" viewBox="0 0 20 20" fill="none" xmlns="http://www.w3.org/2000/svg">
<path d="M15.2093 7.23256C16.0185 7.23256 16.6744 6.5766 16.6744 5.76744C16.6744 4.95828 16.0185 4.30232 15.2093 4.30232C14.4001 4.30232 13.7442 4.95828 13.7442 5.76744C13.7442 6.5766 14.4001 7.23256 15.2093 7.23256Z" fill="#1E1A33"/>
<path d="M10.6512 7.23256C11.82 7.23256 12.7674 6.28507 12.7674 5.11628C12.7674 3.94749 11.82 3 10.6512 3C9.48237 3 8.53488 3.94749 8.53488 5.11628C8.53488 6.28507 9.48237 7.23256 10.6512 7.23256Z" fill="#1E1A33"/>
<path d="M10.6512 7.23256C11.82 7.23256 12.7674 6.28507 12.7674 5.11628C12.7674 3.94749 11.82 3 10.6512 3C9.48237 3 8.53488 3.94749 8.53488 5.11628C8.53488 6.28507 9.48237 7.23256 10.6512 7.23256Z" fill="#1E1A33"/>
<path d="M14.964 14.0575C16.108 13.9387 17 12.9716 17 11.7962V8.50227C17 8.16062 16.723 7.88367 16.3814 7.88367H15.164C15.2353 8.08239 15.2728 8.29694 15.2698 8.52019V12.2537C15.2826 12.8881 15.1735 13.4969 14.964 14.0575Z" fill="#09080F"/>
<path fill-rule="evenodd" clip-rule="evenodd" d="M3.59679 5.93018H7.43548C7.75948 7.21436 8.83254 8.20057 10.1628 8.3969V12.4962C10.1628 12.6887 10.0716 12.86 9.93007 12.9691C9.90332 12.9897 9.87477 13.0081 9.8447 13.024C9.82109 13.0365 9.79654 13.0475 9.77119 13.0567C9.70721 13.0802 9.63809 13.093 9.566 13.093H3.59679C3.26719 13.093 3 12.8258 3 12.4962V6.52696C3 6.19737 3.26719 5.93018 3.59679 5.93018ZM6.95874 8.20214H8.152V7.57182H5.01079V8.20214H6.19851V11.4514H6.95874V8.20214Z" fill="#09080F"/>
<path d="M11.3628 12.4962C11.3628 13.4886 10.5583 14.293 9.566 14.293H7.46035C8.09236 15.3062 9.20555 15.9918 10.4884 16.0232C12.5142 15.9736 14.1169 14.2925 14.0698 12.2666V8.50976C14.0776 8.17217 13.8106 7.89202 13.473 7.88367H11.3628V12.4962Z" fill="#09080F"/>
</svg>
