<svg width="20" height="20" viewBox="0 0 20 20" fill="none" xmlns="http://www.w3.org/2000/svg">
<path fill-rule="evenodd" clip-rule="evenodd" d="M4.0076 4.96372C3.08364 5.43696 2.5 6.40434 2.5 7.46254V12.5375C2.5 13.5957 3.08364 14.563 4.0076 15.0363L8.78033 17.8301C9.54813 18.2233 10.4519 18.2233 11.2197 17.8301L15.9924 15.0363C16.9164 14.563 17.5 13.5957 17.5 12.5375V7.46254C17.5 6.40434 16.9164 5.43696 15.9924 4.96372L11.2197 2.16995C10.4519 1.77668 9.54813 1.77668 8.78033 2.16995L4.0076 4.96372ZM9.99999 5.11092C10.2712 5.11092 10.5314 5.2213 10.7232 5.41777C10.915 5.61425 11.0227 5.88073 11.0227 6.15859V8.95236C11.0227 9.23022 10.915 9.49669 10.7232 9.69317C10.5314 9.88964 10.2712 10 9.99999 10C9.72875 10 9.46861 9.88964 9.27681 9.69317C9.08501 9.49669 8.97726 9.23022 8.97726 8.95236V6.15859C8.97726 5.88073 9.08501 5.61425 9.27681 5.41777C9.46861 5.2213 9.72875 5.11092 9.99999 5.11092ZM9.99999 14.8891C10.3616 14.8891 10.7085 14.742 10.9642 14.48C11.22 14.218 11.3636 13.8627 11.3636 13.4922C11.3636 13.1218 11.22 12.7665 10.9642 12.5045C10.7085 12.2425 10.3616 12.0954 9.99999 12.0954C9.63833 12.0954 9.29148 12.2425 9.03575 12.5045C8.78002 12.7665 8.63635 13.1218 8.63635 13.4922C8.63635 13.8627 8.78002 14.218 9.03575 14.48C9.29148 14.742 9.63833 14.8891 9.99999 14.8891Z" fill="#A5A3AD"/>
</svg>
