<svg width="20" height="20" viewBox="0 0 20 20" fill="none" xmlns="http://www.w3.org/2000/svg">
<path d="M3.4375 2.5C3.18886 2.5 2.9504 2.59877 2.77459 2.77459C2.59877 2.9504 2.5 3.18886 2.5 3.4375V16.5625C2.5 16.8111 2.59877 17.0496 2.77459 17.2254C2.9504 17.4012 3.18886 17.5 3.4375 17.5C3.68614 17.5 3.9246 17.4012 4.10041 17.2254C4.27623 17.0496 4.375 16.8111 4.375 16.5625V13.2825L4.7875 13.1788C6.53748 12.7407 8.38642 12.9434 10 13.75C11.6125 14.5562 13.4625 14.7587 15.2125 14.3212L17.0625 13.8587C17.1874 13.8275 17.2983 13.7555 17.3776 13.654C17.4569 13.5525 17.4999 13.4275 17.5 13.2987V4.45C17.5 4.36682 17.4811 4.28473 17.4446 4.20997C17.4081 4.13521 17.3551 4.06974 17.2896 4.01853C17.224 3.96732 17.1477 3.93172 17.0663 3.91443C16.9849 3.89714 16.9007 3.89862 16.82 3.91875L15.2112 4.32125C13.4625 4.76 11.6138 4.5575 10 3.75C8.38639 2.94349 6.53749 2.74086 4.7875 3.17875L4.3625 3.285C4.32636 3.06576 4.21351 2.86648 4.0441 2.72271C3.87468 2.57893 3.6597 2.5 3.4375 2.5Z" fill="#A5A3AD"/>
</svg>
