<svg width="20" height="20" viewBox="0 0 20 20" fill="none" xmlns="http://www.w3.org/2000/svg">
<path fill-rule="evenodd" clip-rule="evenodd" d="M15.8447 3.21967C16.1376 2.92678 16.6124 2.92678 16.9053 3.21967L18.4678 4.78217C18.7607 5.07506 18.7607 5.54994 18.4678 5.84283L16.9053 7.40533C16.6124 7.69822 16.1376 7.69822 15.8447 7.40533C15.5518 7.11244 15.5518 6.63756 15.8447 6.34467L16.1268 6.0625H13.25C12.8358 6.0625 12.5 5.72671 12.5 5.3125C12.5 4.89829 12.8358 4.5625 13.25 4.5625H16.1268L15.8447 4.28033C15.5518 3.98744 15.5518 3.51256 15.8447 3.21967ZM14.7178 7.28216C15.0107 7.57505 15.0107 8.04993 14.7178 8.34282L14.4357 8.62499H17.3125C17.7267 8.62499 18.0625 8.96078 18.0625 9.37499C18.0625 9.7892 17.7267 10.125 17.3125 10.125H14.4357L14.7178 10.4072C15.0107 10.7001 15.0107 11.1749 14.7178 11.4678C14.4249 11.7607 13.9501 11.7607 13.6572 11.4678L12.0947 9.90532C11.8018 9.61243 11.8018 9.13755 12.0947 8.84466L13.6572 7.28216C13.9501 6.98927 14.4249 6.98927 14.7178 7.28216ZM9.60738 9.08468C10.1934 8.49863 10.5227 7.70377 10.5227 6.87497C10.5227 6.04617 10.1934 5.25131 9.60738 4.66526C9.02133 4.07921 8.22647 3.74997 7.39767 3.74997C6.56887 3.74997 5.77401 4.07921 5.18796 4.66526C4.60191 5.25131 4.27267 6.04617 4.27267 6.87497C4.27267 7.70377 4.60191 8.49863 5.18796 9.08468C5.77401 9.67073 6.56887 9.99997 7.39767 9.99997C8.22647 9.99997 9.02133 9.67073 9.60738 9.08468ZM13.5227 16.2575C13.6602 16.935 13.0877 17.5 12.3977 17.5H2.39767C1.70767 17.5 1.13392 16.935 1.27017 16.2575C1.55833 14.8453 2.32549 13.5761 3.44184 12.6646C4.55819 11.753 5.95518 11.2551 7.39642 11.2551C8.83766 11.2551 10.2346 11.753 11.351 12.6646C12.4673 13.5761 13.2345 14.8453 13.5227 16.2575Z" fill="#A5A3AD"/>
</svg>
