<svg width="21" height="20" viewBox="0 0 21 20" fill="none" xmlns="http://www.w3.org/2000/svg">
<path fill-rule="evenodd" clip-rule="evenodd" d="M10.5 18.75C12.8206 18.75 15.0462 17.8281 16.6872 16.1872C18.3281 14.5462 19.25 12.3206 19.25 10C19.25 7.67936 18.3281 5.45376 16.6872 3.81282C15.0462 2.17187 12.8206 1.25 10.5 1.25C8.17936 1.25 5.95376 2.17187 4.31282 3.81282C2.67187 5.45376 1.75 7.67936 1.75 10C1.75 12.3206 2.67187 14.5462 4.31282 16.1872C5.95376 17.8281 8.17936 18.75 10.5 18.75ZM15.305 7.76125C15.4572 7.56433 15.5249 7.31502 15.4932 7.06818C15.4616 6.82133 15.3332 6.59717 15.1362 6.445C14.9393 6.29283 14.69 6.22512 14.4432 6.25677C14.1963 6.28842 13.9722 6.41683 13.82 6.61375L9.195 12.6013L7.13375 10.31C7.05218 10.2156 6.95259 10.1384 6.84081 10.083C6.72902 10.0276 6.6073 9.99501 6.48278 9.98723C6.35825 9.97945 6.23343 9.99661 6.11562 10.0377C5.99781 10.0788 5.88939 10.143 5.79671 10.2265C5.70403 10.31 5.62895 10.4112 5.57588 10.5241C5.52281 10.6371 5.49282 10.7594 5.48765 10.8841C5.48249 11.0088 5.50226 11.1332 5.5458 11.2501C5.58935 11.367 5.6558 11.4741 5.74125 11.565L8.55375 14.69C8.64561 14.7919 8.75871 14.8724 8.88507 14.9258C9.01143 14.9792 9.14797 15.0042 9.28506 14.9991C9.42215 14.9939 9.55644 14.9588 9.67846 14.8961C9.80048 14.8334 9.90725 14.7447 9.99125 14.6362L15.305 7.76125Z" fill="#B9B7C0"/>
</svg>
