<svg width="20" height="20" viewBox="0 0 20 20" fill="none" xmlns="http://www.w3.org/2000/svg">
    <rect x="0.5" y="0.5" width="19" height="19" rx="9.5" stroke="white" stroke-opacity="0.12"
        stroke-dasharray="4 4" />
    <path fill-rule="evenodd" clip-rule="evenodd"
        d="M7.75005 7C7.75005 6.40326 7.9871 5.83097 8.40906 5.40901C8.83101 4.98705 9.40331 4.75 10 4.75C10.5968 4.75 11.1691 4.98705 11.591 5.40901C12.013 5.83097 12.25 6.40326 12.25 7C12.25 7.59674 12.013 8.16903 11.591 8.59099C11.1691 9.01295 10.5968 9.25 10 9.25C9.40331 9.25 8.83101 9.01295 8.40906 8.59099C7.9871 8.16903 7.75005 7.59674 7.75005 7ZM5.87555 14.0525C5.89241 12.9697 6.33437 11.937 7.10603 11.1773C7.87769 10.4176 8.91715 9.99172 10 9.99172C11.0829 9.99172 12.1224 10.4176 12.8941 11.1773C13.6657 11.937 14.1077 12.9697 14.1245 14.0525C14.1258 14.1254 14.1059 14.1971 14.0671 14.2588C14.0283 14.3205 13.9723 14.3696 13.906 14.4C12.6806 14.9619 11.3481 15.2518 10 15.25C8.60705 15.25 7.28355 14.946 6.09405 14.4C6.02779 14.3696 5.97184 14.3205 5.93303 14.2588C5.89422 14.1971 5.87425 14.1254 5.87555 14.0525Z"
        fill="white" fill-opacity="0.12" />
</svg>
