<svg width="8384" height="1664" viewBox="0 0 8384 1664" fill="none" xmlns="http://www.w3.org/2000/svg">
<path d="M5865.33 242.667C6030.37 232.558 6139.15 272.512 6199.89 423.042C6272.91 604.443 6339.3 788.454 6411.83 970.059C6412.16 969.226 6552.96 614.113 6607.41 449.674C6663.85 282.389 6757.3 243.503 6934.59 243.783C6798.58 595.452 6667.55 1020.87 6537.95 1303C6408.35 1585.13 6198.73 1663.98 5996.8 1663.98H5844.88L5866.7 1437.09C5866.7 1437.09 6117.89 1460.84 6231.94 1319.06C6318.12 1211.91 6204.95 1047.99 6133.75 853.593C6062.67 659.513 5865.96 244.013 5865.33 242.667ZM0.113281 995.55C1.97801 995.207 587.65 887.519 831.988 1203.88C1069.95 891.711 1663.31 995.45 1663.89 995.55L1636.94 1167.79C1636.26 1167.63 983.361 1024.68 932.955 1439.19H731.234C680.829 1025.71 27.735 1167.64 27.052 1167.79L0.113281 995.55ZM2332.98 279.426C2426.83 234.524 2521.51 239.516 2621.65 239.515V470.38C2546.04 470.873 2475.49 466.504 2429.77 492.9C2395.16 521.948 2383.24 554.038 2383.24 610.869C2383.24 800.925 2381.68 1189.52 2381.68 1190.64H2154.64C2154.64 1189.53 2154.79 814.014 2154.24 626.117C2153.91 478.406 2197.64 343.598 2332.98 279.426ZM8381.91 1184.98H7123.25V1121.95H8381.91V1184.98ZM3183.4 239.515C3444.51 239.515 3656.18 451.163 3656.18 712.242C3656.18 973.323 3444.51 1184.97 3183.4 1184.97C2922.29 1184.97 2710.61 973.321 2710.61 712.242C2710.62 451.165 2922.29 239.517 3183.4 239.515ZM4229.82 239.515C4490.93 239.515 4702.6 451.163 4702.6 712.242C4702.6 973.323 4490.93 1184.97 4229.82 1184.97C3968.71 1184.97 3757.04 973.321 3757.04 712.242C3757.04 451.165 3968.71 239.517 4229.82 239.515ZM5017.79 0C5017.79 87.5356 5018.69 149.327 5018.69 239.515C5077.29 239.515 5196.67 239.121 5257.04 239.121C5257.04 307.769 5257.33 395.696 5257.33 466.424H5018.99C5019.15 583.124 5017.79 639.664 5017.79 756.364C5017.79 939.151 5099.75 958.06 5257.47 958.061C5257.47 958.061 5257.46 1115.74 5257.46 1184.97C4929.54 1184.97 4790.5 1118.95 4790.86 812.951V0H5017.79ZM5614.08 0C5614.08 0.0333321 5613.54 495.075 5614.08 740.056C5614.08 976.969 5714.95 958.061 5975.98 958.061V1184.97C5569.96 1184.97 5387.14 1178.66 5387.14 812.951V0H5614.08ZM8273.11 264.85C8291.75 259.969 8309.02 256.122 8328.5 257.595C8327.83 263.907 8326.61 269.892 8325.05 276.037C8324.81 277.028 8324.55 278.012 8324.3 279.024C8323.47 282.336 8322.63 285.651 8321.81 288.963C8321.21 291.356 8320.61 293.757 8320.01 296.16C8318.53 302.054 8317.06 307.961 8315.57 313.855C8313.8 320.921 8312.03 328.004 8310.26 335.07C8306.98 348.126 8303.7 361.187 8300.42 374.242C8297.18 387.182 8293.94 400.139 8290.69 413.078C8290.49 413.892 8290.28 414.7 8290.08 415.524C8289.06 419.621 8288.02 423.724 8287 427.81C8279.73 456.828 8272.45 485.852 8265.17 514.871C8258.12 542.979 8251.07 571.09 8244.02 599.198C8243.81 600.054 8243.59 600.929 8243.37 601.816C8241.19 610.502 8239.01 619.18 8236.83 627.866C8232.38 645.636 8227.93 663.411 8223.47 681.17C8223.16 682.401 8223.17 682.412 8222.85 683.665C8216.6 708.628 8210.32 733.592 8204.07 758.555C8203.87 759.317 8203.69 760.087 8203.49 760.869C8200.03 774.644 8196.58 788.433 8193.12 802.208C8192.8 803.535 8192.46 804.872 8192.11 806.23C8191.46 808.831 8190.81 811.434 8190.15 814.035C8188.63 820.107 8187.1 826.196 8185.59 832.279C8180.98 850.664 8180.97 850.667 8178.74 859.469C8177.95 862.603 8177.16 865.741 8176.36 868.874C8175.86 870.87 8175.35 872.87 8174.83 874.866C8168.44 897.725 8168.45 897.735 8172.47 920.324C8176.05 924.69 8179.97 926.29 8185.44 926.98C8207.66 928.045 8226.71 912.338 8242.27 898.247C8243.82 896.817 8245.37 895.38 8246.91 893.939C8249.9 891.139 8252.95 888.417 8256.01 885.691C8259.96 882.127 8263.54 878.444 8266.96 874.39C8269.03 872.008 8271.24 869.809 8273.49 867.594C8277.74 863.403 8281.68 859.056 8285.54 854.52C8286.98 852.85 8288.41 851.184 8289.84 849.514C8290.9 848.272 8291.97 847.038 8293.03 845.796C8295.97 842.368 8298.94 838.936 8301.92 835.529C8302.53 834.821 8303.16 834.108 8303.8 833.379C8305 831.99 8306.22 830.604 8307.43 829.226C8310.42 825.894 8310.42 825.887 8312.78 822.119C8317.76 823.729 8321.28 826.52 8325.29 829.759C8325.9 830.26 8326.54 830.75 8327.17 831.261C8331.15 834.428 8335.07 837.677 8338.97 840.938C8335.54 847.406 8331.74 853.358 8327.38 859.231C8326.16 860.891 8324.94 862.545 8323.73 864.205C8323.12 865.04 8322.51 865.868 8321.88 866.724C8319.72 869.691 8317.62 872.694 8315.53 875.703C8308.9 885.194 8301.91 894.398 8294.85 903.566C8291.78 907.557 8288.77 911.586 8285.77 915.63C8280.33 922.987 8274.58 929.991 8268.56 936.878C8266 939.804 8263.55 942.822 8261.12 945.873C8246.74 963.497 8230.22 980.683 8212.21 994.607C8211.11 995.505 8210.01 996.423 8208.91 997.331C8176.59 1023.78 8138.32 1037.36 8096.35 1034.12C8073.03 1031.61 8051.56 1021.45 8036.11 1003.55C8009.49 969.107 8010.53 924.134 8015.77 883.04C8016.34 878.893 8016.94 874.742 8017.57 870.606C8017.75 869.384 8017.92 868.152 8018.11 866.888C8023.36 833.887 8032.66 801.385 8040.81 769.011C8042.13 763.774 8043.45 758.531 8044.76 753.294C8052.74 721.506 8060.77 689.736 8068.87 657.969C8074.84 634.501 8080.74 611.011 8086.61 587.511C8093 561.974 8099.45 536.445 8105.94 510.939C8115.36 473.964 8124.62 436.962 8133.87 399.955C8134.84 396.057 8135.82 392.166 8136.79 388.268C8136.01 387.841 8135.21 387.412 8134.41 386.963C8118.49 378.215 8102.58 369.429 8086.72 360.545C8082.72 358.298 8078.7 356.071 8074.68 353.856C8072.84 352.833 8070.98 351.802 8069.13 350.778C8066.8 349.483 8064.44 348.198 8062.1 346.913C8061.06 346.339 8060.01 345.759 8058.94 345.165C8058.02 344.654 8057.09 344.143 8056.14 343.622C8054.04 342.275 8054.03 342.267 8052.99 340.183C8053.45 337.936 8053.45 337.925 8054.26 335.169C8054.55 334.188 8054.83 333.201 8055.12 332.189C8055.43 331.157 8055.74 330.132 8056.06 329.079C8056.37 328.035 8056.68 326.993 8056.99 325.927C8057.74 323.359 8058.51 320.787 8059.27 318.229C8079.32 313.254 8099.37 308.284 8119.42 303.309C8127.84 301.219 8136.26 299.137 8144.68 297.047C8147.38 296.378 8150.09 295.707 8152.79 295.028C8156.39 294.14 8160 293.24 8163.6 292.352C8172.67 290.106 8181.73 287.859 8190.8 285.622C8194.45 284.724 8198.1 283.823 8201.76 282.914C8202.66 282.695 8203.57 282.471 8204.5 282.241C8216.58 279.252 8228.67 276.208 8240.72 273.115C8247.17 271.453 8253.63 269.821 8260.09 268.191C8264.42 267.083 8268.78 265.979 8273.11 264.85ZM7895.69 249.183C7902.06 245.173 7911.13 246.604 7918.38 246.803C7920.06 246.824 7921.74 246.856 7923.42 246.877C7927.5 246.929 7931.59 247.019 7935.67 247.123C7934.11 256.77 7931.11 265.972 7928.19 275.273C7927.64 277.018 7927.09 278.779 7926.54 280.534C7925.38 284.276 7924.21 288.022 7923.04 291.753C7921.17 297.721 7919.32 303.702 7917.46 309.669C7907.16 342.9 7907.15 342.905 7901.97 359.035C7885.96 408.837 7873.64 459.46 7861.41 510.307C7857.43 526.887 7853.4 543.459 7849.32 560.018C7849.05 561.125 7848.77 562.236 7848.49 563.374C7847.39 567.816 7846.31 572.261 7845.22 576.703C7842.49 587.72 7839.78 598.741 7837.08 609.769C7836.28 613.04 7835.47 616.328 7834.66 619.609C7831.21 633.668 7827.76 647.719 7824.31 661.777C7823.52 664.996 7822.73 668.218 7821.95 671.437C7819.34 682.047 7816.74 692.662 7814.13 703.272C7813.11 707.484 7812.07 711.7 7811.03 715.911C7810.78 716.955 7810.53 718.004 7810.26 719.079C7806.73 733.483 7803.17 747.893 7799.61 762.297C7797.62 770.355 7795.63 778.426 7793.65 786.484C7792.3 791.929 7790.95 797.379 7789.6 802.824C7784.21 824.536 7778.99 846.267 7774.27 868.136C7773.98 869.499 7773.98 869.504 7773.68 870.901C7766.67 896.009 7766.67 896.017 7771.2 920.374C7774.87 924.489 7778.5 926.292 7783.9 926.898C7807.13 927.637 7826.96 910.446 7843 895.572C7845.12 893.608 7847.29 891.73 7849.51 889.86C7858.62 881.958 7867.35 873.2 7875.13 863.991C7877.2 861.61 7879.35 859.307 7881.51 856.999C7886.81 851.335 7891.87 845.552 7896.73 839.501C7899.83 835.74 7903.1 832.161 7906.4 828.578C7908.25 826.498 7909.94 824.359 7911.58 822.102C7915.38 823.795 7918.48 826.128 7921.79 828.635C7922.9 829.48 7924.02 830.318 7925.13 831.163C7926.19 831.967 7927.25 832.776 7928.34 833.6C7929.99 834.843 7931.66 836.094 7933.31 837.326C7934.44 838.182 7935.59 839.034 7936.72 839.879C7936.26 845.373 7933.28 848.913 7930.1 853.207C7928.94 854.804 7927.79 856.403 7926.64 858C7926.05 858.804 7925.46 859.627 7924.85 860.462C7922.69 863.44 7920.57 866.448 7918.46 869.457C7907.82 884.625 7896.79 899.511 7885.39 914.104C7884.46 915.304 7883.52 916.506 7882.59 917.706C7877.37 924.395 7872.04 930.971 7866.52 937.42C7863.43 941.025 7860.41 944.702 7857.43 948.401C7854.02 952.601 7850.41 956.449 7846.51 960.211C7844.58 962.143 7842.78 964.155 7841.01 966.243C7834.76 973.455 7827.94 980.181 7820.66 986.359C7818.94 987.811 7817.24 989.311 7815.57 990.815C7781.81 1020.78 7741.95 1036.45 7696.82 1034.32C7677.5 1032.56 7659.35 1025.92 7644.45 1013.42C7643.61 1012.79 7642.77 1012.15 7641.9 1011.51C7623.3 995.866 7614.8 970.163 7612.16 946.768C7610.48 925.202 7612.54 903.977 7616.16 882.736C7616.36 881.546 7616.36 881.538 7616.57 880.34C7624.77 832.566 7637.02 785.971 7650.74 739.515C7651.27 737.707 7651.8 735.897 7652.34 734.09C7653.54 729.973 7654.76 725.863 7655.97 721.746C7655.36 722.984 7655.35 722.988 7654.72 724.249C7646.07 741.738 7637.27 759.094 7627.69 776.102C7626.75 777.771 7626.74 777.778 7625.79 779.491C7607.18 812.555 7587.11 844.661 7564.84 875.415C7564.26 876.209 7563.68 877.012 7563.1 877.836C7554.61 889.544 7545.82 900.92 7536.55 912.011C7536.04 912.626 7535.53 913.246 7534.99 913.882C7529.46 920.498 7523.83 927.023 7518.02 933.398C7516.49 935.079 7514.97 936.763 7513.46 938.454C7507.73 944.892 7501.75 951.075 7495.64 957.158C7494.75 958.045 7493.87 958.941 7492.94 959.85C7487.75 965.033 7482.44 969.992 7476.84 974.737C7476.18 975.3 7475.52 975.861 7474.84 976.444C7432.17 1012.91 7382.47 1038.19 7325.12 1034.12C7290.35 1030.68 7257.99 1014.66 7235.08 988.115C7210.03 956.346 7197.12 919.262 7190.86 879.601C7190.6 878.024 7190.6 878.016 7190.34 876.4C7184.04 836.05 7185.76 792.518 7190.86 752.063C7190.97 751.249 7191.06 750.428 7191.17 749.593C7194.46 723.596 7199.29 698.064 7205.52 672.61C7205.96 670.803 7205.97 670.797 7206.42 668.95C7228.84 577.676 7273.68 490.273 7334.37 418.569C7334.91 417.933 7335.46 417.297 7336 416.64C7347.7 402.716 7360.17 389.622 7373.01 376.754C7373.93 375.836 7374.85 374.904 7375.79 373.955C7381.02 368.75 7386.38 363.772 7391.99 358.985C7393.12 357.995 7394.26 356.997 7395.39 356.006C7404.76 347.853 7414.49 340.257 7424.46 332.846C7425.22 332.283 7425.97 331.72 7426.74 331.147C7477.88 292.97 7538.67 265.49 7602.55 258.621C7603.45 258.527 7604.38 258.422 7605.32 258.318C7614.71 257.419 7624.09 257.371 7633.52 257.382H7636.05C7648.38 257.413 7660.55 257.624 7672.73 259.672C7673.57 259.807 7674.41 259.953 7675.28 260.098C7718.16 267.511 7752.01 286.861 7783.77 316.12C7793.45 310.622 7803.11 305.083 7812.72 299.46C7813.68 298.898 7813.69 298.89 7814.67 298.319C7825.46 292.005 7836.19 285.56 7846.86 279.049C7858.02 272.265 7869.25 265.603 7880.5 258.966C7881.18 258.57 7881.87 258.176 7882.55 257.759C7883.87 256.987 7885.2 256.207 7886.52 255.445C7889.77 253.544 7892.74 251.513 7895.69 249.183ZM3183.4 453.818C3040.66 453.82 2924.94 569.521 2924.94 712.242C2924.94 854.965 3040.66 970.665 3183.4 970.667C3326.14 970.667 3441.85 854.966 3441.85 712.242C3441.85 569.52 3326.14 453.818 3183.4 453.818ZM4229.82 453.818C4087.08 453.82 3971.37 569.521 3971.37 712.242C3971.37 854.965 4087.08 970.665 4229.82 970.667C4372.56 970.667 4488.28 854.966 4488.28 712.242C4488.27 569.52 4372.56 453.818 4229.82 453.818ZM832.095 554.667C832.095 554.667 945.561 674.425 945.562 800.485C945.562 876.121 894.761 945.455 832.095 945.455C769.428 945.455 718.627 876.121 718.627 800.485C718.628 674.425 832.095 554.667 832.095 554.667ZM7673.95 305.664C7640.48 297.376 7605.67 305.378 7575.31 320.306C7574.63 320.639 7573.95 320.964 7573.25 321.307C7539.12 338.054 7507.17 366.698 7484.18 396.615C7483.24 397.764 7482.29 398.924 7481.35 400.062C7456.48 430.252 7436.86 464.282 7419.23 499.072C7418.73 500.064 7418.21 501.069 7417.69 502.092C7407.87 521.492 7399.78 541.513 7391.99 561.79C7391.51 563.044 7391.03 564.304 7390.52 565.599C7367.83 625.071 7354.77 687.871 7347.99 751.013C7347.85 752.276 7347.72 753.534 7347.57 754.829C7345.73 772.265 7345.66 789.763 7345.57 807.272C7345.56 808.398 7345.56 809.52 7345.54 810.678C7345.34 838.118 7347.2 867.553 7360.57 892.15C7361.08 893.087 7361.58 894.029 7362.1 894.997C7369.97 908.805 7380.64 918.201 7396.18 922.467C7423.82 927.994 7451.07 915.937 7473.64 900.948C7479.49 896.924 7485 892.509 7490.46 887.964C7491.04 887.495 7491.63 887.01 7492.22 886.52C7506.02 875.283 7518.66 862.747 7530.27 849.284C7531.24 848.188 7532.21 847.098 7533.18 846.001C7542.25 835.705 7550.42 824.788 7558.55 813.739C7559.16 812.925 7559.77 812.098 7560.4 811.253C7568.6 800.152 7576.33 788.827 7583.69 777.152C7584.46 775.941 7584.46 775.936 7585.24 774.706C7601.11 749.733 7615.4 723.976 7628.78 697.601C7629.8 695.565 7630.85 693.537 7631.88 691.511C7673.77 609.562 7705.22 522.255 7736.63 414.391C7737.06 412.887 7737.06 412.88 7737.51 411.347C7739.1 405.818 7740.68 400.275 7742.23 394.735C7742.68 393.096 7743.14 391.449 7743.61 389.819C7744.25 387.585 7744.87 385.348 7745.47 383.114C7745.82 381.882 7746.17 380.635 7746.51 379.372C7747.42 373.833 7747.09 368.337 7744.27 363.352C7743.72 362.361 7743.71 362.356 7743.15 361.357C7742.75 360.679 7742.35 360.004 7741.93 359.306C7741.52 358.587 7741.1 357.862 7740.67 357.122C7725.42 331.491 7702.95 313.338 7673.95 305.664ZM96.615 656.738C97.0518 656.523 244.784 583.86 365.034 621.111C437.288 643.495 488.482 712.533 469.94 772.384C451.395 832.235 370.131 860.242 297.876 837.86C177.545 800.582 96.7444 656.968 96.615 656.738ZM1298.38 621.111C1418.62 583.865 1566.33 656.508 1566.79 656.738C1566.44 657.36 1485.71 800.633 1365.54 837.86C1293.29 860.244 1212.01 832.236 1193.47 772.384C1174.93 712.533 1226.13 643.495 1298.38 621.111ZM300.387 303.76C300.899 303.661 462.493 272.331 568.74 339.822C632.588 380.381 663.877 460.431 630.276 513.319C596.671 566.208 510.897 571.902 447.048 531.342C340.636 463.742 300.387 303.76 300.387 303.76ZM1090.87 339.822C1197.12 272.331 1358.71 303.661 1359.22 303.76C1359.22 303.76 1318.97 463.742 1212.56 531.342C1148.71 571.902 1062.94 566.208 1029.33 513.319C995.732 460.431 1027.02 380.381 1090.87 339.822ZM832.095 6.30303C832.095 6.30303 945.561 126.062 945.562 252.121C945.562 327.758 894.761 397.091 832.095 397.091C769.428 397.091 718.627 327.758 718.627 252.121C718.628 126.062 832.095 6.30303 832.095 6.30303ZM8209.18 26.0492C8245.61 -5.64986 8303.7 -9.69768 8342.1 21.0183C8359.38 35.7152 8370.2 53.7783 8374.83 75.9729C8375.07 77.0807 8375.07 77.0876 8375.31 78.2216C8375.65 80.275 8375.8 82.2562 8375.88 84.3359C8375.93 85.5194 8375.98 86.7105 8376.04 87.9306C8376.92 116.963 8366.61 143.137 8346.92 164.388C8329.67 182.535 8304.71 194.635 8279.52 195.394C8265.64 195.618 8252.93 195.353 8239.7 190.97C8239.02 190.747 8238.33 190.518 8237.63 190.289C8223.34 185.443 8211.69 177.464 8200.94 166.924C8200.21 166.208 8199.47 165.485 8198.72 164.749C8182.76 148.012 8175.18 124.402 8175.43 101.579C8176.4 72.2215 8187.94 46.3347 8209.18 26.0492Z" fill="#FDFDFF"/>
</svg>
