<svg width="114" height="40" viewBox="0 0 114 40" fill="none" xmlns="http://www.w3.org/2000/svg">
<path d="M0.339233 15.1132C0.339233 12.692 1.21173 10.6199 2.95672 8.9185C4.70171 7.21714 6.79569 6.36646 9.23867 6.36646H12.7723V11.4924H9.93667C8.67155 11.4924 7.64637 11.885 6.88294 12.6484C6.11951 13.4118 5.7487 14.437 5.7487 15.724V29.6839H0.339233V15.1132Z" fill="white"/>
<path d="M25.3554 6.17017C28.649 6.17017 31.441 7.32622 33.7313 9.61652C36.0216 11.9068 37.1777 14.7424 37.1777 18.1015C37.1777 21.4824 36.0216 24.3399 33.7313 26.652C31.441 28.9641 28.6054 30.1201 25.2463 30.1201C22.0181 30.1201 19.2479 28.9423 16.9358 26.6083C14.6237 24.2744 13.4677 21.4388 13.4677 18.1015C13.4677 14.7424 14.6237 11.9286 16.914 9.61652C19.2261 7.32622 22.0399 6.17017 25.3554 6.17017ZM19.0298 18.2324C19.0298 19.9992 19.6624 21.5479 20.9057 22.9002C22.1708 24.2308 23.654 24.907 25.3554 24.907C26.9913 24.907 28.4527 24.2308 29.7397 22.9002C31.0048 21.5697 31.6592 19.9774 31.6592 18.1451C31.6592 16.3347 31.0266 14.786 29.8051 13.4337C28.5836 12.0813 27.0786 11.4269 25.3772 11.4269C23.6322 11.4269 22.149 12.1031 20.9057 13.4337C19.6624 14.7642 19.0298 16.3783 19.0298 18.2324Z" fill="white"/>
<path d="M50.8539 6.17017C54.1476 6.17017 56.9396 7.32622 59.2299 9.61652C61.5202 11.9068 62.6762 14.7424 62.6762 18.1015C62.6762 21.4824 61.5202 24.3399 59.2299 26.652C56.9396 28.9641 54.104 30.1201 50.7449 30.1201C47.5166 30.1201 44.7465 28.9423 42.4344 26.6083C40.1222 24.2744 38.9662 21.4388 38.9662 18.1015C38.9662 14.7424 40.1222 11.9286 42.4125 9.61652C44.7028 7.32622 47.5166 6.17017 50.8539 6.17017ZM44.5065 18.2324C44.5065 19.9992 45.1391 21.5479 46.4042 22.9002C47.6693 24.2308 49.1526 24.907 50.8539 24.907C52.4898 24.907 53.9513 24.2308 55.2382 22.9002C56.5033 21.5697 57.1577 19.9774 57.1577 18.1451C57.1577 16.3347 56.5251 14.786 55.3036 13.4337C54.0603 12.1031 52.5771 11.4269 50.8757 11.4269C49.1307 11.4269 47.6475 12.1031 46.4042 13.4337C45.1609 14.7642 44.5065 16.3783 44.5065 18.2324Z" fill="white"/>
<path d="M84.3632 21.0899C84.3632 22.1805 84.6904 23.0748 85.3666 23.751C86.0427 24.449 86.937 24.7762 88.0713 24.798H88.5948V29.684H87.526C87.3989 29.6829 87.2729 29.6797 87.1481 29.6746C84.8088 29.5784 82.8647 28.7755 81.3531 27.2846C79.739 25.6923 78.9537 23.5983 78.9755 21.0027V0.302734H84.3632V21.0899Z" fill="white"/>
<path d="M88.4158 6.323C88.852 7.54449 89.3101 8.46061 89.6591 9.31129C91.9494 15.1352 94.3487 20.3047 96.639 26.1286C98.6458 31.1891 97.0316 32.4542 91.6004 33.8284L89.7245 39.9795C95.3085 40.2848 102.419 37.1657 104.775 31.669C107.262 23.5329 110.228 14.4808 113.5 6.34481H111.188C107.153 6.34481 106.28 9.94385 106.28 9.94385C104.906 14.3936 103.074 18.7124 101.22 23.642C100.696 22.3769 100.391 21.7007 100.151 21.0245C98.5585 16.7493 97.5552 13.8483 95.8538 9.61666C95.8538 9.61666 94.9377 6.34481 91.2296 6.34481H88.4158V6.323Z" fill="white"/>
<path fill-rule="evenodd" clip-rule="evenodd" d="M71.7234 23.751C71.0472 23.0748 70.72 22.1805 70.72 21.0899V11.8182H75.1515V6.82727H70.72V0.302734H65.3324V21.0027C65.3105 23.5983 66.0958 25.6923 67.7099 27.2846C69.2215 28.7755 71.1656 29.5784 73.5049 29.6746C73.6297 29.6797 73.7557 29.6829 73.8828 29.684H74.9516V24.798H74.4281C73.2939 24.7762 72.3996 24.449 71.7234 23.751Z" fill="white"/>
</svg>
