<svg width="16" height="16" viewBox="0 0 16 16" fill="none" xmlns="http://www.w3.org/2000/svg">
<path d="M13.4004 5.96973C13.4003 5.34294 13.0543 4.7783 12.5205 4.50488L12.4912 4.48926L8.69141 2.26465C8.25459 2.04514 7.74435 2.04488 7.30762 2.26465L3.50879 4.48926L3.47949 4.50488C2.94571 4.7783 2.59972 5.34295 2.59961 5.96973V10.0303C2.59972 10.6179 2.90397 11.1508 3.38184 11.4404L3.47949 11.4951L3.50879 11.5107L7.30762 13.7344C7.74457 13.9544 8.25437 13.9541 8.69141 13.7344L12.4912 11.5107L12.5205 11.4951C13.0543 11.2217 13.4003 10.6571 13.4004 10.0303V5.96973ZM14.5996 10.0303C14.5995 11.0852 14.0237 12.0579 13.0967 12.5469L9.2793 14.7822L9.26465 14.79L9.24902 14.7979C8.46309 15.2004 7.5369 15.2004 6.75098 14.7979L6.73535 14.79L6.7207 14.7822L2.90332 12.5469C1.97677 12.0578 1.4005 11.0849 1.40039 10.0303V5.96973C1.4005 4.91175 1.97937 3.93577 2.91113 3.44824L6.7207 1.21777L6.73535 1.20996L6.75098 1.20215C7.5369 0.799642 8.4631 0.799643 9.24902 1.20215L9.26465 1.20996L9.2793 1.21777L13.0879 3.44824C14.0201 3.93563 14.5995 4.91146 14.5996 5.96973V10.0303Z" fill="#A5A3AD"/>
<path d="M8.00009 4C8.21708 4 8.42519 4.0883 8.57863 4.24548C8.73207 4.40266 8.81827 4.61585 8.81827 4.83813V7.07315C8.81827 7.29544 8.73207 7.50862 8.57863 7.6658C8.42519 7.82298 8.21708 7.91128 8.00009 7.91128C7.78309 7.91128 7.57499 7.82298 7.42155 7.6658C7.26811 7.50862 7.18191 7.29544 7.18191 7.07315V4.83813C7.18191 4.61585 7.26811 4.40266 7.42155 4.24548C7.57499 4.0883 7.78309 4 8.00009 4Z" fill="#A5A3AD"/>
<path d="M8.00009 11.8226C8.28942 11.8226 8.56689 11.7048 8.77148 11.4953C8.97606 11.2857 9.091 11.0014 9.091 10.7051C9.091 10.4087 8.97606 10.1244 8.77148 9.91486C8.56689 9.70528 8.28942 9.58754 8.00009 9.58754C7.71076 9.58754 7.43328 9.70528 7.2287 9.91486C7.02411 10.1244 6.90918 10.4087 6.90918 10.7051C6.90918 11.0014 7.02411 11.2857 7.2287 11.4953C7.43328 11.7048 7.71076 11.8226 8.00009 11.8226Z" fill="#A5A3AD"/>
</svg>
