<svg width="16" height="16" viewBox="0 0 16 16" fill="none" xmlns="http://www.w3.org/2000/svg">
<path fill-rule="evenodd" clip-rule="evenodd" d="M14.2172 7.21041C13.0285 7.05741 11.9107 6.56447 10.9972 5.79272C10.9507 5.7534 10.9047 5.71336 10.8592 5.6726L10.8584 5.6719C10.763 5.58655 10.6395 5.53937 10.5114 5.53937C10.3834 5.53937 10.2599 5.58655 10.1645 5.6719C9.22643 6.51281 8.05517 7.04978 6.80568 7.21041C6.68312 7.22615 6.57015 7.285 6.487 7.37643C6.40385 7.46783 6.35594 7.58586 6.35184 7.70937C6.30491 9.08397 6.64802 10.4438 7.3415 11.6315C8.03498 12.8193 9.05049 13.7865 10.2706 14.4213C10.3449 14.4602 10.4275 14.4806 10.5113 14.4807C10.5952 14.4809 10.6778 14.4607 10.7522 14.422C11.9724 13.7872 12.9879 12.82 13.6814 11.6322C14.3748 10.4445 14.7179 9.08466 14.671 7.71007C14.6671 7.58643 14.6192 7.46826 14.5361 7.37668C14.4529 7.28513 14.3399 7.22617 14.2172 7.21041ZM10.5121 13.6059C11.5286 13.0438 12.3755 12.2172 12.9622 11.2123C13.533 10.2347 13.8358 9.12555 13.8424 7.99653C12.6174 7.79067 11.4683 7.26483 10.5118 6.47237C9.55508 7.26497 8.40576 7.79084 7.18046 7.99657C7.1872 9.12533 7.49 10.2343 8.06065 11.2117C8.64759 12.2169 9.49497 13.0438 10.5121 13.6059Z" fill="#A5A3AD"/>
<path d="M10.8794 8.10813C10.7818 8.01052 10.6494 7.95569 10.5113 7.95569C10.3733 7.95569 10.2409 8.01052 10.1433 8.10813C10.0457 8.20574 9.99088 8.33812 9.99088 8.47616V9.86408C9.99088 10.0021 10.0457 10.1345 10.1433 10.2321C10.2409 10.3297 10.3733 10.3845 10.5113 10.3845C10.6494 10.3845 10.7818 10.3297 10.8794 10.2321C10.977 10.1345 11.0318 10.0021 11.0318 9.86408V8.47616C11.0318 8.33812 10.977 8.20574 10.8794 8.10813Z" fill="#A5A3AD"/>
<path d="M11.0021 12.6101C10.8719 12.7403 10.6954 12.8134 10.5113 12.8134C10.3273 12.8134 10.1508 12.7403 10.0206 12.6101C9.8905 12.48 9.81739 12.3035 9.81739 12.1194C9.81739 11.9354 9.8905 11.7589 10.0206 11.6287C10.1508 11.4986 10.3273 11.4255 10.5113 11.4255C10.6954 11.4255 10.8719 11.4986 11.0021 11.6287C11.1322 11.7589 11.2053 11.9354 11.2053 12.1194C11.2053 12.3035 11.1322 12.48 11.0021 12.6101Z" fill="#A5A3AD"/>
<path d="M9.19429 3.19027C8.00563 3.03727 6.88782 2.54433 5.97432 1.77258C5.92778 1.73326 5.88177 1.69321 5.83631 1.65246L5.83553 1.65176C5.7401 1.56641 5.61657 1.51923 5.48855 1.51923C5.36051 1.51923 5.23698 1.56641 5.14157 1.65176C4.20354 2.49267 3.03228 3.02964 1.78279 3.19027C1.66023 3.20601 1.54726 3.26486 1.46411 3.35629C1.38096 3.44769 1.33305 3.56572 1.32895 3.68923C1.28202 5.06382 1.62514 6.42362 2.31861 7.61138C3.01209 8.79915 4.02761 9.76637 5.24774 10.4012C5.32202 10.4401 5.40461 10.4605 5.48846 10.4606C5.54739 10.4607 5.60572 10.4508 5.66102 10.4314C5.55941 10.1373 5.47253 9.83845 5.40066 9.53597C4.4229 8.97533 3.60759 8.16749 3.03776 7.19151C2.46711 6.21411 2.16432 5.10519 2.15757 3.97643C3.38287 3.7707 4.53219 3.24483 5.48893 2.45223C6.44545 3.24469 7.59449 3.77053 8.81951 3.97639C8.81661 4.47109 8.75685 4.96199 8.64259 5.43967C8.9757 5.25238 9.29588 5.041 9.60046 4.80675C9.64476 4.43769 9.66091 4.06436 9.64813 3.68992C9.64419 3.56629 9.59635 3.44811 9.51318 3.35654C9.43002 3.26499 9.31697 3.20603 9.19429 3.19027Z" fill="#A5A3AD"/>
<path d="M5.14731 7.49499C5.09301 7.52564 5.04263 7.56373 4.99776 7.6086C4.86761 7.73874 4.7945 7.91525 4.7945 8.0993C4.7945 8.28335 4.86761 8.45986 4.99776 8.59001C5.06959 8.66184 5.15555 8.7163 5.2491 8.75068C5.18726 8.33601 5.1531 7.91653 5.14731 7.49499Z" fill="#A5A3AD"/>
<path d="M5.85649 4.08799C5.75888 3.99038 5.6265 3.93555 5.48846 3.93555C5.35042 3.93555 5.21804 3.99038 5.12043 4.08799C5.02282 4.1856 4.96799 4.31798 4.96799 4.45602V5.84394C4.96799 5.98197 5.02282 6.11436 5.12043 6.21196C5.21804 6.30957 5.35042 6.36441 5.48846 6.36441C5.6265 6.36441 5.75888 6.30957 5.85649 6.21196C5.95409 6.11436 6.00893 5.98197 6.00893 5.84394V4.45602C6.00893 4.31798 5.95409 4.1856 5.85649 4.08799Z" fill="#A5A3AD"/>
</svg>
