<svg width="20" height="20" viewBox="0 0 20 20" fill="none" xmlns="http://www.w3.org/2000/svg">
<path d="M2.5 4.375C2.5 3.33947 3.33947 2.5 4.375 2.5H13.125C14.1605 2.5 15 3.33947 15 4.375V6.875C15 7.91053 14.1605 8.75 13.125 8.75H4.375C3.33947 8.75 2.5 7.91053 2.5 6.875V4.375Z" fill="#09080F"/>
<path d="M5 13.125C5 12.0895 5.83947 11.25 6.875 11.25H15.625C16.6605 11.25 17.5 12.0895 17.5 13.125V15.625C17.5 16.6605 16.6605 17.5 15.625 17.5H6.875C5.83947 17.5 5 16.6605 5 15.625V13.125Z" fill="#09080F"/>
</svg>
