<svg width="20" height="20" viewBox="0 0 20 20" fill="none" xmlns="http://www.w3.org/2000/svg">
<path fill-rule="evenodd" clip-rule="evenodd" d="M18.0303 13.2197C18.3232 13.5126 18.3232 13.9874 18.0303 14.2803L14.2803 18.0303C13.9874 18.3232 13.5126 18.3232 13.2197 18.0303L9.46967 14.2803C9.17678 13.9874 9.17678 13.5126 9.46967 13.2197C9.76256 12.9268 10.2374 12.9268 10.5303 13.2197L13 15.6893L13 6.25C13 5.83579 13.3358 5.5 13.75 5.5C14.1642 5.5 14.5 5.83579 14.5 6.25L14.5 15.6893L16.9697 13.2197C17.2626 12.9268 17.7374 12.9268 18.0303 13.2197ZM10.5303 6.78033C10.2374 7.07322 9.76256 7.07322 9.46967 6.78033L7 4.31066L7 13.75C7 14.1642 6.66421 14.5 6.25 14.5C5.83578 14.5 5.5 14.1642 5.5 13.75L5.5 4.31066L3.03033 6.78033C2.73744 7.07322 2.26256 7.07322 1.96967 6.78033C1.67678 6.48744 1.67678 6.01256 1.96967 5.71967L5.71967 1.96967C6.01256 1.67678 6.48744 1.67678 6.78033 1.96967L10.5303 5.71967C10.8232 6.01256 10.8232 6.48744 10.5303 6.78033Z" fill="#A5A3AD"/>
</svg>
