<svg width="16" height="16" viewBox="0 0 16 16" fill="none" xmlns="http://www.w3.org/2000/svg">
<path fill-rule="evenodd" clip-rule="evenodd" d="M8 15C9.85652 15 11.637 14.2625 12.9497 12.9497C14.2625 11.637 15 9.85652 15 8C15 6.14348 14.2625 4.36301 12.9497 3.05025C11.637 1.7375 9.85652 1 8 1C6.14348 1 4.36301 1.7375 3.05025 3.05025C1.7375 4.36301 1 6.14348 1 8C1 9.85652 1.7375 11.637 3.05025 12.9497C4.36301 14.2625 6.14348 15 8 15ZM11.844 6.209C11.9657 6.05146 12.0199 5.85202 11.9946 5.65454C11.9693 5.45706 11.8665 5.27773 11.709 5.156C11.5515 5.03427 11.352 4.9801 11.1545 5.00542C10.9571 5.03073 10.7777 5.13346 10.656 5.291L6.956 10.081L5.307 8.248C5.24174 8.17247 5.16207 8.11073 5.07264 8.06639C4.98322 8.02205 4.88584 7.99601 4.78622 7.98978C4.6866 7.98356 4.58674 7.99729 4.4925 8.03016C4.39825 8.06303 4.31151 8.11438 4.23737 8.1812C4.16322 8.24803 4.10316 8.32898 4.06071 8.41931C4.01825 8.50965 3.99425 8.60755 3.99012 8.70728C3.98599 8.807 4.00181 8.90656 4.03664 9.00009C4.07148 9.09363 4.12464 9.17927 4.193 9.252L6.443 11.752C6.51649 11.8335 6.60697 11.8979 6.70806 11.9406C6.80915 11.9833 6.91838 12.0034 7.02805 11.9993C7.13772 11.9952 7.24515 11.967 7.34277 11.9169C7.44038 11.8667 7.5258 11.7958 7.593 11.709L11.844 6.209Z" fill="#1FAA36"/>
</svg>
