<svg width="20" height="20" viewBox="0 0 20 20" fill="none" xmlns="http://www.w3.org/2000/svg">
<path fill-rule="evenodd" clip-rule="evenodd" d="M6.87507 5.3125C6.87507 4.4837 7.20431 3.68884 7.79036 3.10279C8.37641 2.51674 9.17127 2.1875 10.0001 2.1875C10.8289 2.1875 11.6237 2.51674 12.2098 3.10279C12.7958 3.68884 13.1251 4.4837 13.1251 5.3125C13.1251 6.1413 12.7958 6.93616 12.2098 7.52221C11.6237 8.10826 10.8289 8.4375 10.0001 8.4375C9.17127 8.4375 8.37641 8.10826 7.79036 7.52221C7.20431 6.93616 6.87507 6.1413 6.87507 5.3125ZM13.1251 7.8125C13.1251 7.14946 13.3885 6.51357 13.8573 6.04473C14.3261 5.57589 14.962 5.3125 15.6251 5.3125C16.2881 5.3125 16.924 5.57589 17.3928 6.04473C17.8617 6.51357 18.1251 7.14946 18.1251 7.8125C18.1251 8.47554 17.8617 9.11143 17.3928 9.58027C16.924 10.0491 16.2881 10.3125 15.6251 10.3125C14.962 10.3125 14.3261 10.0491 13.8573 9.58027C13.3885 9.11143 13.1251 8.47554 13.1251 7.8125ZM1.87507 7.8125C1.87507 7.14946 2.13846 6.51357 2.6073 6.04473C3.07614 5.57589 3.71203 5.3125 4.37507 5.3125C5.03811 5.3125 5.67399 5.57589 6.14283 6.04473C6.61168 6.51357 6.87507 7.14946 6.87507 7.8125C6.87507 8.47554 6.61168 9.11143 6.14283 9.58027C5.67399 10.0491 5.03811 10.3125 4.37507 10.3125C3.71203 10.3125 3.07614 10.0491 2.6073 9.58027C2.13846 9.11143 1.87507 8.47554 1.87507 7.8125ZM5.2584 12.285C5.76669 11.4884 6.46763 10.8327 7.29642 10.3787C8.1252 9.92469 9.05508 9.68696 10.0001 9.6875C10.7916 9.68678 11.5743 9.85323 12.2971 10.176C13.0198 10.4987 13.6662 10.9704 14.194 11.5603C14.7218 12.1502 15.1191 12.8448 15.3598 13.5989C15.6005 14.3529 15.6793 15.1493 15.5909 15.9358C15.5801 16.0336 15.5464 16.1273 15.4925 16.2096C15.4387 16.2918 15.3662 16.3602 15.2809 16.4092C13.6739 17.3313 11.8529 17.8152 10.0001 17.8125C8.07923 17.8125 6.27507 17.3025 4.71923 16.4092C4.63398 16.3602 4.56147 16.2918 4.5076 16.2096C4.45374 16.1273 4.42004 16.0336 4.40923 15.9358C4.26928 14.658 4.56878 13.3698 5.2584 12.285Z" fill="#A5A3AD"/>
<path d="M4.23507 11.5658C3.4132 12.8345 3.03028 14.3378 3.14507 15.845C2.64466 15.7691 2.15249 15.6464 1.67507 15.4783L1.57923 15.445C1.49373 15.4147 1.41886 15.3602 1.36369 15.2881C1.30852 15.2161 1.27542 15.1296 1.2684 15.0392L1.26007 14.9383C1.2264 14.52 1.27736 14.0991 1.4099 13.7009C1.54244 13.3026 1.75385 12.9352 2.0315 12.6204C2.30916 12.3057 2.64737 12.0501 3.02597 11.8689C3.40456 11.6877 3.81577 11.5846 4.23507 11.5658ZM16.8551 15.845C16.9699 14.3378 16.5869 12.8345 15.7651 11.5658C16.1844 11.5846 16.5956 11.6877 16.9742 11.8689C17.3528 12.0501 17.691 12.3057 17.9686 12.6204C18.2463 12.9352 18.4577 13.3026 18.5902 13.7009C18.7228 14.0991 18.7737 14.52 18.7401 14.9383L18.7317 15.0392C18.7246 15.1295 18.6914 15.2158 18.6362 15.2876C18.5811 15.3595 18.5063 15.4139 18.4209 15.4442L18.3251 15.4775C17.8526 15.6442 17.3617 15.7683 16.8551 15.845Z" fill="#A5A3AD"/>
</svg>
