<svg width="20" height="20" viewBox="0 0 20 20" fill="none" xmlns="http://www.w3.org/2000/svg">
<path fill-rule="evenodd" clip-rule="evenodd" d="M10 1.875C5.5125 1.875 1.875 5.5125 1.875 10C1.875 14.4875 5.5125 18.125 10 18.125C14.4875 18.125 18.125 14.4875 18.125 10C18.125 5.5125 14.4875 1.875 10 1.875ZM10.625 5C10.625 4.83424 10.5592 4.67527 10.4419 4.55806C10.3247 4.44085 10.1658 4.375 10 4.375C9.83424 4.375 9.67527 4.44085 9.55806 4.55806C9.44085 4.67527 9.375 4.83424 9.375 5V10C9.375 10.345 9.655 10.625 10 10.625H13.75C13.9158 10.625 14.0747 10.5592 14.1919 10.4419C14.3092 10.3247 14.375 10.1658 14.375 10C14.375 9.83424 14.3092 9.67527 14.1919 9.55806C14.0747 9.44085 13.9158 9.375 13.75 9.375H10.625V5Z" fill="#A5A3AD"/>
</svg>
