<svg width="16" height="16" viewBox="0 0 16 16" fill="none" xmlns="http://www.w3.org/2000/svg">
<path fill-rule="evenodd" clip-rule="evenodd" d="M3.20608 3.97097C2.46691 4.34957 2 5.12347 2 5.97004V10.03C2 10.8765 2.46691 11.6504 3.20608 12.029L7.02426 14.264C7.6385 14.5787 8.3615 14.5787 8.97574 14.264L12.7939 12.029C13.5331 11.6504 14 10.8765 14 10.03V5.97004C14 5.12347 13.5331 4.34957 12.7939 3.97098L8.97574 1.73596C8.3615 1.42135 7.6385 1.42135 7.02426 1.73596L3.20608 3.97097ZM7.99999 4.08874C8.21699 4.08874 8.42509 4.17704 8.57853 4.33422C8.73197 4.4914 8.81817 4.70458 8.81817 4.92687V7.16189C8.81817 7.38417 8.73197 7.59735 8.57853 7.75453C8.42509 7.91171 8.21699 8.00002 7.99999 8.00002C7.783 8.00002 7.57489 7.91171 7.42145 7.75453C7.26801 7.59735 7.18181 7.38417 7.18181 7.16189V4.92687C7.18181 4.70458 7.26801 4.4914 7.42145 4.33422C7.57489 4.17704 7.783 4.08874 7.99999 4.08874ZM7.99999 11.9113C8.28932 11.9113 8.5668 11.7936 8.77138 11.584C8.97597 11.3744 9.0909 11.0902 9.0909 10.7938C9.0909 10.4974 8.97597 10.2132 8.77138 10.0036C8.5668 9.79402 8.28932 9.67628 7.99999 9.67628C7.71066 9.67628 7.43319 9.79402 7.2286 10.0036C7.02402 10.2132 6.90908 10.4974 6.90908 10.7938C6.90908 11.0902 7.02402 11.3744 7.2286 11.584C7.43319 11.7936 7.71066 11.9113 7.99999 11.9113Z" fill="white"/>
</svg>
