<svg width="16" height="16" viewBox="0 0 16 16" fill="none" xmlns="http://www.w3.org/2000/svg">
<path fill-rule="evenodd" clip-rule="evenodd" d="M7.99698 4.76603C8.37264 4.76603 8.67718 5.07057 8.67718 5.44623V8.28042C8.67718 8.65608 8.37264 8.96062 7.99698 8.96062C7.62131 8.96062 7.31677 8.65608 7.31677 8.28042V5.44623C7.31677 5.07057 7.62131 4.76603 7.99698 4.76603ZM7.31677 10.5478C7.31677 10.1721 7.62131 9.86756 7.99698 9.86756H8.00302C8.37869 9.86756 8.68323 10.1721 8.68323 10.5478V10.5538C8.68323 10.9295 8.37869 11.234 8.00302 11.234H7.99698C7.62131 11.234 7.31677 10.9295 7.31677 10.5538V10.5478Z" fill="#A5A3AD"/>
<path fill-rule="evenodd" clip-rule="evenodd" d="M13.2617 9.82203V6.20361C13.2617 5.54079 12.8974 4.9316 12.3135 4.61793L8.85195 2.75837C8.32001 2.47262 7.68023 2.47262 7.14829 2.75837L3.68674 4.61793C3.10284 4.9316 2.73857 5.54079 2.73857 6.20361V9.82203C2.73857 10.4875 3.10573 11.0987 3.69324 11.4112L7.15479 13.2525C7.68329 13.5336 8.31696 13.5336 8.84545 13.2525L12.307 11.4112C12.8945 11.0987 13.2617 10.4875 13.2617 9.82203ZM3.11885 3.56081C2.14569 4.08359 1.53857 5.09891 1.53857 6.20361V9.82203C1.53857 10.9311 2.1505 11.9498 3.12969 12.4706L6.59124 14.3119C7.47206 14.7805 8.52818 14.7805 9.409 14.3119L12.8706 12.4706C13.8497 11.9498 14.4617 10.9311 14.4617 9.82203V6.20361C14.4617 5.09891 13.8546 4.08359 12.8814 3.56081L9.41984 1.70125C8.53328 1.22499 7.46697 1.22499 6.5804 1.70125L3.11885 3.56081Z" fill="#A5A3AD"/>
</svg>
