<svg width="20" height="20" viewBox="0 0 20 20" fill="none" xmlns="http://www.w3.org/2000/svg">
<path fill-rule="evenodd" clip-rule="evenodd" d="M18.75 10C18.75 12.3206 17.8281 14.5462 16.1872 16.1872C14.5462 17.8281 12.3206 18.75 10 18.75C7.67936 18.75 5.45376 17.8281 3.81282 16.1872C2.17187 14.5462 1.25 12.3206 1.25 10C1.25 7.67936 2.17187 5.45376 3.81282 3.81282C5.45376 2.17187 7.67936 1.25 10 1.25C12.3206 1.25 14.5462 2.17187 16.1872 3.81282C17.8281 5.45376 18.75 7.67936 18.75 10ZM12.5 7.5C12.5 8.16304 12.2366 8.79893 11.7678 9.26777C11.2989 9.73661 10.663 10 10 10C9.33696 10 8.70107 9.73661 8.23223 9.26777C7.76339 8.79893 7.5 8.16304 7.5 7.5C7.5 6.83696 7.76339 6.20107 8.23223 5.73223C8.70107 5.26339 9.33696 5 10 5C10.663 5 11.2989 5.26339 11.7678 5.73223C12.2366 6.20107 12.5 6.83696 12.5 7.5ZM10 11.25C8.82471 11.25 7.72506 11.5742 6.78584 12.138C5.19759 13.0915 5.35143 15.3963 7.02128 16.1984C7.95075 16.6449 8.96887 16.8761 10 16.875C11.0309 16.8759 12.0488 16.6446 12.978 16.1981C14.6478 15.3959 14.803 13.0906 13.2139 12.1384C13.1717 12.1131 13.1291 12.0882 13.0863 12.0639C12.1454 11.5299 11.0819 11.2494 10 11.25Z" fill="#09080F"/>
</svg>
