<svg width="20" height="20" viewBox="0 0 20 20" fill="none" xmlns="http://www.w3.org/2000/svg">
<path fill-rule="evenodd" clip-rule="evenodd" d="M9.64442 1.83965C9.86641 1.72012 10.1336 1.72012 10.3556 1.83965L17.8556 5.87811C18.0985 6.00892 18.25 6.26256 18.25 6.53848C18.25 6.81439 18.0985 7.06803 17.8555 7.19883L15.8675 8.26923L17.8555 9.33963C18.0985 9.47044 18.25 9.72408 18.25 10C18.25 10.2759 18.0985 10.5296 17.8555 10.6604L15.8675 11.7308L17.8555 12.8012C18.0985 12.932 18.25 13.1856 18.25 13.4615C18.25 13.7374 18.0985 13.9911 17.8556 14.1219L10.3556 18.1604C10.1336 18.2799 9.86641 18.2799 9.64442 18.1604L2.14443 14.1219C1.90149 13.9911 1.74999 13.7374 1.75 13.4615C1.75001 13.1856 1.90151 12.932 2.14445 12.8012L4.13254 11.7308L2.14445 10.6604C1.90151 10.5296 1.75 10.2759 1.75 10C1.75 9.72408 1.90151 9.47044 2.14445 9.33963L4.13254 8.26923L2.14445 7.19883C1.90151 7.06803 1.75001 6.81439 1.75 6.53848C1.74999 6.26256 1.90149 6.00892 2.14443 5.87811L9.64442 1.83965ZM14.2854 12.5826L10.3556 14.6988C10.1336 14.8183 9.8664 14.8183 9.6444 14.6988L5.71458 12.5826L4.08201 13.4616L10 16.6482L15.918 13.4616L14.2854 12.5826ZM14.2854 9.12104L10.3556 11.2373C10.1336 11.3568 9.8664 11.3568 9.6444 11.2373L5.71458 9.12104L4.08207 10L6.07016 11.0704L6.07021 11.0704L10 13.1866L13.9298 11.0704L13.9298 11.0704L15.9179 10L14.2854 9.12104ZM4.08201 6.53843L6.07016 7.60886L6.07021 7.60889L10 9.72509L13.9298 7.60889L13.9298 7.60886L15.918 6.53843L10 3.35182L4.08201 6.53843Z" fill="#A5A3AD"/>
</svg>
